<?xml version="1.0" encoding="utf-8"?>
<!-- Generator: Adobe Illustrator 16.0.4, SVG Export Plug-In . SVG Version: 6.00 Build 0)  -->
<!DOCTYPE svg PUBLIC "-//W3C//DTD SVG 1.1//EN" "http://www.w3.org/Graphics/SVG/1.1/DTD/svg11.dtd">
<svg version="1.1" id="About_Icon" xmlns="http://www.w3.org/2000/svg" xmlns:xlink="http://www.w3.org/1999/xlink" x="0px" y="0px"
	 width="32px" height="32px" viewBox="0 0 32 32" enable-background="new 0 0 32 32" xml:space="preserve">
<path fill-rule="evenodd" clip-rule="evenodd" fill="#FFFFFF" d="M16.01,28.01c-6.63,0-12-5.37-12-12s5.37-12,12-12s12,5.37,12,12
	S22.64,28.01,16.01,28.01z M19.95,21.48c-2.02,0.01-1.98-1.38-1.98-1.38v-6.63h-5c0,0,0.04,1.93,0.07,1.93
	c2.22,0,1.95,0.92,1.95,0.92s-0.02,3.22,0,3.78c0.06,1.46-2.02,1.38-2.02,1.38v2.03h6.99v-1.99C19.95,21.52,19.98,21.09,19.95,21.48
	z M16.43,8.39c0.89,0,1.61,0.65,1.61,1.54c0,0.89-0.72,1.61-1.61,1.61c-0.89,0-1.47-0.72-1.47-1.61
	C14.96,9.04,15.54,8.39,16.43,8.39z"/>
</svg>
