<?xml version="1.0" encoding="utf-8"?>
<!-- Generator: Adobe Illustrator 16.0.4, SVG Export Plug-In . SVG Version: 6.00 Build 0)  -->
<!DOCTYPE svg PUBLIC "-//W3C//DTD SVG 1.1//EN" "http://www.w3.org/Graphics/SVG/1.1/DTD/svg11.dtd">
<svg version="1.1" id="close_Icon" xmlns="http://www.w3.org/2000/svg" xmlns:xlink="http://www.w3.org/1999/xlink" x="0px" y="0px"
	 width="32px" height="32px" viewBox="0 0 32 32" enable-background="new 0 0 32 32" xml:space="preserve">
<path fill-rule="evenodd" clip-rule="evenodd" fill="#FFFFFF" d="M16.01,27.95c-6.63,0-12-5.37-12-12c0-6.63,5.37-12,12-12
	c6.63,0,12,5.37,12,12C28.01,22.58,22.64,27.95,16.01,27.95z M21.56,12.67c0.63-0.63,0.63-1.64,0-2.26c-0.62-0.62-1.64-0.62-2.26,0
	l-3.29,3.29l-3.29-3.29c-0.63-0.62-1.64-0.62-2.26,0c-0.62,0.63-0.62,1.64,0,2.26l3.29,3.29l-3.29,3.29c-0.62,0.62-0.62,1.64,0,2.26
	c0.63,0.63,1.64,0.63,2.26,0l3.29-3.29l3.29,3.29c0.62,0.63,1.64,0.63,2.26,0c0.63-0.62,0.63-1.64,0-2.26l-3.29-3.29L21.56,12.67z"
	/>
</svg>
