<?xml version="1.0" encoding="utf-8"?>
<!-- Generator: Adobe Illustrator 16.0.4, SVG Export Plug-In . SVG Version: 6.00 Build 0)  -->
<!DOCTYPE svg PUBLIC "-//W3C//DTD SVG 1.1//EN" "http://www.w3.org/Graphics/SVG/1.1/DTD/svg11.dtd">
<svg version="1.1" id="example_Icon" xmlns="http://www.w3.org/2000/svg" xmlns:xlink="http://www.w3.org/1999/xlink" x="0px"
	 y="0px" width="32px" height="32px" viewBox="0 0 32 32" enable-background="new 0 0 32 32" xml:space="preserve">
<path fill-rule="evenodd" clip-rule="evenodd" fill="#FFFFFF" d="M21,5.15c0,1.17-2.02,1.01-2.02,1.01l-0.01,7.84l9,11.01l0,0.92
	c0,1.08-0.89,2.05-2,2.05H5.98c-1.11,0-2.01-0.97-2.01-2.05l0-0.93L13,13.93v-7.8c0,0-2.03,0.22-2.03-0.99c0-2.03,0-1.09,0-1.09H21
	C21,4.06,21,4.27,21,5.15z M15.05,6.11h1.98v7.91l5,6.92H10l5.03-6.89L15.05,6.11z"/>
</svg>
