<?xml version="1.0" encoding="utf-8"?>
<!-- Generator: Adobe Illustrator 16.2.1, SVG Export Plug-In . SVG Version: 6.00 Build 0)  -->
<!DOCTYPE svg PUBLIC "-//W3C//DTD SVG 1.1//EN" "http://www.w3.org/Graphics/SVG/1.1/DTD/svg11.dtd">
<svg version="1.1" id="Layer_1" xmlns:ev="http://www.w3.org/2001/xml-events"
	 xmlns="http://www.w3.org/2000/svg" xmlns:xlink="http://www.w3.org/1999/xlink" x="0px" y="0px" width="24px" height="24px"
	 viewBox="-15.5 24.5 24 24" enable-background="new -15.5 24.5 24 24" xml:space="preserve">
<path fill="#0572CE" d="M5.019,33.278l-4.266,7.687c-0.221,0.221-0.578,0.221-0.798,0l-4.373-7.687c-0.221-0.22-0.221-0.523,0-0.745
	h9.437C5.239,32.755,5.239,33.059,5.019,33.278z M3.241,33.944h-5.912c-0.139,0.14-0.139,0.33,0,0.468l2.739,4.495
	c0.138,0.138,0.362,0.138,0.5,0l2.673-4.495C3.378,34.274,3.378,34.084,3.241,33.944z M-3.213,41.464h-9.437
	c-0.221-0.221-0.221-0.525,0-0.746l4.373-7.687c0.22-0.22,0.578-0.22,0.799,0l4.265,7.687C-2.993,40.938-2.993,41.243-3.213,41.464z
	"/>
</svg>
