<?xml version="1.0" encoding="utf-8"?>
<!-- Generator: Adobe Illustrator 16.2.1, SVG Export Plug-In . SVG Version: 6.00 Build 0)  -->
<!DOCTYPE svg PUBLIC "-//W3C//DTD SVG 1.1//EN" "http://www.w3.org/Graphics/SVG/1.1/DTD/svg11.dtd">
<svg version="1.1" xmlns="http://www.w3.org/2000/svg" xmlns:xlink="http://www.w3.org/1999/xlink" x="0px" y="0px" width="64px"
	 height="64px" viewBox="-11.5 12.5 64 64" enable-background="new -11.5 12.5 64 64" xml:space="preserve">
<g id="team_enabled_nav_bar_icon" display="none">
</g>
<g id="Layer_2" display="none">
	<g display="inline">
		<path fill-rule="evenodd" clip-rule="evenodd" fill="#0572CE" d="M-1,25.75h3.469v39.878H-1V25.75z"/>
		<path fill-rule="evenodd" clip-rule="evenodd" fill="#0572CE" d="M42.359,63.896v3.468H-1v-3.468H42.359z"/>
		<path fill-rule="evenodd" clip-rule="evenodd" fill="#0572CE" d="M7.672,32.687h5.202c0.958,0,1.735,0.776,1.735,1.733v24.273
			c0,0.959-0.776,1.735-1.735,1.735H7.672c-0.958,0-1.735-0.776-1.735-1.735V34.42C5.938,33.463,6.714,32.687,7.672,32.687z"/>
		<path fill-rule="evenodd" clip-rule="evenodd" fill="#0572CE" d="M19.812,27.484h5.203c0.959,0,1.735,0.776,1.735,1.734v29.475
			c0,0.959-0.776,1.735-1.735,1.735h-5.203c-0.958,0-1.734-0.776-1.734-1.735V29.218C18.079,28.26,18.855,27.484,19.812,27.484z"/>
		<path fill-rule="evenodd" clip-rule="evenodd" fill="#0572CE" d="M31.953,39.621h5.204c0.957,0,1.734,0.777,1.734,1.734v17.338
			c0,0.959-0.777,1.735-1.734,1.735h-5.204c-0.957,0-1.733-0.776-1.733-1.735V41.355C30.22,40.398,30.996,39.621,31.953,39.621z"/>
	</g>
</g>
<g id="Layer_3" display="none">
	<g display="inline">
		<path fill-rule="evenodd" clip-rule="evenodd" fill="#929292" d="M26.649,21.702h4.93v7.963h-4.93V21.702z"/>
		<path fill-rule="evenodd" clip-rule="evenodd" fill="#929292" d="M9.125,21.702h4.005v7.963H9.125V21.702z"/>
		<path fill-rule="evenodd" clip-rule="evenodd" fill="#929292" d="M37.872,25.708h-4.197c0,0-0.008,3.772,0,4.131
			c0.01,0.399-0.494,1.89-2.092,1.839c-1.145-0.036-3.729-0.021-4.91-0.012c-0.727,0.006-1.678-0.54-1.945-1.771
			c-0.139-0.635-0.061-4.188-0.061-4.188H15.61c0,0,0.098,2.49,0.127,4.207c0.025,1.627-1.158,1.827-2.006,1.827
			c-1.204,0-4.738,0-5.902,0c-0.792,0-1.124-0.482-1.158-1.827c-0.033-1.319-0.059-4.258-0.059-4.258H2.449
			c-2.087,0-3.779,1.637-3.779,3.654v36.471c0,2.019,1.692,3.904,3.779,3.904h35.423c2.088,0,3.779-1.636,3.779-3.654v-36.67
			C41.651,27.344,39.96,25.708,37.872,25.708z M37.644,62.454c0,2.019-1.346,3.193-3.434,3.193H6.027
			c-2.087,0-3.351-1.175-3.351-3.193v-20.85h34.967V62.454z"/>
		<path fill-rule="evenodd" clip-rule="evenodd" fill="#929292" d="M8.745,21.676h4.85v7.981h-4.85V21.676z"/>
		<path fill-rule="evenodd" clip-rule="evenodd" fill="#929292" d="M27.12,21.676h4.1v7.981h-4.1V21.676z"/>
		<path fill="#929292" d="M12.731,60.133v-9.079h-3.52v-2.141c0.492,0.014,0.97-0.022,1.43-0.109s0.873-0.24,1.24-0.46
			c0.366-0.221,0.676-0.511,0.93-0.87c0.253-0.36,0.42-0.807,0.5-1.341h2.26v14H12.731z"/>
		<path fill="#929292" d="M27.241,50.934c-0.566,0.934-1.041,1.927-1.42,2.979c-0.381,1.054-0.674,2.12-0.881,3.2
			s-0.316,2.087-0.33,3.02h-3.039c0.16-2.093,0.65-4.106,1.469-6.039c0.82-1.934,1.898-3.707,3.23-5.32h-6.639v-2.641h9.559v2.44
			C28.458,49.213,27.808,50,27.241,50.934z"/>
	</g>
</g>
<g id="Layer_4">
	<g>
		<path fill="#929292" d="M14.938,56.473c-1.032-1.021-1.735-2.236-2.11-3.646l-9.177,0.74c0.703,3.469,2.321,6.154,4.852,8.057
			c2.532,1.901,5.825,3.037,9.881,3.407v4.808h5.098v-4.939c4.57-0.493,8.14-1.831,10.706-4.016
			c2.567-2.183,3.851-4.869,3.851-8.057c0-2.853-1.02-5.19-3.06-7.013c-2.039-1.823-5.871-3.307-11.497-4.451V31.035
			c2.273,0.739,3.68,2.148,4.219,4.227l8.896-0.872c-0.609-2.642-2.016-4.75-4.219-6.326c-2.204-1.576-5.169-2.531-8.896-2.866
			v-2.615h-5.098v2.615c-4.033,0.3-7.261,1.431-9.688,3.395c-2.426,1.964-3.639,4.39-3.639,7.277c0,2.853,1.073,5.278,3.217,7.277
			c2.145,1.999,5.514,3.491,10.109,4.478v11.067C17.117,58.234,15.969,57.494,14.938,56.473z M18.384,40.096
			c-1.525-0.493-2.661-1.141-3.411-1.942c-0.75-0.801-1.125-1.668-1.125-2.602c0-1.021,0.41-1.954,1.23-2.8
			c0.82-0.846,1.922-1.443,3.306-1.796V40.096z M23.481,48.76c2.109,0.458,3.627,1.113,4.553,1.968s1.39,1.871,1.39,3.051
			c0,1.321-0.552,2.47-1.653,3.447s-2.531,1.59-4.289,1.836V48.76z"/>
	</g>
</g>
</svg>
