<?xml version="1.0" encoding="utf-8"?>
<!-- Generator: Adobe Illustrator 16.2.1, SVG Export Plug-In . SVG Version: 6.00 Build 0)  -->
<!DOCTYPE svg PUBLIC "-//W3C//DTD SVG 1.1//EN" "http://www.w3.org/Graphics/SVG/1.1/DTD/svg11.dtd">
<svg version="1.1" id="Layer_1" xmlns="http://www.w3.org/2000/svg" xmlns:xlink="http://www.w3.org/1999/xlink" x="0px" y="0px"
	 width="32px" height="32px" viewBox="0 0 32 32" enable-background="new 0 0 32 32" xml:space="preserve">
<g id="Icon_Canvas" display="none">
	<g display="inline">
		<path fill="#ED1C24" d="M27,5v22H5V5H27 M28,4H4v24h24V4L28,4z"/>
	</g>
</g>
<g id="collapse" display="none">
	<path display="inline" fill="#828282" d="M10,22V11l11,11H10z"/>
</g>
<g id="Layer_7" display="none">
	<g display="inline">
		<g>
			<path fill="#0FB5CE" d="M22.42,15.27h-3.61l-2.84,5.15l-2.93-5.15H9.97C9.43,15.27,9,15.7,9,16.24v7.8C9,24.57,9.43,25,9.97,25
				h12.45c0.53,0,0.97-0.43,0.97-0.96v-7.8C23.38,15.7,22.95,15.27,22.42,15.27z M16.05,14.04c1.99,0,3.6-1.76,3.6-3.74
				s-1.61-3.57-3.6-3.57c-1.99,0-3.76,1.6-3.76,3.57C12.29,12.27,14.07,14.04,16.05,14.04z"/>
		</g>
	</g>
</g>
<g id="expand" display="none">
	<path display="inline" fill="#828282" d="M22,10v11L11,10H22z"/>
</g>
<g id="Layer_4" display="none">
	<g display="inline">
		<g>
			<polygon fill="#878C90" points="19.8,19.47 25.47,16.06 19.8,12.66 19.8,14.93 13,14.94 13,17.2 19.8,17.2 			"/>
		</g>
		<path fill="#878C90" d="M16.07,25.13c3.35,0,6.28-1.83,7.84-4.53h-2.79c-1.25,1.39-3.05,2.27-5.06,2.27c-3.75,0-6.8-3.04-6.8-6.8
			c0-3.76,3.04-6.8,6.8-6.8c2.01,0,3.81,0.88,5.06,2.27h2.79C22.34,8.83,19.42,7,16.07,7C11.06,7,7,11.06,7,16.07
			C7,21.07,11.06,25.13,16.07,25.13z"/>
	</g>
</g>
<g id="decline">
	<g>
		<g>
			<path fill="#FFFFFF" d="M28,17h-5c-0.55,0-1,0.45-1,1v11c0,0.55,0.45,1,1,1h5c0.55,0,1-0.45,1-1V18C29,17.45,28.55,17,28,17z
				 M18,13h-5c-0.55,0-1,0.45-1,1v15c0,0.55,0.45,1,1,1h5c0.55,0,1-0.45,1-1V14C19,13.45,18.55,13,18,13z M8,3H3C2.45,3,2,3.45,2,4
				v25c0,0.55,0.45,1,1,1h5c0.55,0,1-0.45,1-1V4C9,3.45,8.55,3,8,3z"/>
		</g>
	</g>
</g>
<g id="incline" display="none">
	<g display="inline">
		<g>
			<path fill="#FFFFFF" d="M2,18v11c0,0.55,0.45,1,1,1h5c0.55,0,1-0.45,1-1V18c0-0.55-0.45-1-1-1H3C2.45,17,2,17.45,2,18z M12,14v15
				c0,0.55,0.45,1,1,1h5c0.55,0,1-0.45,1-1V14c0-0.55-0.45-1-1-1h-5C12.45,13,12,13.45,12,14z M22,4v25c0,0.55,0.45,1,1,1h5
				c0.55,0,1-0.45,1-1V4c0-0.55-0.45-1-1-1h-5C22.45,3,22,3.45,22,4z"/>
		</g>
	</g>
</g>
</svg>
