<?xml version="1.0" encoding="utf-8"?>
<!DOCTYPE svg PUBLIC "-//W3C//DTD SVG 1.1//EN" "http://www.w3.org/Graphics/SVG/1.1/DTD/svg11.dtd">
<svg version="1.1" id="Layer_1" xmlns="http://www.w3.org/2000/svg" xmlns:xlink="http://www.w3.org/1999/xlink" x="0px" y="0px"
	 width="31px" height="31px" viewBox="0 0 31 31" enable-background="new 0 0 31 31" xml:space="preserve">
<g>
	<g>
		<path fill-rule="evenodd" clip-rule="evenodd" fill="#0572CE" d="M0,0v31h31V0H0z M9.98,24.81c0,0.62-0.5,1.12-1.12,1.12H5.08
			c-0.62,0-1.12-0.5-1.12-1.12v-2.72c0-0.62,0.5-1.12,1.12-1.12h3.79c0.62,0,1.12,0.5,1.12,1.12V24.81z M9.98,16.81
			c0,0.62-0.5,1.12-1.12,1.12H5.08c-0.62,0-1.12-0.5-1.12-1.12v-2.72c0-0.62,0.5-1.12,1.12-1.12h3.79c0.62,0,1.12,0.5,1.12,1.12
			V16.81z M9.98,8.82c0,0.62-0.5,1.12-1.12,1.12H5.08c-0.62,0-1.12-0.5-1.12-1.12V6.1c0-0.62,0.5-1.12,1.12-1.12h3.79
			c0.62,0,1.12,0.5,1.12,1.12V8.82z M18.98,24.81c0,0.62-0.5,1.12-1.12,1.12h-4.79c-0.62,0-1.12-0.5-1.12-1.12v-2.72
			c0-0.62,0.5-1.12,1.12-1.12h4.79c0.62,0,1.12,0.5,1.12,1.12V24.81z M18.98,16.81c0,0.62-0.5,1.12-1.12,1.12h-4.77
			c-0.62,0-1.12-0.5-1.12-1.12v-2.72c0-0.62,0.5-1.12,1.12-1.12h4.77c0.62,0,1.12,0.5,1.12,1.12V16.81z M18.98,8.82
			c0,0.62-0.5,1.12-1.12,1.12h-4.79c-0.62,0-1.12-0.5-1.12-1.12V6.1c0-0.62,0.5-1.12,1.12-1.12h4.79c0.62,0,1.12,0.5,1.12,1.12V8.82
			z M26.97,24.81c0,0.62-0.5,1.12-1.12,1.12h-3.79c-0.62,0-1.12-0.5-1.12-1.12v-2.72c0-0.62,0.5-1.12,1.12-1.12h3.79
			c0.62,0,1.12,0.5,1.12,1.12V24.81z M26.97,16.81c0,0.62-0.5,1.12-1.12,1.12h-3.79c-0.62,0-1.12-0.5-1.12-1.12v-2.72
			c0-0.62,0.5-1.12,1.12-1.12h3.79c0.62,0,1.12,0.5,1.12,1.12V16.81z M26.97,8.82c0,0.62-0.5,1.12-1.12,1.12h-3.79
			c-0.62,0-1.12-0.5-1.12-1.12V6.1c0-0.62,0.5-1.12,1.12-1.12h3.79c0.62,0,1.12,0.5,1.12,1.12V8.82z"/>
	</g>
</g>
</svg>
