<?xml version="1.0" encoding="utf-8"?>
<!DOCTYPE svg PUBLIC "-//W3C//DTD SVG 1.1//EN" "http://www.w3.org/Graphics/SVG/1.1/DTD/svg11.dtd">
<svg version="1.1" id="grid_view_enabled" xmlns="http://www.w3.org/2000/svg" xmlns:xlink="http://www.w3.org/1999/xlink" x="0px"
	 y="0px" width="31px" height="31px" viewBox="0 0 31 31" enable-background="new 0 0 31 31" xml:space="preserve">
<g>
	<g>
		<path fill-rule="evenodd" clip-rule="evenodd" fill="#0572CE" d="M17.85,12.97h-4.72c-0.63,0-1.14,0.51-1.14,1.13v2.75
			c0,0.62,0.51,1.13,1.14,1.13h4.72c0.63,0,1.14-0.5,1.14-1.13V14.1C18.98,13.48,18.47,12.97,17.85,12.97z M22.07,17.98h3.79
			c0.62,0,1.12-0.5,1.12-1.13V14.1c0-0.62-0.5-1.13-1.12-1.13h-3.79c-0.62,0-1.12,0.51-1.12,1.13v2.75
			C20.96,17.48,21.46,17.98,22.07,17.98z M13.08,9.99h4.78c0.62,0,1.12-0.51,1.12-1.13V6.11c0-0.62-0.5-1.13-1.12-1.13h-4.78
			c-0.62,0-1.12,0.51-1.12,1.13v2.75C11.97,9.48,12.47,9.99,13.08,9.99z M22.07,9.99h3.79c0.62,0,1.12-0.51,1.12-1.13V6.11
			c0-0.62-0.5-1.13-1.12-1.13h-3.79c-0.62,0-1.12,0.51-1.12,1.13v2.75C20.96,9.48,21.46,9.99,22.07,9.99z M22.07,26h3.79
			c0.62,0,1.12-0.51,1.12-1.14V22.1c0-0.63-0.5-1.14-1.12-1.14h-3.79c-0.62,0-1.12,0.51-1.12,1.14v2.76
			C20.96,25.5,21.46,26,22.07,26z M0.01,0v30.99H31V0H0.01z M29.97,30.02h-29v-29h29V30.02z M5.09,26h3.79
			c0.62,0,1.12-0.51,1.12-1.14V22.1c0-0.63-0.5-1.14-1.12-1.14H5.09c-0.62,0-1.12,0.51-1.12,1.14v2.76C3.97,25.5,4.47,26,5.09,26z
			 M13.08,26h4.78c0.62,0,1.12-0.51,1.12-1.14V22.1c0-0.63-0.5-1.14-1.12-1.14h-4.78c-0.62,0-1.12,0.51-1.12,1.14v2.76
			C11.97,25.5,12.47,26,13.08,26z M5.09,17.98h3.79c0.62,0,1.12-0.5,1.12-1.13V14.1c0-0.62-0.5-1.13-1.12-1.13H5.09
			c-0.62,0-1.12,0.51-1.12,1.13v2.75C3.97,17.48,4.47,17.98,5.09,17.98z M5.09,10.02h3.79c0.62,0,1.12-0.51,1.12-1.14V6.12
			c0-0.63-0.5-1.14-1.12-1.14H5.09c-0.62,0-1.12,0.51-1.12,1.14v2.77C3.97,9.51,4.47,10.02,5.09,10.02z"/>
	</g>
</g>
</svg>
