<?xml version="1.0" encoding="utf-8"?>
<!DOCTYPE svg PUBLIC "-//W3C//DTD SVG 1.1//EN" "http://www.w3.org/Graphics/SVG/1.1/DTD/svg11.dtd">
<svg version="1.1" id="Linked_In_Icon" xmlns="http://www.w3.org/2000/svg" xmlns:xlink="http://www.w3.org/1999/xlink" x="0px"
	 y="0px" width="30px" height="30px" viewBox="0 0 30 30" enable-background="new 0 0 30 30" xml:space="preserve">
<g>
	<g>
		<path fill-rule="evenodd" clip-rule="evenodd" fill="#FFFFFF" d="M5,24.99h4.01V11.02H5V24.99z M25.79,14.4
			c-0.58-1.86-2.8-3.38-5.47-3.38c-1.8,0-3.34,0.78-4.32,1.87V11h-3.98l0,13.98H16v-7.36c0.74-1.28,2.17-2.16,3.83-2.16
			c0.84,0,2.16,0.61,2.16,0.61l0.02,6.61c0,0-0.01,0.03-0.04,0.07v2.28h4V14.4H25.79z M7.06,4.99c-1.11,0-2.02,0.9-2.02,2.01
			S5.83,9.11,7,9.11c1.17,0,2.11-0.94,2.11-2.11C9.11,5.84,8.18,4.99,7.06,4.99z"/>
	</g>
</g>
</svg>
