<?xml version="1.0" encoding="utf-8"?>
<!DOCTYPE svg PUBLIC "-//W3C//DTD SVG 1.1//EN" "http://www.w3.org/Graphics/SVG/1.1/DTD/svg11.dtd">
<svg version="1.1" id="list_view_selected" xmlns="http://www.w3.org/2000/svg" xmlns:xlink="http://www.w3.org/1999/xlink" x="0px"
	 y="0px" width="31px" height="31px" viewBox="0 0 31 31" enable-background="new 0 0 31 31" xml:space="preserve">
<g>
	<g>
		<path fill-rule="evenodd" clip-rule="evenodd" fill="#0572CE" d="M0.01,0.02v31h31v-31H0.01z M11.01,6.02h16.97v3.03H11.01V6.02z
			 M8.99,24.84c0,0.62-0.5,1.13-1.11,1.13H5.11c-0.61,0-1.11-0.51-1.11-1.13v-2.75c0-0.62,0.5-1.13,1.11-1.13h2.78
			c0.61,0,1.11,0.51,1.11,1.13V24.84z M8.99,16.84c0,0.62-0.5,1.13-1.11,1.13H5.11c-0.61,0-1.11-0.5-1.11-1.13V14.1
			c0-0.62,0.5-1.13,1.11-1.13h2.78c0.61,0,1.11,0.5,1.11,1.13V16.84z M9.01,8.83c0,0.62-0.5,1.12-1.12,1.12H5.1
			c-0.62,0-1.12-0.5-1.12-1.12V6.11C3.98,5.5,4.48,5,5.1,5h2.79c0.62,0,1.12,0.5,1.12,1.12V8.83z M27.95,25.01H11.01v-3.03h16.94
			V25.01z M27.99,17.02H11.01v-3.03h16.98V17.02z"/>
	</g>
</g>
</svg>
