<?xml version="1.0" encoding="utf-8"?>
<!-- Generator: Adobe Illustrator 16.2.1, SVG Export Plug-In . SVG Version: 6.00 Build 0)  -->
<!DOCTYPE svg PUBLIC "-//W3C//DTD SVG 1.1//EN" "http://www.w3.org/Graphics/SVG/1.1/DTD/svg11.dtd">
<svg version="1.1" xmlns="http://www.w3.org/2000/svg" xmlns:xlink="http://www.w3.org/1999/xlink" x="0px" y="0px" width="64px"
	 height="64px" viewBox="-11.5 12.5 64 64" enable-background="new -11.5 12.5 64 64" xml:space="preserve">
<g id="team_enabled_nav_bar_icon">
</g>
<g id="Layer_2">
	<g>
		<path fill-rule="evenodd" clip-rule="evenodd" fill="#0572CE" d="M-1,25.75h3.469v39.878H-1V25.75z"/>
		<path fill-rule="evenodd" clip-rule="evenodd" fill="#0572CE" d="M42.359,63.896v3.468H-1v-3.468H42.359z"/>
		<path fill-rule="evenodd" clip-rule="evenodd" fill="#0572CE" d="M7.672,32.687h5.202c0.958,0,1.735,0.776,1.735,1.733v24.273
			c0,0.959-0.776,1.735-1.735,1.735H7.672c-0.958,0-1.735-0.776-1.735-1.735V34.42C5.938,33.463,6.714,32.687,7.672,32.687z"/>
		<path fill-rule="evenodd" clip-rule="evenodd" fill="#0572CE" d="M19.812,27.484h5.203c0.959,0,1.735,0.776,1.735,1.734v29.475
			c0,0.959-0.776,1.735-1.735,1.735h-5.203c-0.958,0-1.734-0.776-1.734-1.735V29.218C18.079,28.26,18.855,27.484,19.812,27.484z"/>
		<path fill-rule="evenodd" clip-rule="evenodd" fill="#0572CE" d="M31.953,39.621h5.204c0.957,0,1.734,0.777,1.734,1.734v17.338
			c0,0.959-0.777,1.735-1.734,1.735h-5.204c-0.957,0-1.733-0.776-1.733-1.735V41.355C30.22,40.398,30.996,39.621,31.953,39.621z"/>
	</g>
</g>
</svg>
