<?xml version="1.0" encoding="utf-8"?>
<!-- Generator: Adobe Illustrator 16.2.1, SVG Export Plug-In . SVG Version: 6.00 Build 0)  -->
<!DOCTYPE svg PUBLIC "-//W3C//DTD SVG 1.1//EN" "http://www.w3.org/Graphics/SVG/1.1/DTD/svg11.dtd">
<svg version="1.1" id="sign_in_copy" xmlns="http://www.w3.org/2000/svg" xmlns:xlink="http://www.w3.org/1999/xlink" x="0px"
	 y="0px" width="32px" height="32px" viewBox="0 0 32 32" enable-background="new 0 0 32 32" xml:space="preserve">
<g>
	<g>
		<path fill-rule="evenodd" clip-rule="evenodd" fill="#FFFFFF" d="M27,15.88l-6.56-4.5v3l-8.08,0v3l8.08,0v3L27,15.88z
			 M16.41,24.88c-5.01,0-9.08-4.03-9.08-9s4.06-9,9.08-9c2.69,0,5.09,1.16,6.75,3h3.72c-2.09-3.58-5.99-6-10.47-6
			c-6.69,0-12.1,5.37-12.1,12s5.42,12,12.1,12c4.48,0,8.38-2.42,10.47-6h-3.72C21.5,23.72,19.09,24.88,16.41,24.88z"/>
	</g>
</g>
</svg>
