<?xml version="1.0" encoding="utf-8"?>
<!DOCTYPE svg PUBLIC "-//W3C//DTD SVG 1.1//EN" "http://www.w3.org/Graphics/SVG/1.1/DTD/svg11.dtd">
<svg version="1.1" id="springboard" xmlns="http://www.w3.org/2000/svg" xmlns:xlink="http://www.w3.org/1999/xlink" x="0px"
	 y="0px" width="26px" height="26px" viewBox="0 0 26 26" enable-background="new 0 0 26 26" xml:space="preserve">
<g>
	<g>
		<path fill="#0572CE" d="M21.01,17.99H5c-0.55,0-1,0.45-1,1v1.01c0,0.55,0.45,1,1,1h16.01c0.55,0,0.98-0.45,0.98-1v-1.01
			C21.99,18.44,21.56,17.99,21.01,17.99z M21.01,10.99H5c-0.55,0-1,0.45-1,1v1.02c0,0.55,0.45,1,1,1h16.01c0.55,0,0.98-0.45,0.98-1
			v-1.02C21.99,11.44,21.56,10.99,21.01,10.99z M21.01,3.99H5c-0.55,0-1,0.45-1,1v1.02c0,0.55,0.45,1,1,1h16.01
			c0.55,0,0.98-0.45,0.98-1V4.99C21.99,4.44,21.56,3.99,21.01,3.99z"/>
	</g>
</g>
</svg>
