<?xml version="1.0" encoding="utf-8"?>
<!DOCTYPE svg PUBLIC "-//W3C//DTD SVG 1.1//EN" "http://www.w3.org/Graphics/SVG/1.1/DTD/svg11.dtd">
<svg version="1.1" id="team_enabled_nav_bar_icon" xmlns="http://www.w3.org/2000/svg" xmlns:xlink="http://www.w3.org/1999/xlink"
	 x="0px" y="0px" width="64px" height="64px" viewBox="0 0 64 64" enable-background="new 0 0 64 64" xml:space="preserve">
<g>
	<g>
		<path fill-rule="evenodd" clip-rule="evenodd" fill="#929292" d="M9.56,30.5C8.7,30.5,8,31.19,8,32.03v12.63
			c0,0.85,1.2,1.54,2.06,1.54h6.91L17,37.56l-3.58-7.06H9.56z M38.77,27.47c4.85,0,9.19-4.24,9.19-8.99s-4.34-8.6-9.19-8.6
			c-4.85,0-8.79,3.85-8.79,8.6S33.92,27.47,38.77,27.47z M53.64,30.44h-7.5l-7.15,12.4l-6.94-12.4h-8.82c-1.3,0-2.36,1.04-2.36,2.32
			v18.78c0,1.28,1.06,2.33,2.36,2.33h30.41c1.3,0,2.36-1.04,2.36-2.33V32.77C56,31.48,54.94,30.44,53.64,30.44z M16.65,16.81
			c-3.09,0-5.59,2.34-5.59,5.22s2.39,5.51,5.33,5.51c2.94,0,5.57-2.62,5.57-5.51S19.74,16.81,16.65,16.81z"/>
	</g>
</g>
</svg>
