<?xml version="1.0" encoding="utf-8"?>
<!DOCTYPE svg PUBLIC "-//W3C//DTD SVG 1.1//EN" "http://www.w3.org/Graphics/SVG/1.1/DTD/svg11.dtd">
<svg version="1.1" id="twitter_x5F_icon" xmlns="http://www.w3.org/2000/svg" xmlns:xlink="http://www.w3.org/1999/xlink" x="0px"
	 y="0px" width="30px" height="30px" viewBox="0 0 30 30" enable-background="new 0 0 30 30" xml:space="preserve">
<path fill-rule="evenodd" clip-rule="evenodd" fill="#FFFFFF" d="M24.86,8.49c-0.57,0.51-1.37,1.25-1.94,1.76
	C22.57,25.22,8.64,24.23,4.95,20.94c2.01-0.07,4.07-0.11,5.81-1.72c-2.64,0.12-3.63-1.2-3.63-2.95c0.33-0.08,0.65-0.15,0.98-0.23
	c-1.94-1.13-2.14-1.72-2.51-4c0.59,0.12,1.15,0.96,1.76,0.35C4.86,10.46,5.6,7.97,6.01,6.93c2.26,2.29,4.39,4.37,8.83,4.22
	c0-0.65,0-1.5,0-2.15c0.81-3.61,5.9-3.97,6.75-1.28c0.73-0.29,1.88-0.79,2.61-1.08c0.05,0.02,0.1,0.05,0.14,0.07
	c0,0.07,0,0.14,0,0.2c-0.39,0.6-1.36,1.22-1.76,1.79c0.59-0.12,1.77-0.31,2.36-0.43C24.92,8.35,24.89,8.42,24.86,8.49z"/>
</svg>
