<?xml version="1.0" encoding="utf-8"?>
<!DOCTYPE svg PUBLIC "-//W3C//DTD SVG 1.1//EN" "http://www.w3.org/Graphics/SVG/1.1/DTD/svg11.dtd">
<svg version="1.1" id="Layer_1" xmlns="http://www.w3.org/2000/svg" xmlns:xlink="http://www.w3.org/1999/xlink" x="0px" y="0px"
	 width="30px" height="30px" viewBox="0 0 30 30" enable-background="new 0 0 30 30" xml:space="preserve">
<g>
	<g>
		<path fill-rule="evenodd" clip-rule="evenodd" fill="#FFFFFF" d="M0,0v30h30V0H0z M24.42,10.27l-1.97,1.99c0,0,0,0.07,0,0.22
			c-0.04,10.63-9.98,11.98-9.98,11.98c-5.52,0.18-7.95-1.78-7.95-1.78c0.02-0.02,0-0.23,0-0.23s4.54,0.18,6-1.74
			c0.02-0.03-0.18-0.02-0.18-0.02l-0.86,0.01c0,0-2.72-0.9-2.72-2.37c0-0.14-0.01-0.38-0.01-0.38l1.74,0l-0.13-0.07
			c0,0-3.28-0.56-3.08-4.14c0.02-0.37,0.51,0.68,1.67,0.72c0.09,0,0.1-0.25,0.04-0.28c-2.97-1.49-1.19-5.26-1.19-5.26
			c-0.05-0.27,3.73,4.18,8.44,4.07c0,0,0.37-0.25,0.36-0.36C14.21,9.06,17.35,6,21.15,9.16c0.04,0.03,0.23,0.32,0.28,0.31
			c0.14-0.02,2.52-1.05,2.52-1.05c0.08,0,0.1,0.02-0.04,0.36c-0.5,1.23-1.69,1.67-1.69,1.86c0,0,1.25-0.27,2.19-0.65
			C24.5,9.96,24.42,10.27,24.42,10.27z"/>
	</g>
</g>
</svg>
