<?xml version="1.0" encoding="utf-8"?>
<!DOCTYPE svg PUBLIC "-//W3C//DTD SVG 1.1//EN" "http://www.w3.org/Graphics/SVG/1.1/DTD/svg11.dtd">
<svg version="1.1" id="Layer_1" xmlns="http://www.w3.org/2000/svg" xmlns:xlink="http://www.w3.org/1999/xlink" x="0px" y="0px"
	 width="30px" height="30px" viewBox="0 0 30 30" enable-background="new 0 0 30 30" xml:space="preserve">
<path fill="#F9C000" d="M14.96,1L14.96,1c1.13,0,2.02,0.93,2.72,2.33l10.73,21.84l0.05,0.1c0.48,0.58,0.48,1.38,0.48,1.38
	c0,1.29-1.04,2.33-2.33,2.33H3.31c-1.29,0-2.33-1.04-2.33-2.33c0,0,0-0.89,0.49-1.41c0.05-0.04,0.06-0.11,0.06-0.11L12.2,3.33
	C13.03,2.04,13.76,1,14.96,1z"/>
<path fill="#FFFFFF" d="M14.98,20.57c1.03,0,1.87,0.84,1.87,1.87c0,1.03-0.84,1.87-1.87,1.87s-1.87-0.84-1.87-1.87
	C13.11,21.4,13.95,20.57,14.98,20.57z"/>
<path fill="#FFFFFF" d="M14.94,7.03c-1.07,0-1.89,0.88-1.89,1.95l-0.01,0.04l-0.01,7.77v0.02c0.03,1.04,0.88,1.87,1.93,1.87
	c1.04,0,1.9-0.83,1.93-1.87l-0.01-0.05v-7.8V8.94C16.89,7.87,16.01,7.03,14.94,7.03z"/>
<path id="Border" fill="#F9C000" fill-opacity="0" stroke="#EEB500" stroke-width="0.9658" stroke-miterlimit="10" d="M14.99,1.02
	L14.99,1.02c1.13,0,2.02,0.92,2.73,2.33l10.73,21.84l0.05,0.1c0.48,0.58,0.48,1.38,0.48,1.38c0,1.29-1.04,2.33-2.33,2.33H3.34
	c-1.29,0-2.33-1.04-2.33-2.33c0,0,0.12-0.79,0.49-1.4c0.03-0.05,0.06-0.12,0.06-0.12l10.68-21.8C13.06,2.06,13.79,1.02,14.99,1.02z"
	/>
</svg>
