<?xml version="1.0" encoding="utf-8"?>
<!DOCTYPE svg PUBLIC "-//W3C//DTD SVG 1.1//EN" "http://www.w3.org/Graphics/SVG/1.1/DTD/svg11.dtd">
<svg version="1.1" id="func_tag_doc_b_26" xmlns:ev="http://www.w3.org/2001/xml-events"
	 xmlns="http://www.w3.org/2000/svg" xmlns:xlink="http://www.w3.org/1999/xlink" x="0px" y="0px" width="26px" height="26px"
	 viewBox="-15.5 8.5 26 26" enable-background="new -15.5 8.5 26 26" xml:space="preserve">
<path fill="#0572CE" d="M6.5,21.5l-0.19,0.24l-0.79,1.01l0-0.01l-2.87,3.6c-0.18,0.22-0.47,0.22-0.65-0.01l-0.33-0.42
	c-0.18-0.23-0.18-0.6-0.01-0.82l2.86-3.6L1.65,17.9c-0.18-0.22-0.17-0.59,0.01-0.82l0.33-0.42c0.18-0.23,0.47-0.24,0.65-0.01
	l2.87,3.6l0-0.01l0.79,1.01L6.5,21.5L6.5,21.5L6.5,21.5z"/>
<path fill="#0572CE" d="M-4.8,28.22c-0.53-0.18-0.81-0.76-0.63-1.29l3.94-11.51c0.18-0.53,0.76-0.81,1.29-0.63
	c0.53,0.18,0.82,0.76,0.63,1.29l-3.94,11.51C-3.69,28.12-4.27,28.41-4.8,28.22z"/>
<path fill="#0572CE" d="M-6.64,25.92l-0.33,0.42c-0.18,0.23-0.48,0.24-0.65,0.01l-2.89-3.6l-0.01,0.01l-0.8-1.01l-0.19-0.24l0,0l0,0
	l0.19-0.24l0.8-1.01l0.01,0.01l2.89-3.6c0.18-0.22,0.47-0.22,0.65,0.01l0.33,0.42c0.18,0.23,0.18,0.6,0.01,0.82l-2.88,3.59l2.88,3.6
	C-6.45,25.32-6.45,25.69-6.64,25.92z"/>
</svg>
