<?xml version="1.0" encoding="utf-8"?>
<!DOCTYPE svg PUBLIC "-//W3C//DTD SVG 1.1//EN" "http://www.w3.org/Graphics/SVG/1.1/DTD/svg11.dtd">
<svg version="1.1" id="Layer_1" xmlns:ev="http://www.w3.org/2001/xml-events"
	 xmlns="http://www.w3.org/2000/svg" xmlns:xlink="http://www.w3.org/1999/xlink" x="0px" y="0px" width="26px" height="26px"
	 viewBox="-6 2 26 26" enable-background="new -6 2 26 26" xml:space="preserve">
<path fill="#0572CE" d="M15.74,15.99l-6.67,6.8C8.76,23.1,8.31,23.1,8,22.8l0-4.87c-1.73-0.14-2.54-0.16-3.87-0.08
	c-1.67,0.15-3.38,1-4.19,1.85L0,19.65c-0.65,0.48-1.75,2.49-2,3.37c0-1.41,0.04-3.14,0.5-4.31c0.46-1.16,1.15-2.16,2.08-3
	c0.93-0.84,1.96-1.59,3.33-2.07C5.03,13.25,6.5,13.1,8,13.05V8.23c0.31-0.31,0.76-0.31,1.08,0l6.67,6.66
	C16.06,15.19,16.06,15.69,15.74,15.99z"/>
</svg>
