<?xml version="1.0" encoding="utf-8"?>
<!DOCTYPE svg PUBLIC "-//W3C//DTD SVG 1.1//EN" "http://www.w3.org/Graphics/SVG/1.1/DTD/svg11.dtd">
<svg version="1.1" id="Layer_1" xmlns="http://www.w3.org/2000/svg" xmlns:xlink="http://www.w3.org/1999/xlink" x="0px" y="0px"
	 width="160px" height="160px" viewBox="0 0 160 160" enable-background="new 0 0 160 160" xml:space="preserve">
<rect fill="#AAAFAA" width="160" height="160"/>
<path fill="#5A5B5A" d="M153.7,151.4c-9.5-3.6-19.4-6.1-29.5-7.6c-3.3-0.5-6.7-0.4-9.8-1.5c-4.2-1.6-6.6-4.3-7.7-8.8
	c-2.5-9.5,0.5-18.4,2.4-27.5c0.3-1.5,1.2-3,2.7-3.4c4-1,4.9-4,5.8-7.3c0.8-3,1.5-6.1,2.6-9.1c1.4-3.8,1.8-7.3-1.7-10.5
	c-1.5-1.4-1.7-3.5-1.8-5.6c-0.1-10.4-2.2-20.4-6.3-30C104.3,25.3,85.3,16.6,70,23.4c-8.6,3.8-15.2,9-20.6,16.6c-5,7-6.4,14.9-7,23
	c-0.3,3.6-0.4,7.2-0.7,10.8c-0.2,2.3-2.4,3.9-2.9,6.2c-1.3,5.9-0.9,14,2.2,19.5c1.1,1.8,4.2,1.7,5.3,3.4c1.3,2,2.5,3.8,3,6.2
	c0.8,4.1,2,8,3.7,11.9c2.1,4.9,1.4,10.1,0.8,15.2c-0.3,2.3-2.3,3.5-4.2,4.7c-5.8,3.7-12,6.2-18.9,6.9c-8.1,0.8-16,2.9-24.2,3.7
	C0,152,0,160,0,160h160C160,160,160,153.8,153.7,151.4z"/>
</svg>
