<?xml version="1.0" encoding="utf-8"?>
<!DOCTYPE svg PUBLIC "-//W3C//DTD SVG 1.1//EN" "http://www.w3.org/Graphics/SVG/1.1/DTD/svg11.dtd">
<svg version="1.1" id="func_x5F_properties_x5F_26_x5F_b" xmlns:ev="http://www.w3.org/2001/xml-events"
	 xmlns="http://www.w3.org/2000/svg" xmlns:xlink="http://www.w3.org/1999/xlink" x="0px" y="0px" width="26px" height="26px"
	 viewBox="-15.5 10.5 26 26" enable-background="new -15.5 10.5 26 26" xml:space="preserve">
<path fill="#0572CE" d="M4.48,21.81c-1.19,0.93-2.99,0.62-3.77,0.58c-0.1-0.26-0.24-0.5-0.46-0.69c-0.9-0.76-1.2-0.38-1.7-0.05
	c-0.37,0.28-0.51,0.49-0.51,0.49l-0.9-0.94l1.16-1.06c0,0-0.24-3.42,0.47-4.23c1.53-1.76,3.72-1.58,5.45-0.96
	c-0.71,0.39-4.32,1.9-2.42,3.82c1.9,1.92,4.19-1.03,4.6-1.45C6.83,19.05,6.29,20.77,4.48,21.81z M-1.58,22.82
	c0.32-0.21,0.51-0.45,1.08,0.03c0.61,0.51,0.37,1.67,0.37,1.67l5.23,4.48c0,0,0.85,0.55-0.09,1.46c-0.28,0.27-1.1,1.02-1.7,1.65
	c-0.93,0.98-1.51-0.2-1.51-0.2c-0.4-0.43-3.87-4.76-4.28-5.33c-0.5,0.14-1.26-0.09-1.54-0.38c-0.29-0.28-0.27-0.81-0.1-1.02
	s0.33-0.39,0.56-0.58c-0.68-0.7-6.87-7.2-7.5-7.75c-0.23-0.28-0.4-1.75-0.4-1.75l1.69,0.38l7.57,7.94
	C-2.21,23.45-1.82,23-1.58,22.82z M-10.43,28.15l4.74-4.35c0.41,0.43,0.71,0.75,0.86,0.89c-0.36,0.29-0.34,0.36-0.61,0.69
	c-0.27,0.33-0.29,1.16,0.16,1.6c0.24,0.24,0.7,0.45,1.19,0.56l-3.24,3.76c0,0-2.24,1.42-3.34,0.12
	C-12.3,29.46-10.43,28.15-10.43,28.15z M-9.16,30.8c0.51,0,0.92-0.43,0.92-0.95c0-0.53-0.41-0.96-0.92-0.96
	c-0.51,0-0.92,0.43-0.92,0.96C-10.08,30.38-9.67,30.8-9.16,30.8z"/>
</svg>
