<?xml version="1.0" encoding="utf-8"?>
<!DOCTYPE svg PUBLIC "-//W3C//DTD SVG 1.1//EN" "http://www.w3.org/Graphics/SVG/1.1/DTD/svg11.dtd">
<svg version="1.1" id="popu_x5F_book-mark_x5F_64_x5F_mono" xmlns:ev="http://www.w3.org/2001/xml-events"
	 xmlns="http://www.w3.org/2000/svg" xmlns:xlink="http://www.w3.org/1999/xlink" x="0px" y="0px" width="64px" height="64px"
	 viewBox="-3.5 6.5 64 64" enable-background="new -3.5 6.5 64 64" xml:space="preserve">
<path fill="#4A85C5" d="M-3.5,6.5h64v64h-64V6.5z"/>
<path fill="#FFFFFF" d="M40.88,35.5c-2.11,1.65-5.31,1.09-6.69,1.03c-0.18-0.46-0.43-0.89-0.82-1.22c-1.6-1.35-2.13-0.68-3.03-0.09
	c-0.66,0.49-0.9,0.86-0.9,0.86l-1.59-1.67l2.06-1.89c0,0-0.43-6.08,0.84-7.53c2.71-3.13,6.61-2.81,9.69-1.7
	c-1.27,0.69-7.68,3.37-4.3,6.79c3.38,3.42,7.44-1.83,8.17-2.58C45.05,30.58,44.09,33.64,40.88,35.5z M30.1,37.29
	c0.57-0.37,0.91-0.8,1.93,0.06c1.08,0.91,0.67,2.97,0.67,2.97l9.3,7.97c0,0,1.51,0.98-0.16,2.59c-0.5,0.48-1.96,1.81-3.02,2.94
	c-1.65,1.74-2.69-0.35-2.69-0.35C35.42,52.7,29.24,45,28.52,44c-0.89,0.25-2.23-0.17-2.74-0.67c-0.51-0.5-0.48-1.44-0.18-1.81
	c0.3-0.38,0.58-0.69,0.99-1.02c-1.22-1.26-12.23-12.82-13.34-13.78c-0.4-0.5-0.72-3.1-0.72-3.1l3,0.67l13.46,14.12
	C28.99,38.41,29.67,37.61,30.1,37.29z M14.38,46.76l8.43-7.74c0.73,0.76,1.27,1.32,1.52,1.59c-0.65,0.52-0.61,0.64-1.09,1.23
	c-0.47,0.59-0.52,2.06,0.29,2.84c0.43,0.43,1.24,0.79,2.11,1l-5.75,6.68c0,0-3.99,2.53-5.93,0.21
	C11.05,49.08,14.38,46.76,14.38,46.76z M16.63,51.48c0.91,0,1.64-0.76,1.64-1.7c0-0.94-0.73-1.7-1.64-1.7
	c-0.91,0-1.64,0.76-1.64,1.7C14.99,50.72,15.73,51.48,16.63,51.48z"/>
</svg>
