<?xml version="1.0" encoding="utf-8"?>
<!DOCTYPE svg PUBLIC "-//W3C//DTD SVG 1.1//EN" "http://www.w3.org/Graphics/SVG/1.1/DTD/svg11.dtd">
<svg version="1.1" id="func_x5F_style_x5F_b_x5F_26" xmlns:ev="http://www.w3.org/2001/xml-events"
	 xmlns="http://www.w3.org/2000/svg" xmlns:xlink="http://www.w3.org/1999/xlink" x="0px" y="0px" width="26px" height="26px"
	 viewBox="-14.5 10.5 26 26" enable-background="new -14.5 10.5 26 26" xml:space="preserve">
<path fill="#0572CE" d="M1.44,22.06c0,0-0.06,0.13-0.47,0.57c-2.36,2.54-10.98,10.3-11.42,9.84c-0.44-0.45,7.48-8.95,9.84-11.49
	c0.41-0.44,0.12-0.13,0.52-0.51l0.01-0.01c1.1-1.11,2.24-1.07,2.48-0.83C2.69,19.94,2.58,20.97,1.44,22.06z"/>
<path fill="#0572CE" d="M5.83,17.63c0.09,0.83-1.9,1.55-2.43,0.86c-0.44-0.58-0.1-2.54,0.99-2.99c0.81-0.34,1.38-0.56,2.97,0
	C8.07,15.74,5.66,16.06,5.83,17.63z"/>
<path fill="#0572CE" d="M0.44,32.46c-1.95,0.37-4.61-0.83-6.53-2.06c0,0,1.62-1.04,4.32-3.69c1.94-1.73,3.81-3.69,3.81-3.69
	c0.39,1.15,1.37,1.46,2.91,1.22C10.34,23.44,5.7,31.45,0.44,32.46z M4.1,25.68c-0.36-0.29-1.19-0.29-1.75,0.22
	c-0.85,0.79-1.23,2.22-0.65,2.47c0.65,0.28,1.79-0.08,2.29-0.71C4.46,27.07,4.53,26.02,4.1,25.68z M-3.68,23.27
	c-2.32,2.47-4.64,4.97-4.64,4.97c-0.77-1.21-1.2-2.6-1.18-4.49c0.06-4.39,3.75-10.11,7.42-9.14c2.12,0.46,2.91,1.77,3.14,3.79
	C1.06,18.4-1.27,20.7-3.68,23.27z"/>
</svg>
