<?xml version="1.0" encoding="utf-8"?>
<!DOCTYPE svg PUBLIC "-//W3C//DTD SVG 1.1//EN" "http://www.w3.org/Graphics/SVG/1.1/DTD/svg11.dtd">
<svg version="1.1" id="popu_x5F_book-mark_x5F_C_x5F_64_x5F_mono" xmlns:ev="http://www.w3.org/2001/xml-events"
	 xmlns="http://www.w3.org/2000/svg" xmlns:xlink="http://www.w3.org/1999/xlink" x="0px" y="0px" width="64px" height="64px"
	 viewBox="-3.5 6.5 64 64" enable-background="new -3.5 6.5 64 64" xml:space="preserve">
<path fill="#5F58A2" d="M-3.5,6.5h64v64h-64V6.5z"/>
<g id="Layer_3">
	<path fill="#FFFFFF" d="M33.72,35.89c0,0-0.1,0.23-0.83,1.01c-4.21,4.52-19.57,18.31-20.34,17.51
		c-0.78-0.81,13.32-15.92,17.52-20.44c0.72-0.78,0.22-0.23,0.92-0.91l0.02-0.02c1.96-1.98,4.11-1.95,4.53-1.54
		C36.06,32.06,35.75,33.95,33.72,35.89z"/>
	<path fill="#FFFFFF" d="M41.55,28.01c0.16,2.37-3.22,3.04-4.32,1.53c-1.02-1.74-0.26-4.65,1.69-5.45c1.38-0.63,2.53-0.87,5.37,0.13
		C45.54,24.65,41.25,24.88,41.55,28.01z"/>
	<path fill="#FFFFFF" d="M31.93,54.38c-3.47,0.66-8.34-1.54-11.76-3.73c0,0,2.88-1.85,7.7-6.56c3.45-3.08,6.79-6.56,6.79-6.56
		c0.7,2.04,2.56,2.66,5.31,2.24C49.57,38.33,41.31,52.58,31.93,54.38z M38.46,42.32c-1-0.82-2.12-0.52-3.11,0.39
		c-1.51,1.4-2.2,3.95-1.17,4.39c1.16,0.5,3.2-0.15,4.08-1.25C39.11,44.79,39.54,43.21,38.46,42.32z M24.79,37.29
		c-4.12,4.39-8.27,8.84-8.27,8.84c-1.37-2.16-2.33-3.88-2.29-7.24c0.1-7.8,6.68-17.98,13.22-16.26c3.41,0.66,5.37,2.4,5.78,5.99
		C33.24,28.62,29.09,32.72,24.79,37.29z"/>
</g>
</svg>
