<?xml version="1.0" encoding="utf-8"?>
<!DOCTYPE svg PUBLIC "-//W3C//DTD SVG 1.1//EN" "http://www.w3.org/Graphics/SVG/1.1/DTD/svg11.dtd">
<svg version="1.1" id="Basic_Layout" xmlns="http://www.w3.org/2000/svg" xmlns:xlink="http://www.w3.org/1999/xlink" x="0px"
	 y="0px" width="150px" height="224px" viewBox="-7.5 8.5 150 224" enable-background="new -7.5 8.5 150 224" xml:space="preserve">
<rect id="Background_Panel" x="-7.5" y="8.5" fill="#FFFFFF" width="150" height="224"/>
<g id="No_Content_Water_Mrk">
	<g opacity="0.4">
		<path fill="#C4DEF4" d="M131.356,48.099h-5.471v1.824h5.471V48.099L131.356,48.099L131.356,48.099z M120.414,48.099h-5.471v1.824
			h5.471V48.099L120.414,48.099z M109.473,48.099h-5.472v1.824h5.472V48.099L109.473,48.099z M98.53,48.099H93.06v1.824h5.471
			V48.099L98.53,48.099z M87.588,48.099h-5.471v1.824h5.471V48.099L87.588,48.099z M76.646,48.099h-5.471v1.824h5.471V48.099
			L76.646,48.099z M65.704,48.099h-5.471v1.824h5.471V48.099L65.704,48.099z M54.762,48.099h-5.471v1.824h5.471V48.099
			L54.762,48.099z M43.82,48.099h-5.471v1.824h5.471V48.099L43.82,48.099z M32.878,48.099h-5.471v1.824h5.471V48.099L32.878,48.099z
			 M21.936,48.099h-5.471v1.824h5.471V48.099L21.936,48.099z M10.994,48.099H5.523v1.824h5.471V48.099L10.994,48.099z M0.262,49.124
			c-0.771,0.549-1.343,1.286-1.611,2.124l0,0c0,0.002-0.001,0.004-0.002,0.007l0,0c-0.001,0.002-0.001,0.004-0.002,0.007
			c0,0,0,0,0,0c-0.006,0.018-0.011,0.037-0.017,0.055c0,0,0,0,0,0c0,0.002-0.001,0.004-0.002,0.006c0,0,0,0,0,0
			c-0.001,0.002-0.001,0.004-0.002,0.007c0,0,0,0,0,0c0,0.002-0.001,0.004-0.001,0.006c0,0,0,0,0,0c0,0.002-0.001,0.004-0.001,0.006
			c0,0,0,0,0,0c-0.004,0.014-0.008,0.028-0.012,0.042v0c-0.001,0.002-0.001,0.004-0.002,0.006c0,0,0,0,0,0.001
			c0,0.002-0.001,0.004-0.001,0.005c0,0,0,0.001,0,0.001c-0.001,0.002-0.001,0.004-0.002,0.006c0,0,0,0,0,0.001
			c0,0.002-0.001,0.004-0.001,0.006c0,0,0,0.001,0,0.001c0,0.002-0.001,0.004-0.002,0.006l0,0c-0.002,0.01-0.005,0.019-0.007,0.028
			v0c0,0.002-0.001,0.004-0.001,0.006c0,0,0,0,0,0.001c0,0.002-0.001,0.004-0.001,0.006c0,0,0,0,0,0.001
			c-0.001,0.002-0.001,0.004-0.002,0.006c0,0,0,0,0,0.001c0,0.002-0.001,0.004-0.001,0.006c0,0,0,0.001,0,0.001
			c0,0.002-0.001,0.004-0.001,0.006v0c0,0.002-0.001,0.004-0.002,0.007l0,0c-0.002,0.01-0.004,0.019-0.007,0.029l0,0
			c0,0.002-0.001,0.004-0.001,0.007c0,0,0,0,0,0.001c0,0.002-0.001,0.004-0.001,0.006c0,0,0,0.001,0,0.001
			c0,0.002-0.001,0.004-0.001,0.006c0,0,0,0.001,0,0.001c0,0.002-0.001,0.004-0.001,0.005c0,0.001,0,0.001,0,0.001
			c0,0.002-0.001,0.004-0.001,0.006c0,0,0,0.001,0,0.001c0,0.002,0,0.004-0.001,0.006c0,0,0,0,0,0.001
			c0,0.002-0.001,0.004-0.001,0.006v0c-0.001,0.007-0.003,0.014-0.004,0.021c0,0,0,0,0,0c0,0.002,0,0.004-0.001,0.007
			c0,0,0,0.001,0,0.001c0,0.001-0.001,0.003-0.001,0.005c0,0,0,0.001,0,0.002c0,0.001-0.001,0.003-0.001,0.005
			c0,0.001,0,0.001,0,0.002c0,0.002-0.001,0.003-0.001,0.005c0,0.001,0,0.001,0,0.002c0,0.001,0,0.003-0.001,0.005
			c0,0,0,0.001,0,0.002c0,0.002-0.001,0.003-0.001,0.005c0,0,0,0.001,0,0.001c0,0.002,0,0.004-0.001,0.006c0,0,0,0,0,0.001
			c-0.001,0.007-0.002,0.014-0.004,0.021c0,0,0,0,0,0c0,0.002-0.001,0.004-0.001,0.006c0,0,0,0.001,0,0.001
			c0,0.002,0,0.004-0.001,0.005c0,0.001,0,0.001,0,0.002c0,0.001-0.001,0.003-0.001,0.005c0,0,0,0.001,0,0.001
			c0,0.002,0,0.004-0.001,0.005c0,0,0,0.001,0,0.002c0,0.001,0,0.003-0.001,0.005c0,0,0,0.001,0,0.001
			c0,0.002-0.001,0.004-0.001,0.006c0,0,0,0.001,0,0.001c0,0.002,0,0.004-0.001,0.006c0,0,0,0,0,0.001
			c-0.001,0.007-0.002,0.014-0.003,0.021v0c0,0.002-0.001,0.004-0.001,0.006c0,0,0,0.001,0,0.001c0,0.002,0,0.004-0.001,0.005
			c0,0.001,0,0.001,0,0.002c0,0.002,0,0.003,0,0.005c0,0,0,0.001,0,0.002c0,0.001,0,0.003-0.001,0.005c0,0.001,0,0.001,0,0.002
			c0,0.001,0,0.003-0.001,0.004c0,0.001,0,0.002,0,0.002c0,0.002,0,0.003,0,0.005c0,0.001,0,0.001,0,0.002
			c0,0.002,0,0.004-0.001,0.005c0,0.001,0,0.001,0,0.002c0,0.002-0.001,0.004-0.001,0.006v0c-0.001,0.007-0.002,0.014-0.003,0.021
			c0,0,0,0.001,0,0.001c0,0.002,0,0.004,0,0.005c0,0.001,0,0.001,0,0.002c0,0.001,0,0.003,0,0.004c0,0.001,0,0.002,0,0.003
			c0,0.001,0,0.003,0,0.004c0,0.001,0,0.001,0,0.002c0,0.001,0,0.003,0,0.005c0,0,0,0.001,0,0.002c0,0.002,0,0.003,0,0.005
			c0,0.001,0,0.001,0,0.002c0,0.001,0,0.003,0,0.004c0,0.001,0,0.002,0,0.003c0,0.001,0,0.003,0,0.005c0,0,0,0.001,0,0.002
			c0,0.002,0,0.004-0.001,0.006v0c0,0.002,0,0.005-0.001,0.007v0c0,0.002,0,0.004-0.001,0.006c0,0.001,0,0.001,0,0.002
			c0,0.002,0,0.004,0,0.005c0,0,0,0.001,0,0.002c0,0.002,0,0.003,0,0.005c0,0,0,0.001,0,0.002c0,0.002,0,0.003,0,0.005
			c0,0,0,0.002,0,0.002c0,0.001,0,0.003,0,0.004c0,0.001,0,0.002,0,0.003c0,0.001,0,0.003,0,0.004c0,0.001,0,0.001,0,0.002
			c0,0.001,0,0.003,0,0.005c0,0,0,0.001,0,0.002c0,0.001,0,0.003,0,0.005c0,0,0,0.001,0,0.002c0,0.002,0,0.004-0.001,0.006
			c0,0,0,0.001,0,0.001c0,0.004-0.001,0.009-0.001,0.014c0,0,0,0.001,0,0.002c0,0.002,0,0.003-0.001,0.005c0,0.001,0,0.002,0,0.003
			c0,0.001,0,0.002,0,0.004c0,0.001,0,0.002,0,0.003c0,0.001,0,0.002,0,0.004c0,0.001,0,0.002,0,0.003c0,0.001,0,0.003,0,0.004
			c0,0.001,0,0.002,0,0.003c0,0.001,0,0.003,0,0.004c0,0.001,0,0.001,0,0.002c0,0.001,0,0.003,0,0.005c0,0,0,0.001,0,0.002
			c0,0.001,0,0.003,0,0.005c0,0,0,0.001,0,0.002c0,0.002,0,0.004,0,0.005c0,0.001,0,0.001,0,0.002c0,0.002,0,0.005,0,0.007l0,0
			c0,0.002,0,0.004,0,0.007c0,0,0,0.001,0,0.002c0,0.001,0,0.003,0,0.005c0,0,0,0.001,0,0.002c0,0.001,0,0.003,0,0.004
			c0,0.001,0,0.002,0,0.003c0,0.001,0,0.003,0,0.004c0,0.001,0,0.002,0,0.002c0,0.001,0,0.003,0,0.004c0,0.001,0,0.002,0,0.003
			c0,0.001,0,0.003,0,0.004c0,0.001,0,0.002,0,0.003c0,0.001,0,0.003,0,0.004c0,0.001,0,0.002,0,0.003c0,0.001,0,0.003,0,0.004
			c0,0,0,0.001,0,0.002c0,0.001,0,0.003,0,0.004c0,0.001,0,0.002,0,0.003c0,0.002,0,0.004,0,0.006c0,0,0,0,0,0
			c0,0.002,0,0.005,0,0.007c0,0,0,0.001,0,0.002c0,0.001,0,0.003,0,0.005c0,0,0,0.001,0,0.002c0,0.001,0,0.003,0,0.004
			c0,0.001,0,0.002,0,0.003c0,0.001,0,0.003,0,0.004c0,0.001,0,0.002,0,0.003c0,0.001,0,0.003,0,0.004s0,0.002,0,0.003
			c0,0.001,0,0.002,0,0.004c0,0.001,0,0.002,0,0.003c0,0.001,0,0.002,0,0.003c0,0.001,0,0.002,0,0.003c0,0.001,0,0.003,0,0.004
			s0,0.002,0,0.003c0,0.001,0,0.003,0,0.004c0,0.001,0,0.001,0,0.002c0,0.002,0,0.003,0,0.005c0,0.001,0,0.001,0,0.002
			c0,0.002,0,0.005,0,0.007c0,0.001,0,0.002,0,0.003s0,0.002,0,0.004c0,0.001,0,0.002,0,0.003c0,0.001,0,0.003,0,0.004
			c0,0.001,0,0.002,0,0.003c0,0.001,0,0.003,0,0.004c0,0.001,0,0.002,0,0.003c0,0.001,0,0.002,0,0.004c0,0.001,0,0.002,0,0.003
			c0,0.001,0,0.002,0,0.004c0,0.001,0,0.002,0,0.003c0,0.001,0,0.003,0,0.004c0,0.001,0,0.002,0,0.003c0,0.001,0,0.003,0,0.004
			c0,0.001,0,0.002,0,0.003c0,0.001,0,0.003,0,0.004c0,0.001,0,0.002,0,0.003c0,0.001,0,0.003,0,0.005c0,0,0,0.001,0,0.002
			c0,0.002,0,0.005,0,0.007c0,0,0,0.001,0,0.001c0,0.002,0,0.004,0,0.006c0,0.001,0,0.001,0,0.002c0,0.001,0,0.003,0,0.004
			c0,0.001,0,0.002,0,0.003c0,0.001,0,0.003,0,0.004c0,0.001,0,0.002,0,0.003c0,0.001,0,0.003,0,0.004c0,0.001,0,0.002,0,0.003
			c0,0.001,0,0.003,0,0.004c0,0.001,0,0.002,0,0.003c0,0.001,0,0.003,0,0.004c0,0.001,0,0.002,0,0.003c0,0.001,0,0.003,0,0.004
			c0,0.001,0,0.002,0,0.003s0,0.002,0,0.004c0,0.001,0,0.002,0,0.003s0,0.003,0,0.004c0,0.001,0,0.001,0,0.002
			c0,0.002,0,0.005,0,0.007l0,0v1.653h1.824v-1.653c0-0.873,0.637-1.457,1.016-1.727L0.262,49.124L0.262,49.124z M0.304,59.46H-1.52
			v5.471h1.824V59.46L0.304,59.46z M0.304,70.402H-1.52v5.471h1.824V70.402L0.304,70.402z M0.304,81.344H-1.52v5.471h1.824V81.344
			L0.304,81.344z M0.304,92.286H-1.52v5.471h1.824V92.286L0.304,92.286z M0.304,103.228H-1.52v5.471h1.824V103.228L0.304,103.228z
			 M0.304,114.17H-1.52v5.472h1.824V114.17L0.304,114.17z M0.304,125.112H-1.52v5.471h1.824V125.112L0.304,125.112z M0.304,136.054
			H-1.52v5.472h1.824V136.054L0.304,136.054z M0.304,146.996H-1.52v5.471h1.824V146.996L0.304,146.996z M0.304,157.938H-1.52v5.471
			h1.824V157.938L0.304,157.938z M0.304,168.88H-1.52v5.472h1.824V168.88L0.304,168.88z M0.304,179.822H-1.52v5.471h1.824V179.822
			L0.304,179.822z M0.326,190.471l-1.8,0.291c0.215,1.334,1.181,2.471,2.535,3.112l0,0c0.007,0.004,0.013,0.007,0.02,0.01h0
			c0.002,0.001,0.004,0.002,0.006,0.003l0,0c0.004,0.002,0.009,0.005,0.013,0.007c0,0,0,0,0.001,0
			c0.001,0.001,0.003,0.002,0.005,0.003c0,0,0.001,0,0.001,0c0.004,0.002,0.008,0.004,0.012,0.006c0,0,0.001,0,0.001,0.001
			c0.002,0.001,0.003,0.001,0.005,0.002c0,0,0,0,0.001,0.001c0.004,0.002,0.008,0.004,0.013,0.006c0,0,0.001,0,0.001,0
			c0.001,0.001,0.003,0.002,0.005,0.003c0,0,0.001,0,0.001,0c0.002,0.001,0.004,0.002,0.006,0.003h0
			c0.002,0.001,0.004,0.002,0.006,0.003c0.001,0,0.001,0.001,0.002,0.001c0.001,0.001,0.002,0.001,0.004,0.002
			c0.001,0,0.001,0.001,0.002,0.001c0.001,0.001,0.003,0.001,0.004,0.002c0,0,0.001,0,0.001,0.001c0.002,0,0.004,0.001,0.006,0.002
			c0,0.001,0.001,0.001,0.001,0.001c0.001,0.001,0.003,0.002,0.004,0.002c0.001,0.001,0.001,0.001,0.002,0.001
			c0.001,0.001,0.003,0.002,0.005,0.002c0,0.001,0,0.001,0.001,0.001c0.002,0.001,0.004,0.002,0.006,0.003c0,0,0.001,0,0.001,0
			c0.002,0.001,0.003,0.002,0.005,0.002c0,0.001,0.001,0.001,0.002,0.001c0.001,0.001,0.003,0.002,0.004,0.002
			c0,0.001,0.001,0.001,0.002,0.001c0.002,0.001,0.004,0.002,0.006,0.003c0,0,0.001,0,0.001,0.001c0.001,0,0.003,0.001,0.005,0.002
			c0,0,0.001,0,0.002,0.001c0.001,0,0.003,0.001,0.004,0.002c0.001,0,0.001,0,0.002,0c0.002,0.001,0.004,0.002,0.006,0.003
			c0.001,0,0.001,0.001,0.002,0.001c0.001,0.001,0.002,0.001,0.004,0.002c0,0,0.001,0,0.002,0.001c0.001,0,0.002,0.001,0.003,0.001
			c0.001,0.001,0.002,0.001,0.003,0.002c0.001,0,0.003,0.001,0.004,0.002c0.001,0,0.002,0.001,0.004,0.001
			c0.001,0.001,0.002,0.001,0.003,0.002c0.001,0,0.002,0.001,0.003,0.001c0.001,0.001,0.002,0.001,0.003,0.001
			c0.001,0.001,0.002,0.001,0.003,0.002c0.001,0,0.001,0,0.002,0.001c0.002,0.001,0.004,0.002,0.007,0.002
			c0.001,0.001,0.001,0.001,0.002,0.002c0.001,0,0.002,0.001,0.003,0.001s0.002,0.001,0.002,0.001
			c0.001,0.001,0.002,0.001,0.004,0.002c0,0,0.001,0,0.001,0c0.002,0.001,0.004,0.002,0.007,0.003
			c0.001,0.001,0.002,0.001,0.003,0.002c0.001,0,0.002,0.001,0.003,0.001s0.001,0.001,0.002,0.001
			c0.001,0.001,0.002,0.001,0.003,0.002c0.001,0,0.001,0,0.002,0c0.002,0.001,0.005,0.003,0.008,0.004c0,0,0.001,0,0.002,0
			c0.001,0.001,0.002,0.001,0.004,0.002c0,0,0.001,0,0.001,0.001c0.001,0,0.003,0.001,0.004,0.001c0,0.001,0,0.001,0.001,0.001
			c0.003,0.001,0.006,0.002,0.009,0.004h0c0.001,0.001,0.003,0.001,0.004,0.002c0,0,0.001,0,0.001,0
			c0.001,0.001,0.003,0.002,0.004,0.002c0,0,0.001,0.001,0.001,0.001c0.005,0.002,0.01,0.004,0.015,0.006c0,0,0,0,0.001,0
			c0.001,0.001,0.003,0.001,0.005,0.002c0,0,0,0,0,0c0.005,0.002,0.01,0.004,0.015,0.006c0,0,0.001,0,0.001,0.001
			c0.001,0,0.003,0.001,0.005,0.002c0,0,0,0,0,0c0.007,0.003,0.014,0.005,0.021,0.008l0,0c0.007,0.003,0.014,0.006,0.021,0.009l0,0
			c0.267,0.103,0.546,0.187,0.835,0.25l0.392-1.781C1.423,192.234,0.479,191.415,0.326,190.471L0.326,190.471z M13.216,192.609
			H7.745v1.823h5.471V192.609L13.216,192.609z M24.158,192.609h-5.471v1.823h5.471V192.609L24.158,192.609z M35.1,192.609h-5.471
			v1.823H35.1V192.609L35.1,192.609z M46.042,192.609h-5.471v1.823h5.471V192.609L46.042,192.609z M56.984,192.609h-5.471v1.823
			h5.471V192.609L56.984,192.609z M67.926,192.609h-5.471v1.823h5.471V192.609L67.926,192.609z M78.868,192.609h-5.471v1.823h5.471
			V192.609L78.868,192.609z M89.811,192.609H84.34v1.823h5.471V192.609L89.811,192.609z M100.753,192.609h-5.472v1.823h5.472
			V192.609L100.753,192.609z M111.694,192.609h-5.471v1.823h5.471V192.609L111.694,192.609z M122.637,192.609h-5.472v1.823h5.472
			V192.609L122.637,192.609z M132.87,192.333c-0.472,0.184-0.98,0.276-1.514,0.276h-3.249v1.823h3.249c0.003,0,0.006,0,0.009,0
			c0.001,0,0.002,0,0.003,0c0.002,0,0.004,0,0.006,0c0.001,0,0.002,0,0.003,0c0.002,0,0.004,0,0.006,0c0.001,0,0.002,0,0.004,0
			c0.001,0,0.003,0,0.005,0c0.001,0,0.002,0,0.004,0c0.001,0,0.003,0,0.005,0c0.001,0,0.002,0,0.004,0c0.001,0,0.003,0,0.004,0
			c0.002,0,0.003,0,0.005,0c0.001,0,0.003,0,0.004,0c0.002,0,0.003,0,0.004,0c0.002,0,0.004,0,0.005,0c0.002,0,0.003,0,0.005,0
			c0.001,0,0.003,0,0.004,0c0.002-0.001,0.003-0.001,0.004-0.001c0.002,0,0.004,0,0.006,0c0.001,0,0.003,0,0.004,0
			c0.003,0,0.005,0,0.008,0c0.001,0,0.002,0,0.003,0c0.002,0,0.004,0,0.006,0c0.001,0,0.002,0,0.004,0s0.003,0,0.005,0
			c0.001,0,0.002,0,0.004,0c0.001,0,0.003,0,0.005,0c0.001,0,0.002,0,0.003,0c0.002,0,0.004,0,0.006,0
			c0.001,0,0.002-0.001,0.004-0.001c0.001,0,0.003,0,0.004,0c0.002,0,0.003,0,0.005,0c0.001,0,0.003,0,0.004,0
			c0.002,0,0.003,0,0.004,0c0.002,0,0.004,0,0.005,0s0.003,0,0.004,0c0.002,0,0.004,0,0.005,0c0.002,0,0.003,0,0.004,0
			c0.002,0,0.003-0.001,0.005-0.001c0.001,0,0.003,0,0.004,0c0.003,0,0.006,0,0.009,0c0.001,0,0.002,0,0.003,0
			c0.002,0,0.004,0,0.006,0c0.001,0,0.002,0,0.003,0c0.002,0,0.004,0,0.005,0c0.002-0.001,0.003-0.001,0.004-0.001
			c0.002,0,0.003,0,0.005,0s0.003,0,0.005,0c0.001,0,0.002,0,0.004,0c0.001,0,0.003,0,0.004,0c0.002,0,0.003,0,0.005,0
			c0.001,0,0.003-0.001,0.004-0.001c0.002,0,0.003,0,0.004,0c0.002,0,0.004,0,0.005,0s0.003,0,0.004,0c0.002,0,0.003,0,0.005,0
			c0.001,0,0.003,0,0.004,0c0.002-0.001,0.003-0.001,0.004-0.001c0.002,0,0.004,0,0.005,0c0.002,0,0.003,0,0.004,0
			c0.002,0,0.003,0,0.004,0c0.003,0,0.007,0,0.01-0.001c0.001,0,0.002,0,0.003,0c0.002,0,0.004,0,0.006,0c0.001,0,0.002,0,0.003,0
			c0.002,0,0.003,0,0.005,0c0.001,0,0.003-0.001,0.004-0.001c0.002,0,0.003,0,0.005,0c0.001,0,0.003,0,0.004,0s0.003,0,0.005,0
			c0.001,0,0.002,0,0.003,0c0.002-0.001,0.004-0.001,0.005-0.001c0.002,0,0.003,0,0.004,0c0.002,0,0.003,0,0.005,0
			c0.001,0,0.003,0,0.004,0c0.002,0,0.003-0.001,0.005-0.001c0.001,0,0.002,0,0.003,0c0.002,0,0.004,0,0.006,0
			c0.001,0,0.002,0,0.003,0c0.002,0,0.003-0.001,0.005-0.001c0.001,0,0.001,0,0.002,0c0.004,0,0.008,0,0.012,0
			c0.001,0,0.002-0.001,0.003-0.001c0.002,0,0.003,0,0.005,0c0.001,0,0.003,0,0.004,0c0.002,0,0.003,0,0.005,0
			c0.001-0.001,0.002-0.001,0.004-0.001c0.001,0,0.003,0,0.005,0c0.001,0,0.002,0,0.003,0c0.002,0,0.004,0,0.005-0.001
			c0.002,0,0.003,0,0.004,0c0.002,0,0.003,0,0.005,0c0.001,0,0.003,0,0.004,0c0.001-0.001,0.003-0.001,0.005-0.001
			c0.001,0,0.002,0,0.003,0c0.002,0,0.004,0,0.006,0c0.001,0,0.002,0,0.003-0.001c0.002,0,0.003,0,0.005,0c0.001,0,0.002,0,0.003,0
			c0.002,0,0.004,0,0.006-0.001c0.001,0,0.002,0,0.003,0c0.003,0,0.006,0,0.01-0.001c0.001,0,0.002,0,0.004,0
			c0.001,0,0.003,0,0.005,0c0.001,0,0.002,0,0.003,0c0.002-0.001,0.004-0.001,0.005-0.001s0.003,0,0.004,0c0.002,0,0.003,0,0.005,0
			c0.001-0.001,0.002-0.001,0.004-0.001c0.001,0,0.003,0,0.004,0c0.002,0,0.003,0,0.004,0c0.002-0.001,0.004-0.001,0.005-0.001
			c0.002,0,0.003,0,0.004,0c0.002,0,0.003,0,0.005-0.001c0.001,0,0.002,0,0.004,0c0.001,0,0.003,0,0.004,0
			c0.002,0,0.003-0.001,0.005-0.001c0.001,0,0.003,0,0.004,0s0.002,0,0.004,0c0.001,0,0.003-0.001,0.005-0.001h0.001
			c0.008-0.001,0.014-0.001,0.021-0.002c0,0,0.001,0,0.002,0c0.002,0,0.004,0,0.006-0.001c0.001,0,0.002,0,0.003,0
			c0.002,0,0.004,0,0.005,0s0.002-0.001,0.003-0.001c0.002,0,0.004,0,0.006,0c0.001,0,0.002,0,0.003,0
			c0.002-0.001,0.004-0.001,0.005-0.001s0.002,0,0.003,0c0.002,0,0.004-0.001,0.006-0.001c0.001,0,0.002,0,0.003,0
			c0.002,0,0.004,0,0.006-0.001c0,0,0.001,0,0.002,0c0.002,0,0.004,0,0.006,0c0.001-0.001,0.002-0.001,0.003-0.001
			c0.002,0,0.004,0,0.006,0l0,0c0.007-0.001,0.015-0.002,0.022-0.003c0,0,0.001,0,0.002,0s0.004,0,0.006-0.001c0,0,0.001,0,0.002,0
			c0.002,0,0.004,0,0.006,0c0.001-0.001,0.002-0.001,0.002-0.001c0.002,0,0.005,0,0.006,0s0.002-0.001,0.003-0.001
			c0.002,0,0.004,0,0.006,0c0.001,0,0.002,0,0.003-0.001c0.002,0,0.003,0,0.005,0c0.001,0,0.002,0,0.003-0.001
			c0.002,0,0.004,0,0.006,0c0.001,0,0.001,0,0.002,0c0.002-0.001,0.004-0.001,0.006-0.001c0.001,0,0.002,0,0.002,0
			c0.003-0.001,0.005-0.001,0.007-0.001l0,0c0.008-0.001,0.016-0.002,0.022-0.003c0.001,0,0.001,0,0.001,0
			c0.002,0,0.004,0,0.006-0.001c0.001,0,0.002,0,0.003,0c0.002,0,0.004,0,0.006-0.001c0.001,0,0.002,0,0.002,0
			c0.002,0,0.004-0.001,0.006-0.001c0.001,0,0.002,0,0.003,0c0.002,0,0.003-0.001,0.005-0.001c0.001,0,0.002,0,0.004,0
			c0.001,0,0.003-0.001,0.005-0.001c0.001,0,0.002,0,0.003,0c0.002,0,0.004-0.001,0.005-0.001s0.002,0,0.003,0
			c0.002-0.001,0.004-0.001,0.006-0.001c0.001,0,0.002,0,0.002,0c0.002-0.001,0.004-0.001,0.006-0.001c0.001,0,0.001,0,0.002,0
			c0.01-0.002,0.02-0.003,0.029-0.004h0.001c0.002-0.001,0.004-0.001,0.006-0.001c0.001,0,0.002-0.001,0.003-0.001
			c0.002,0,0.004,0,0.006-0.001c0.001,0,0.001,0,0.002,0c0.002,0,0.004,0,0.006-0.001c0.001,0,0.002,0,0.002,0
			c0.002,0,0.004-0.001,0.006-0.001c0.001,0,0.002,0,0.003,0c0.002,0,0.004-0.001,0.006-0.001c0.001,0,0.001,0,0.002,0
			c0.002-0.001,0.004-0.001,0.006-0.001c0.001,0,0.001,0,0.002,0c0.002-0.001,0.004-0.001,0.007-0.001l0,0
			c0.011-0.002,0.021-0.004,0.03-0.005c0.001,0,0.001,0,0.001,0c0.002-0.001,0.005-0.001,0.007-0.001c0,0,0.001,0,0.002,0
			c0.002-0.001,0.004-0.001,0.006-0.001c0-0.001,0.001-0.001,0.002-0.001c0.002,0,0.004,0,0.006-0.001c0.001,0,0.001,0,0.002,0
			c0.002,0,0.004-0.001,0.006-0.001c0.001,0,0.002,0,0.002,0c0.003-0.001,0.004-0.001,0.007-0.001c0,0,0.001,0,0.002-0.001
			c0.002,0,0.004,0,0.006-0.001c0,0,0.001,0,0.002,0c0.002,0,0.004-0.001,0.006-0.001h0.001c0.01-0.002,0.021-0.003,0.03-0.005l0,0
			c0.003-0.001,0.005-0.001,0.007-0.001c0.001,0,0.001,0,0.002-0.001c0.002,0,0.004,0,0.006-0.001c0.001,0,0.002,0,0.002,0
			c0.002,0,0.004-0.001,0.006-0.001c0.001,0,0.002,0,0.003,0c0.002-0.001,0.003-0.001,0.005-0.001c0.001,0,0.002-0.001,0.003-0.001
			c0.002,0,0.004,0,0.005-0.001c0.001,0,0.002,0,0.003,0c0.002-0.001,0.004-0.001,0.006-0.001c0.001,0,0.001,0,0.002-0.001
			c0.002,0,0.004,0,0.006-0.001c0.001,0,0.001,0,0.002,0c0.01-0.002,0.02-0.003,0.029-0.005l0,0
			c0.003-0.001,0.005-0.001,0.007-0.002c0.001,0,0.001,0,0.002,0c0.002,0,0.004-0.001,0.006-0.001c0.001,0,0.001,0,0.002,0
			c0.002-0.001,0.004-0.001,0.006-0.001c0.001-0.001,0.001-0.001,0.002-0.001c0.002,0,0.004-0.001,0.006-0.001
			c0.001,0,0.002,0,0.002,0c0.002-0.001,0.004-0.001,0.007-0.002h0.001c0.002,0,0.004-0.001,0.007-0.001h0.001
			c0.003-0.001,0.005-0.001,0.007-0.002c0,0,0,0,0.001,0c0.012-0.002,0.024-0.004,0.036-0.007c0.001,0,0.001,0,0.002,0
			c0.002-0.001,0.004-0.001,0.006-0.002c0.001,0,0.002,0,0.002,0c0.002,0,0.004-0.001,0.006-0.001c0.001,0,0.002,0,0.002-0.001
			c0.002,0,0.004,0,0.006-0.001c0.001,0,0.002,0,0.003,0c0.001-0.001,0.003-0.001,0.005-0.001c0.001-0.001,0.002-0.001,0.003-0.001
			c0.002,0,0.004-0.001,0.005-0.001s0.002,0,0.003,0c0.002-0.001,0.004-0.001,0.006-0.002c0,0,0.001,0,0.002,0
			c0.002-0.001,0.004-0.001,0.006-0.001l0.001-0.001c0.01-0.002,0.019-0.004,0.028-0.006c0,0,0.001,0,0.002,0
			c0.002,0,0.003-0.001,0.005-0.001c0.001,0,0.002-0.001,0.003-0.001c0.002,0,0.003,0,0.005-0.001c0.001,0,0.002,0,0.003-0.001
			c0.002,0,0.004,0,0.005-0.001c0.001,0,0.002,0,0.003,0c0.002-0.001,0.004-0.001,0.006-0.001c0.001-0.001,0.002-0.001,0.003-0.001
			s0.003-0.001,0.005-0.001c0.001,0,0.002-0.001,0.003-0.001c0.002,0,0.003-0.001,0.005-0.001c0.001,0,0.002,0,0.003-0.001
			c0.001,0,0.003,0,0.005-0.001c0.001,0,0.001,0,0.002,0c0.009-0.002,0.019-0.004,0.027-0.006c0.001-0.001,0.001-0.001,0.002-0.001
			c0.002,0,0.004-0.001,0.006-0.001c0.001,0,0.001-0.001,0.002-0.001c0.002,0,0.004-0.001,0.005-0.001s0.002,0,0.003-0.001
			c0.002,0,0.004,0,0.005-0.001c0.001,0,0.003,0,0.004-0.001c0.001,0,0.003,0,0.004-0.001c0.002,0,0.003,0,0.004,0
			c0.001-0.001,0.003-0.001,0.005-0.002c0.001,0,0.002,0,0.003,0c0.001-0.001,0.003-0.001,0.005-0.001
			c0.001-0.001,0.002-0.001,0.003-0.001c0.002-0.001,0.003-0.001,0.005-0.001c0.001-0.001,0.002-0.001,0.003-0.001
			c0.002-0.001,0.003-0.001,0.005-0.001c0.001-0.001,0.003-0.001,0.004-0.001c0.002-0.001,0.004-0.001,0.007-0.002
			c0.001,0,0.003-0.001,0.005-0.001c0.001,0,0.002-0.001,0.004-0.001c0.001,0,0.003-0.001,0.004-0.001s0.003-0.001,0.004-0.001
			s0.003-0.001,0.004-0.001s0.003-0.001,0.004-0.001s0.003-0.001,0.004-0.001c0.002,0,0.003-0.001,0.004-0.001
			s0.003-0.001,0.005-0.001c0.001,0,0.002-0.001,0.003-0.001c0.002,0,0.003-0.001,0.005-0.001c0.001,0,0.002-0.001,0.003-0.001
			c0.002,0,0.003-0.001,0.005-0.001c0.001,0,0.002-0.001,0.003-0.001c0.002,0,0.004-0.001,0.006-0.001
			c0.001-0.001,0.001-0.001,0.002-0.001c0.002,0,0.004-0.001,0.006-0.001c0.001-0.001,0.002-0.001,0.003-0.001
			c0.005-0.001,0.011-0.003,0.016-0.004c0,0,0.001,0,0.001-0.001c0.003,0,0.005-0.001,0.007-0.001
			c0.001-0.001,0.002-0.001,0.002-0.001c0.002,0,0.004-0.001,0.006-0.001c0.001-0.001,0.002-0.001,0.003-0.001
			c0.002-0.001,0.004-0.001,0.005-0.002c0.002,0,0.002,0,0.003,0c0.002-0.001,0.004-0.001,0.006-0.002h0.002
			c0.002-0.001,0.004-0.001,0.006-0.002c0.001,0,0.002,0,0.003-0.001c0.001,0,0.003-0.001,0.005-0.001c0.001,0,0.002,0,0.003-0.001
			c0.002,0,0.004-0.001,0.006-0.001c0,0,0.001-0.001,0.002-0.001c0.002,0,0.005-0.001,0.007-0.002h0.001
			c0.008-0.002,0.016-0.004,0.024-0.007c0,0,0,0,0.001,0c0.002-0.001,0.005-0.001,0.007-0.002h0.001
			c0.003-0.001,0.005-0.002,0.007-0.002c0.001,0,0.001-0.001,0.002-0.001c0.002,0,0.004-0.001,0.006-0.001
			c0.001-0.001,0.001-0.001,0.002-0.001c0.002-0.001,0.004-0.001,0.007-0.002h0.001c0.002-0.001,0.005-0.002,0.007-0.002h0.001
			c0.003-0.001,0.005-0.002,0.008-0.003l0,0c0.003-0.001,0.006-0.001,0.008-0.002c0,0,0,0,0.001,0
			c0.011-0.003,0.021-0.006,0.032-0.01l0,0c0.003,0,0.005-0.001,0.008-0.002l0,0c0.003-0.001,0.006-0.002,0.008-0.002
			c0.001-0.001,0.001-0.001,0.001-0.001c0.002,0,0.005-0.001,0.008-0.002l0,0c0.003-0.001,0.005-0.002,0.008-0.002l0,0
			c0.151-0.045,0.3-0.096,0.443-0.151L132.87,192.333L132.87,192.333z M136.48,184.401h-1.823v5.471h1.823V184.401L136.48,184.401z
			 M136.48,173.459h-1.823v5.471h1.823V173.459L136.48,173.459z M136.48,162.517h-1.823v5.472h1.823V162.517L136.48,162.517z
			 M136.48,151.575h-1.823v5.471h1.823V151.575L136.48,151.575z M136.48,140.633h-1.823v5.471h1.823V140.633L136.48,140.633z
			 M136.48,129.69h-1.823v5.472h1.823V129.69L136.48,129.69z M136.48,118.749h-1.823v5.471h1.823V118.749L136.48,118.749z
			 M136.48,107.807h-1.823v5.471h1.823V107.807L136.48,107.807z M136.48,96.865h-1.823v5.471h1.823V96.865L136.48,96.865z
			 M136.48,85.923h-1.823v5.471h1.823V85.923L136.48,85.923z M136.48,74.98h-1.823v5.471h1.823V74.98L136.48,74.98z M136.48,64.039
			h-1.823v5.471h1.823V64.039L136.48,64.039z M136.48,53.097h-1.823v5.471h1.823V53.097L136.48,53.097z M131.356,48.099v1.824
			c0.634,0,1.25,0.136,1.783,0.392l0.791-1.643c0,0-0.001,0-0.002-0.001s-0.003-0.001-0.005-0.002c-0.001,0-0.002-0.001-0.003-0.001
			c-0.002-0.001-0.005-0.003-0.008-0.004c0,0-0.001,0-0.001-0.001c-0.003-0.001-0.005-0.002-0.007-0.003
			c-0.001,0-0.002-0.001-0.002-0.001c-0.003-0.001-0.005-0.002-0.007-0.003c0,0-0.001-0.001-0.002-0.001
			c-0.003-0.001-0.005-0.003-0.008-0.004c0,0,0,0-0.001,0c-0.002-0.001-0.005-0.003-0.008-0.004c0,0-0.001,0-0.001-0.001
			c-0.003-0.001-0.005-0.002-0.008-0.003c0,0-0.001,0-0.001,0c-0.006-0.002-0.012-0.005-0.018-0.008v0
			c-0.003-0.001-0.006-0.002-0.009-0.004l0,0c-0.006-0.003-0.012-0.005-0.018-0.008c-0.001,0-0.001,0-0.001,0
			c-0.012-0.005-0.023-0.011-0.035-0.016h-0.001c-0.524-0.234-1.104-0.395-1.718-0.466l0,0c-0.011-0.001-0.021-0.002-0.031-0.003
			h-0.001c-0.01-0.001-0.021-0.002-0.031-0.003l0,0c-0.011-0.001-0.021-0.002-0.032-0.003l0,0c-0.004,0-0.007,0-0.011-0.001l0,0
			c-0.007,0-0.014-0.001-0.021-0.002c-0.001,0-0.001,0-0.001,0c-0.003,0-0.007,0-0.01-0.001c0,0,0,0-0.001,0
			c-0.007,0-0.014-0.001-0.021-0.002h-0.001c-0.003,0-0.006,0-0.01-0.001c0,0,0,0-0.001,0c-0.007,0-0.014-0.001-0.021-0.002h-0.001
			c-0.003,0-0.006,0-0.01,0c0,0,0,0-0.001,0c-0.007,0-0.014-0.001-0.021-0.001c0,0,0,0-0.001,0c-0.003,0-0.006,0-0.009-0.001
			c-0.001,0-0.001,0-0.002,0c-0.007,0-0.014-0.001-0.021-0.001h-0.001c-0.003,0-0.006,0-0.009,0c-0.001,0-0.001,0-0.002,0
			c-0.007,0-0.014-0.001-0.021-0.001h-0.001c-0.003,0-0.006,0-0.009,0c-0.001,0-0.001,0-0.002,0c-0.007,0-0.014-0.001-0.021-0.001
			h-0.001c-0.003,0-0.006,0-0.009,0c-0.001,0-0.002,0-0.002,0c-0.004,0-0.007,0-0.01-0.001c0,0,0,0-0.001,0c-0.003,0-0.007,0-0.01,0
			c-0.001,0-0.001,0-0.002,0c-0.002,0-0.005,0-0.008,0c-0.001,0-0.002,0-0.003,0c-0.003,0-0.006,0-0.009,0c0,0,0,0-0.001,0
			c-0.003,0-0.007,0-0.01-0.001c-0.001,0-0.001,0-0.002,0c-0.003,0-0.006,0-0.009,0c0,0-0.001,0-0.002,0c-0.003,0-0.006,0-0.009,0
			h-0.001c-0.004,0-0.007,0-0.011,0h-0.001c-0.003,0-0.006,0-0.009,0c-0.001,0-0.002,0-0.002,0c-0.003,0-0.006,0-0.009,0
			c-0.001,0-0.001,0-0.002,0c-0.003,0-0.006,0-0.01,0c0,0-0.001,0-0.002,0c-0.002,0-0.005,0-0.008,0c-0.001,0-0.002,0-0.003,0
			c-0.003,0-0.006,0-0.008,0c-0.001,0-0.002,0-0.002,0c-0.004,0-0.007,0-0.01,0c-0.001,0-0.001,0-0.002,0c-0.003,0-0.006,0-0.009,0
			h-0.002c-0.003,0-0.006,0-0.009,0c0,0-0.001,0-0.002,0c-0.003,0-0.006,0-0.01,0h-0.001c-0.003,0-0.006,0-0.009,0
			c-0.001,0-0.002,0-0.003,0c-0.002,0-0.005,0-0.007,0c-0.001,0-0.003,0-0.003,0c-0.004,0-0.007,0-0.01,0c-0.001,0-0.001,0-0.002,0
			c-0.003,0-0.006,0-0.009,0c-0.001,0-0.001,0-0.003,0s-0.005,0-0.007,0c-0.001,0-0.002,0-0.003,0c-0.003,0-0.007,0-0.01,0h-0.001
			c-0.003,0-0.006,0-0.009,0c-0.001,0-0.002,0-0.003,0c-0.003,0-0.005,0-0.008,0c-0.001,0-0.002,0-0.003,0c-0.003,0-0.006,0-0.01,0
			h-0.001c-0.003,0-0.006,0-0.009,0c-0.001,0-0.002,0-0.003,0c-0.003,0-0.005,0-0.007,0c-0.001,0-0.002,0-0.003,0
			c-0.004,0-0.007,0-0.01,0c-0.001,0-0.001,0-0.001,0c-0.003,0-0.006,0-0.01,0c0,0-0.002,0-0.003,0c-0.002,0-0.004,0-0.007,0
			c-0.001,0-0.002,0-0.003,0c-0.003,0-0.007,0-0.01,0h-0.001c-0.003,0-0.006,0-0.009,0c-0.001,0-0.002,0-0.003,0
			c-0.003,0-0.005,0-0.008,0c-0.001,0-0.002,0-0.003,0C131.363,48.099,131.359,48.099,131.356,48.099L131.356,48.099L131.356,48.099
			z"/>
	</g>
	<g id="Type_Path">
		<line fill="none" x1="21.166" y1="145.499" x2="134.166" y2="94.833"/>
		<g opacity="0.4">
			
				<text transform="matrix(0.8013 -0.3593 0.4091 0.9125 23.0986 144.6309)" fill="#C4DEF4" font-family="'HelveticaNeue'" font-size="26.54">C</text>
			
				<text transform="matrix(0.8013 -0.3593 0.4091 0.9125 38.4619 137.7441)" fill="#C4DEF4" font-family="'HelveticaNeue'" font-size="26.54">O</text>
			
				<text transform="matrix(0.8013 -0.3593 0.4091 0.9125 54.6245 130.498)" fill="#C4DEF4" font-family="'HelveticaNeue'" font-size="26.54">N</text>
			
				<text transform="matrix(0.8013 -0.3593 0.4091 0.9125 69.9907 123.6074)" fill="#C4DEF4" font-family="'HelveticaNeue'" font-size="26.54">T</text>
			
				<text transform="matrix(0.8013 -0.3593 0.4091 0.9125 82.1963 118.1348)" fill="#C4DEF4" font-family="'HelveticaNeue'" font-size="26.54">E</text>
			
				<text transform="matrix(0.8013 -0.3593 0.4091 0.9125 95.1992 112.3047)" fill="#C4DEF4" font-family="'HelveticaNeue'" font-size="26.54">N</text>
			
				<text transform="matrix(0.8013 -0.3593 0.4091 0.9125 110.5605 105.416)" fill="#C4DEF4" font-family="'HelveticaNeue'" font-size="26.54">T</text>
		</g>
	</g>
</g>
<path id="Title" fill="#F6F6F7" d="M-7.5,8.5h150.05v30H-7.5V8.5z"/>
<rect id="Divide" x="-7.5" y="38.38" fill="#D1D1D3" width="150" height="1"/>
<text transform="matrix(1 0 0 1 53.084 28.5)" fill="#333333" font-family="'HelveticaNeue'" font-size="14">Title</text>
</svg>
