<?xml version="1.0" encoding="utf-8"?>
<!DOCTYPE svg PUBLIC "-//W3C//DTD SVG 1.1//EN" "http://www.w3.org/Graphics/SVG/1.1/DTD/svg11.dtd">
<svg version="1.1" id="Basic_Layout" xmlns="http://www.w3.org/2000/svg" xmlns:xlink="http://www.w3.org/1999/xlink" x="0px"
	 y="0px" width="150px" height="224px" viewBox="-7.5 8.5 150 224" enable-background="new -7.5 8.5 150 224" xml:space="preserve">
<rect id="Background_Panel" x="-7.5" y="8.5" fill="#FFFFFF" width="150" height="224"/>
<g id="No_Content_Water_Mrk">
	<g opacity="0.4">
		<path fill="#C4DEF4" d="M131.356,48.099h-6v2h6V48.099L131.356,48.099L131.356,48.099z M119.356,48.099h-6v2h6V48.099
			L119.356,48.099z M107.356,48.099h-6v2h6V48.099L107.356,48.099z M95.356,48.099h-6v2h6V48.099L95.356,48.099z M83.356,48.099h-6
			v2h6V48.099L83.356,48.099z M71.356,48.099h-6v2h6V48.099L71.356,48.099z M59.356,48.099h-6v2h6V48.099L59.356,48.099z
			 M47.356,48.099h-6v2h6V48.099L47.356,48.099z M35.356,48.099h-6v2h6V48.099L35.356,48.099z M23.356,48.099h-6v2h6V48.099
			L23.356,48.099z M11.356,48.099h-6v2h6V48.099L11.356,48.099z M-0.176,49.755c-0.392,0.425-0.712,0.917-0.941,1.457c0,0,0,0,0,0
			c-0.001,0.002-0.001,0.004-0.002,0.006c0,0,0,0,0,0c-0.001,0.002-0.002,0.004-0.002,0.006c0,0,0,0.001,0,0.001
			c-0.001,0.002-0.002,0.004-0.003,0.006c0,0,0,0,0,0.001c-0.001,0.002-0.002,0.004-0.003,0.006v0
			c-0.001,0.002-0.002,0.004-0.003,0.007c0,0,0,0,0,0c-0.001,0.002-0.002,0.004-0.003,0.006c0,0,0,0,0,0
			c-0.01,0.024-0.02,0.048-0.029,0.072c0,0,0,0,0,0.001c0,0.002-0.001,0.004-0.002,0.006v0c-0.001,0.002-0.002,0.004-0.002,0.006
			c0,0,0,0.001,0,0.001c-0.001,0.002-0.002,0.004-0.002,0.006c0,0,0,0,0,0.001c-0.001,0.002-0.001,0.004-0.002,0.006
			c0,0,0,0.001,0,0.001c0,0.002-0.001,0.004-0.002,0.006c0,0,0,0.001,0,0.001c0,0.002-0.001,0.004-0.002,0.006c0,0,0,0.001,0,0.001
			c-0.001,0.002-0.002,0.004-0.002,0.006c0,0,0,0.001,0,0.001c-0.001,0.002-0.001,0.004-0.002,0.006c0,0,0,0,0,0.001
			c0,0.002-0.001,0.004-0.002,0.007l0,0c-0.005,0.012-0.009,0.024-0.014,0.037l0,0c-0.001,0.002-0.002,0.005-0.003,0.007
			c0,0,0,0,0,0.001c-0.001,0.002-0.001,0.004-0.002,0.006c0,0,0,0.001,0,0.002c-0.001,0.001-0.001,0.003-0.002,0.005
			c0,0,0,0.001-0.001,0.002c0,0.001-0.001,0.003-0.002,0.005c0,0.001,0,0.001,0,0.002c0,0.001-0.001,0.003-0.002,0.005
			c0,0,0,0.001-0.001,0.002c0,0.002-0.001,0.003-0.001,0.005c0,0,0,0.001-0.001,0.002c0,0.002-0.001,0.003-0.002,0.005
			c0,0,0,0.001,0,0.001c-0.001,0.002-0.001,0.004-0.002,0.006c0,0,0,0.001,0,0.001c-0.001,0.002-0.001,0.004-0.002,0.006
			c0,0,0,0.001,0,0.001c0,0.002-0.001,0.004-0.002,0.005c0,0.001,0,0.001,0,0.002c-0.001,0.002-0.001,0.004-0.002,0.006
			c0,0,0,0,0,0.001c-0.004,0.012-0.009,0.024-0.013,0.037c0,0,0,0,0,0c0,0.002-0.001,0.004-0.002,0.007c0,0,0,0,0,0.001
			C-1.25,51.556-1.25,51.558-1.25,51.56c0,0,0,0.001-0.001,0.002c0,0.001-0.001,0.003-0.001,0.005c0,0,0,0.001-0.001,0.002
			c0,0.001-0.001,0.003-0.001,0.005c0,0,0,0.001-0.001,0.002c0,0.002-0.001,0.003-0.001,0.005c0,0,0,0.001-0.001,0.002
			c0,0.002-0.001,0.003-0.001,0.005c0,0,0,0.001-0.001,0.002c0,0.002-0.001,0.003-0.001,0.005c0,0,0,0.001-0.001,0.002
			c0,0.002-0.001,0.003-0.001,0.005c0,0.001,0,0.001-0.001,0.002c0,0.002-0.001,0.003-0.001,0.005c0,0.001,0,0.002-0.001,0.002
			c0,0.001-0.001,0.003-0.001,0.005c0,0.001,0,0.001-0.001,0.002c0,0.002-0.001,0.004-0.001,0.005c0,0,0,0.001,0,0.002
			c-0.001,0.002-0.001,0.004-0.002,0.006c0,0,0,0.001,0,0.001c-0.003,0.01-0.006,0.02-0.009,0.029c0,0,0,0.001,0,0.001
			c-0.001,0.002-0.001,0.004-0.002,0.006c0,0,0,0.001,0,0.001c0,0.002-0.001,0.004-0.002,0.006c0,0,0,0.001,0,0.002
			c0,0.001-0.001,0.003-0.002,0.005c0,0,0,0.001,0,0.002c0,0.001-0.001,0.003-0.001,0.005c0,0,0,0.001-0.001,0.002
			c0,0.002-0.001,0.003-0.001,0.005c0,0,0,0.001,0,0.002c0,0.001-0.001,0.003-0.001,0.005c0,0.001-0.001,0.001-0.001,0.002
			c0,0.001-0.001,0.003-0.001,0.005c0,0.001,0,0.001-0.001,0.002c0,0.001-0.001,0.003-0.001,0.005c0,0.001,0,0.002,0,0.002
			c0,0.002-0.001,0.003-0.001,0.005c0,0.001,0,0.001-0.001,0.002c0,0.001-0.001,0.003-0.001,0.005c0,0.001,0,0.002,0,0.002
			c0,0.002-0.001,0.003-0.001,0.005c0,0,0,0.001-0.001,0.002c0,0.002-0.001,0.004-0.001,0.006c0,0,0,0.001,0,0.001
			c-0.003,0.01-0.006,0.02-0.009,0.03c0,0,0,0.001,0,0.001c0,0.002-0.001,0.004-0.001,0.006c0,0.001,0,0.001-0.001,0.002
			c0,0.001-0.001,0.003-0.001,0.005c0,0.001-0.001,0.002-0.001,0.003c0,0.001-0.001,0.003-0.001,0.004c0,0.001,0,0.002,0,0.003
			c0,0.001-0.001,0.003-0.001,0.004c0,0.001,0,0.002-0.001,0.003c0,0.001-0.001,0.003-0.001,0.005c0,0.001-0.001,0.001-0.001,0.002
			c0,0.001-0.001,0.003-0.001,0.004c0,0.001,0,0.002,0,0.003c0,0.001-0.001,0.003-0.001,0.004c0,0.001,0,0.002-0.001,0.003
			c0,0.001,0,0.003-0.001,0.004c0,0.001,0,0.002-0.001,0.003c0,0.001,0,0.003-0.001,0.004c0,0.001,0,0.002-0.001,0.003
			c0,0.001-0.001,0.003-0.001,0.004c0,0.001,0,0.002-0.001,0.003s-0.001,0.003-0.001,0.004c0,0.001,0,0.002,0,0.002
			c0,0.002-0.001,0.004-0.001,0.005c0,0.001,0,0.001,0,0.002c0,0.002-0.001,0.004-0.001,0.006c0,0,0,0.001,0,0.001
			c0,0.002-0.001,0.004-0.002,0.006c0,0,0,0,0,0.001c-0.001,0.005-0.003,0.01-0.004,0.015c0,0,0,0.001-0.001,0.002
			c0,0.002,0,0.003-0.001,0.005c0,0.001,0,0.002-0.001,0.003c0,0.001-0.001,0.003-0.001,0.004c0,0.001,0,0.002-0.001,0.003
			c0,0.001-0.001,0.003-0.001,0.004c0,0.001,0,0.002-0.001,0.003c0,0.002,0,0.003-0.001,0.005c0,0.001,0,0.002-0.001,0.003
			c0,0.001,0,0.003-0.001,0.004c0,0.001,0,0.002-0.001,0.003c0,0.001,0,0.003-0.001,0.004c0,0.001,0,0.002-0.001,0.003
			c0,0.001,0,0.003-0.001,0.004c0,0.001,0,0.001,0,0.002c0,0.002-0.001,0.003-0.001,0.005c0,0.001,0,0.002,0,0.003
			c0,0.001-0.001,0.003-0.001,0.004c0,0.001,0,0.002-0.001,0.003c0,0.002,0,0.003-0.001,0.005c0,0.001,0,0.002-0.001,0.003
			c0,0.001,0,0.003-0.001,0.005c0,0,0,0.001,0,0.002c0,0.002-0.001,0.003-0.001,0.005c0,0,0,0.001,0,0.002
			c0,0.002-0.001,0.004-0.001,0.006c0,0,0,0.001,0,0.001c0,0.002-0.001,0.004-0.001,0.006c0,0,0,0.001-0.001,0.002
			c-0.001,0.005-0.002,0.01-0.003,0.015c0,0,0,0.001,0,0.002c0,0.001-0.001,0.003-0.001,0.005c0,0.001,0,0.002-0.001,0.003
			c0,0.001,0,0.003-0.001,0.004c0,0.001,0,0.002,0,0.003c0,0.001-0.001,0.003-0.001,0.004c0,0.001,0,0.002,0,0.003
			c0,0.001,0,0.003-0.001,0.004c0,0.001,0,0.002-0.001,0.003c0,0.001,0,0.003-0.001,0.004c0,0.001,0,0.002,0,0.003
			c0,0.001,0,0.003-0.001,0.004c0,0.001,0,0.002-0.001,0.003c0,0.001,0,0.003-0.001,0.004c0,0.001,0,0.002,0,0.003
			c0,0.001,0,0.003-0.001,0.004c0,0.001,0,0.002,0,0.003c0,0.001-0.001,0.003-0.001,0.005c0,0.001,0,0.002-0.001,0.003
			c0,0.001,0,0.003-0.001,0.004c0,0.001,0,0.002,0,0.003c0,0.002-0.001,0.003-0.001,0.005c0,0.001,0,0.002-0.001,0.003
			c0,0.001,0,0.003-0.001,0.004c0,0.001,0,0.002,0,0.003c0,0.001,0,0.003-0.001,0.004c0,0.001,0,0.002,0,0.003
			c0,0.001-0.001,0.002-0.001,0.004c0,0.001,0,0.002-0.001,0.004c0,0.001,0,0.003-0.001,0.004c0,0.001,0,0.002,0,0.003
			c0,0.001,0,0.002,0,0.003c-0.001,0.003-0.001,0.006-0.002,0.009c0,0.001,0,0.002,0,0.002c0,0.001,0,0.003-0.001,0.004
			c0,0.001,0,0.002-0.001,0.003c0,0.001,0,0.002,0,0.004c0,0.001,0,0.002-0.001,0.003c0,0.001,0,0.002,0,0.004
			c0,0.001,0,0.002-0.001,0.004c0,0.001,0,0.002,0,0.004c0,0.001,0,0.002-0.001,0.003c0,0.001,0,0.002,0,0.004
			c0,0.001-0.001,0.002-0.001,0.004c0,0.001,0,0.002-0.001,0.004c0,0.001,0,0.002,0,0.004c0,0.001,0,0.002-0.001,0.003
			c0,0.001,0,0.003,0,0.004c0,0.001,0,0.002-0.001,0.003c0,0.001,0,0.003,0,0.004c0,0.001,0,0.002-0.001,0.003
			c0,0.001,0,0.003,0,0.004c0,0.001,0,0.002-0.001,0.003c0,0.001,0,0.003,0,0.004c0,0.001,0,0.002-0.001,0.003
			c0,0.001,0,0.003,0,0.004c0,0.001,0,0.002-0.001,0.003c0,0.001,0,0.003,0,0.004c0,0.001,0,0.002-0.001,0.003
			c0,0.001,0,0.003,0,0.004c0,0.001,0,0.002-0.001,0.003c0,0.001,0,0.003,0,0.005c0,0.001,0,0.002,0,0.002
			c0,0.003-0.001,0.005-0.001,0.008c0,0,0,0.001,0,0.001c0,0.002,0,0.004-0.001,0.006c0,0,0,0.001,0,0.002
			c0,0.002,0,0.003-0.001,0.005c0,0.001,0,0.002,0,0.003c0,0.001,0,0.003-0.001,0.004c0,0.001,0,0.002,0,0.003
			c0,0.001,0,0.003,0,0.005c0,0.001,0,0.002-0.001,0.003c0,0.001,0,0.003,0,0.005c0,0.001,0,0.002,0,0.003
			c0,0.001,0,0.003-0.001,0.004c0,0.001,0,0.002,0,0.003c0,0.001,0,0.003-0.001,0.004c0,0.001,0,0.002,0,0.003
			c0,0.001,0,0.003,0,0.004c0,0.001,0,0.002,0,0.003c0,0.001-0.001,0.003-0.001,0.004c0,0.001,0,0.002,0,0.003
			c0,0.001,0,0.003-0.001,0.004c0,0.001,0,0.002,0,0.003c0,0.001,0,0.003,0,0.004c0,0.001,0,0.002,0,0.003
			c0,0.001,0,0.003-0.001,0.005c0,0.001,0,0.002,0,0.003c0,0.001,0,0.003-0.001,0.005c0,0.001,0,0.002,0,0.003
			c0,0.001,0,0.003,0,0.005c0,0.001,0,0.002,0,0.002c0,0.002,0,0.004-0.001,0.006c0,0,0,0.001,0,0.002c0,0.002,0,0.005-0.001,0.007
			c0,0,0,0,0,0c0,0.002-0.001,0.005-0.001,0.008c0,0.001,0,0.003-0.001,0.004c0,0.001,0,0.002,0,0.003c0,0.001,0,0.003,0,0.004
			c0,0.001,0,0.002,0,0.003c0,0.001,0,0.002,0,0.003c0,0.001,0,0.003-0.001,0.004c0,0.001,0,0.002,0,0.003c0,0.001,0,0.003,0,0.004
			c0,0.001,0,0.002,0,0.003c0,0.001,0,0.003,0,0.004c0,0.001,0,0.002-0.001,0.004c0,0.001,0,0.003,0,0.004c0,0.001,0,0.002,0,0.003
			c0,0.001,0,0.003,0,0.004s0,0.002,0,0.003c0,0.001,0,0.003,0,0.004c0,0.001,0,0.002,0,0.003c0,0.001,0,0.003-0.001,0.004
			c0,0.001,0,0.002,0,0.003c0,0.001,0,0.003,0,0.004c0,0.001,0,0.002,0,0.003c0,0.001,0,0.003,0,0.004c0,0.001,0,0.002,0,0.003
			c0,0.001,0,0.003,0,0.004c0,0.001,0,0.002,0,0.004c0,0.001,0,0.003,0,0.004c0,0.001,0,0.002,0,0.004c0,0.001,0,0.003-0.001,0.004
			c0,0.001,0,0.002,0,0.003c0,0.002,0,0.004-0.001,0.006c0,0.001,0,0.001,0,0.002c0,0.003-0.001,0.005-0.001,0.008
			c0,0.001,0,0.002,0,0.002c0,0.002,0,0.003-0.001,0.005c0,0.001,0,0.002,0,0.003c0,0.001,0,0.003-0.001,0.005
			c0,0.001,0,0.002,0,0.003c0,0.001,0,0.003-0.001,0.005c0,0.001,0,0.002,0,0.003c0,0.002,0,0.003-0.001,0.005
			c0,0.001,0,0.002,0,0.003c0,0.001,0,0.003-0.001,0.005c0,0.001,0,0.002,0,0.003c0,0.001,0,0.003-0.001,0.005
			c0,0.001,0,0.002,0,0.003c0,0.001,0,0.003,0,0.005c0,0.001,0,0.002,0,0.003c0,0.002,0,0.003,0,0.005c0,0.001,0,0.002,0,0.003
			c0,0.001,0,0.003,0,0.004s0,0.002,0,0.003c0,0.001,0,0.003,0,0.005c0,0.001,0,0.002,0,0.003c0,0.001,0,0.003,0,0.005
			c0,0.001,0,0.002,0,0.003c0,0.001,0,0.003-0.001,0.005c0,0.001,0,0.002,0,0.003c0,0.002,0,0.003,0,0.005c0,0.001,0,0.002,0,0.003
			c0,0.002,0,0.004,0,0.005c0,0.001,0,0.001,0,0.002c0,0.002,0,0.004,0,0.006c0,0,0,0.001,0,0.002c0,0.003-0.001,0.005-0.001,0.008
			c0,0,0,0,0,0c0,0.002,0,0.005-0.001,0.007c0,0.001,0,0.002,0,0.003c0,0.001,0,0.003,0,0.004c0,0.001,0,0.002,0,0.003
			c0,0.002,0,0.003,0,0.005c0,0.001,0,0.002,0,0.003c0,0.001,0,0.003,0,0.004c0,0.001,0,0.002,0,0.003c0,0.001,0,0.003,0,0.004
			s0,0.002,0,0.003c0,0.001,0,0.003,0,0.004c0,0.001,0,0.002,0,0.003c0,0.002,0,0.003,0,0.004s0,0.002,0,0.004s0,0.003,0,0.004
			c0,0.001,0,0.002,0,0.004c0,0.001,0,0.002,0,0.004s0,0.003,0,0.004c0,0.001,0,0.003,0,0.004c0,0.001,0,0.002,0,0.004
			s0,0.003,0,0.004c0,0.001,0,0.002,0,0.003c0,0.001,0,0.003,0,0.004c0,0.001,0,0.002,0,0.003c0,0.001,0,0.003,0,0.004
			c0,0.001,0,0.002,0,0.003c0,0.001,0,0.003,0,0.004c0,0.001,0,0.002,0,0.003c0,0.001,0,0.003,0,0.004s0,0.002,0,0.004
			c0,0.002,0,0.004,0,0.006c0,0,0,0.001,0,0.001c0,0.003,0,0.005,0,0.008c0,0.001,0,0.003,0,0.004c0,0.001,0,0.003,0,0.004
			c0,0.001,0,0.002,0,0.004s0,0.002,0,0.004c0,0.001,0,0.002,0,0.003c0,0.002,0,0.003,0,0.005c0,0.001,0,0.002,0,0.003
			c0,0.001,0,0.003,0,0.004c0,0.001,0,0.002,0,0.003c0,0.001,0,0.003,0,0.004s0,0.002,0,0.004c0,0.001,0,0.002,0,0.004
			c0,0.001,0,0.002,0,0.004c0,0.001,0,0.003,0,0.004c0,0.001,0,0.002,0,0.004s0,0.002,0,0.004c0,0.001,0,0.003,0,0.004
			c0,0.001,0,0.003,0,0.004c0,0.001,0,0.002,0,0.003c0,0.001,0,0.003,0,0.004c0,0.001,0,0.002,0,0.003c0,0.001,0,0.003,0,0.004
			c0,0.001,0,0.002,0,0.004s0,0.002,0,0.004c0,0.001,0,0.002,0,0.004s0,0.003,0,0.004c0,0.001,0,0.002,0,0.004s0,0.003,0,0.005
			c0,0.001,0,0.002,0,0.003c0,0.002,0,0.003,0,0.005c0,0.001,0,0.002,0,0.003c0,0.002,0,0.005,0,0.007c0,0.001,0,0.002,0,0.004
			s0,0.003,0,0.004c0,0.001,0,0.002,0,0.003c0,0.002,0,0.003,0,0.005c0,0.001,0,0.002,0,0.003c0,0.001,0,0.003,0,0.005
			c0,0.001,0,0.002,0,0.003c0,0.001,0,0.003,0,0.005c0,0.001,0,0.002,0,0.003s0,0.003,0,0.004c0,0.001,0,0.002,0,0.003
			c0,0.001,0,0.003,0,0.004s0,0.002,0,0.003c0,0.002,0,0.003,0,0.004c0,0.001,0,0.002,0,0.004s0,0.003,0,0.004
			c0,0.001,0,0.003,0,0.004c0,0.001,0,0.003,0,0.004c0,0.001,0,0.002,0,0.003c0,0.001,0,0.003,0,0.005c0,0.001,0,0.002,0,0.003
			c0,0.002,0,0.003,0,0.005c0,0.001,0,0.002,0,0.003s0,0.003,0,0.004c0,0.001,0,0.002,0,0.003c0,0.001,0,0.003,0,0.005
			c0,0.001,0,0.002,0,0.003c0,0.002,0,0.004,0,0.005c0,0.001,0,0.002,0,0.003c0,0.002,0,0.004,0,0.006c0,0,0,0.001,0,0.001
			c0,0.003,0,0.005,0,0.008c0,0.001,0,0.001,0,0.002c0,0.002,0,0.004,0,0.006c0,0,0,0,0,0.001c0,0.002,0,0.005,0,0.007
			c0,0.001,0,0.002,0,0.002c0,0.002,0,0.004,0,0.006c0,0.001,0,0.001,0,0.002c0,0.002,0,0.003,0,0.005c0,0.001,0,0.002,0,0.003
			c0,0.002,0,0.003,0,0.005c0,0.001,0,0.002,0,0.003c0,0.001,0,0.003,0,0.005c0,0.001,0,0.002,0,0.003c0,0.002,0,0.003,0,0.005
			c0,0.001,0,0.002,0,0.003c0,0.001,0,0.003,0,0.004s0,0.002,0,0.004s0,0.003,0,0.004c0,0.001,0,0.002,0,0.003
			c0,0.001,0,0.003,0,0.004s0,0.002,0,0.004c0,0.001,0,0.003,0,0.004c0,0.001,0,0.002,0,0.003s0,0.003,0,0.004s0,0.002,0,0.003
			c0,0.002,0,0.003,0,0.005c0,0.001,0,0.002,0,0.003c0,0.001,0,0.003,0,0.005c0,0.001,0,0.002,0,0.003c0,0.002,0,0.004,0,0.006
			c0,0.001,0,0.001,0,0.002c0,0.003,0,0.005,0,0.008v2.219h2v-2.219c0-0.774,0.29-1.515,0.815-2.086L-0.176,49.755L-0.176,49.755z
			 M0.48,61.415h-2v6h2V61.415L0.48,61.415z M0.48,73.415h-2v6h2V73.415L0.48,73.415z M0.48,85.415h-2v6h2V85.415L0.48,85.415z
			 M0.48,97.415h-2v6h2V97.415L0.48,97.415z M0.48,109.415h-2v6h2V109.415L0.48,109.415z M0.48,121.415h-2v6h2V121.415L0.48,121.415
			z M0.48,133.415h-2v6h2V133.415L0.48,133.415z M0.48,145.415h-2v6h2V145.415L0.48,145.415z M0.48,157.415h-2v6h2V157.415
			L0.48,157.415z M0.48,169.415h-2v6h2V169.415L0.48,169.415z M0.48,181.415h-2v5.999h2V181.415L0.48,181.415z M0.48,193.414h-2v6h2
			V193.414L0.48,193.414z M0.48,205.414h-2v6h2V205.414L0.48,205.414z M0.48,217.414h-2v1.588c0,0.003,0,0.006,0,0.009
			c0,0.001,0,0.002,0,0.003c0,0.002,0,0.004,0,0.006c0,0.001,0,0.002,0,0.004c0,0.001,0,0.003,0,0.005c0,0.001,0,0.002,0,0.004
			c0,0.001,0,0.003,0,0.005c0,0.001,0,0.002,0,0.004c0,0.001,0,0.003,0,0.004c0,0.002,0,0.003,0,0.004c0,0.002,0,0.004,0,0.005
			c0,0.002,0,0.003,0,0.004c0,0.002,0,0.004,0,0.005c0,0.002,0,0.003,0,0.004c0,0.002,0,0.004,0,0.005c0,0.002,0,0.003,0,0.004
			c0,0.002,0,0.004,0,0.006c0,0.001,0,0.002,0,0.003c0,0.003,0,0.006,0,0.009c0,0.001,0,0.002,0,0.003c0,0.002,0,0.004,0,0.006
			c0,0.001,0,0.002,0,0.003c0,0.002,0,0.004,0,0.005c0,0.002,0,0.003,0,0.005c0,0.001,0,0.003,0,0.004c0,0.002,0,0.003,0,0.005
			c0,0.001,0,0.003,0,0.004s0,0.003,0,0.004c0,0.002,0,0.003,0,0.005c0,0.001,0,0.003,0,0.004c0,0.002,0,0.003,0,0.005
			c0,0.001,0,0.003,0,0.004c0,0.002,0,0.003,0,0.005c0,0.001,0,0.003,0,0.004c0,0.002,0,0.003,0,0.005c0,0.001,0,0.002,0,0.004
			s0,0.004,0,0.006c0,0.001,0,0.002,0,0.002c0,0.003,0,0.006,0,0.009c0,0.001,0,0.002,0,0.003c0,0.002,0,0.004,0,0.006
			c0,0.001,0,0.002,0,0.003c0,0.002,0,0.004,0,0.006c0,0.001,0,0.002,0,0.004c0,0.001,0,0.003,0,0.005c0,0.001,0,0.002,0,0.004
			c0,0.001,0,0.003,0,0.004c0,0.002,0,0.003,0,0.005c0,0.001,0,0.003,0,0.004c0,0.002,0,0.003,0,0.004c0,0.002,0,0.004,0,0.006
			c0,0.001,0,0.002,0,0.003c0,0.002,0,0.004,0,0.006c0,0.001,0,0.002,0,0.003c0,0.002,0,0.004,0,0.006c0,0.001,0,0.002,0,0.003
			c0,0.006,0,0.011,0.001,0.017c0,0.001,0,0.002,0,0.003c0,0.002,0,0.004,0,0.006c0,0.001,0,0.002,0,0.004c0,0.001,0,0.003,0,0.005
			c0,0.001,0,0.002,0,0.004c0,0.001,0,0.003,0,0.005c0,0.001,0,0.002,0,0.003c0,0.002,0,0.004,0,0.005c0,0.002,0,0.003,0,0.004
			c0,0.002,0,0.004,0,0.005c0,0.002,0,0.003,0,0.004c0,0.002,0,0.003,0,0.005c0,0.001,0,0.003,0,0.004c0,0.002,0,0.004,0,0.005
			c0,0.002,0,0.003,0,0.004c0,0.002,0,0.004,0,0.006c0,0.001,0,0.002,0,0.002c0,0.003,0,0.006,0.001,0.009c0,0.001,0,0.001,0,0.002
			c0,0.002,0,0.005,0,0.007c0,0.001,0,0.002,0,0.003c0,0.002,0,0.004,0,0.006c0,0.001,0,0.002,0,0.003c0,0.002,0,0.004,0,0.006
			c0,0.001,0,0.002,0,0.003c0,0.002,0,0.004,0,0.005c0,0.002,0,0.003,0,0.004s0,0.003,0,0.005c0,0.001,0,0.003,0,0.004
			c0,0.001,0,0.003,0,0.005c0,0.001,0,0.002,0,0.003c0,0.002,0,0.004,0,0.006c0,0.001,0,0.002,0,0.003c0,0.002,0,0.004,0,0.006
			c0,0.001,0,0.002,0,0.003c0,0.002,0,0.004,0,0.006c0,0.001,0,0.002,0,0.003c0,0.003,0,0.006,0.001,0.008c0,0.001,0,0.002,0,0.003
			c0,0.002,0,0.004,0,0.006c0,0.001,0,0.002,0,0.003c0,0.002,0,0.004,0,0.006c0,0.001,0,0.002,0,0.003c0,0.002,0,0.004,0,0.005
			c0,0.002,0,0.003,0,0.004c0,0.002,0,0.004,0,0.005s0,0.003,0,0.004c0,0.002,0,0.003,0,0.005c0,0.001,0,0.002,0,0.004
			c0,0.001,0,0.003,0,0.005c0,0.001,0,0.002,0,0.003c0,0.002,0,0.004,0,0.006c0,0.001,0,0.002,0,0.003c0,0.002,0,0.004,0,0.006
			c0,0.001,0,0.002,0,0.003c0.001,0.006,0.001,0.011,0.002,0.017c0,0.001,0,0.002,0,0.003c0,0.002,0,0.004,0,0.006
			c0,0.001,0,0.002,0,0.004c0,0.001,0,0.003,0,0.004c0,0.002,0,0.003,0,0.004c0,0.002,0,0.004,0,0.005c0,0.001,0,0.003,0,0.004
			c0,0.002,0,0.003,0,0.005c0,0.001,0,0.003,0,0.004c0,0.001,0,0.003,0,0.004c0,0.002,0,0.003,0,0.005c0,0.001,0,0.003,0,0.004
			c0,0.001,0,0.003,0,0.004c0,0.002,0,0.003,0,0.005c0,0.001,0,0.002,0,0.004c0,0.001,0,0.003,0,0.004c0,0.002,0,0.003,0,0.004
			c0,0.002,0,0.003,0,0.005c0,0.003,0.001,0.005,0.001,0.008c0,0.001,0,0.003,0,0.004c0,0.002,0,0.003,0,0.004
			c0,0.002,0,0.003,0,0.005c0,0.001,0,0.003,0,0.004c0,0.002,0,0.003,0.001,0.005c0,0.001,0,0.002,0,0.004c0,0.001,0,0.003,0,0.004
			c0,0.002,0,0.003,0,0.004c0,0.002,0,0.003,0,0.005c0,0.001,0,0.003,0,0.004s0,0.003,0,0.004c0,0.002,0,0.003,0,0.005
			c0,0.001,0,0.003,0,0.004c0,0.002,0,0.003,0,0.004c0,0.002,0,0.003,0.001,0.005c0,0.001,0,0.003,0,0.004c0,0.002,0,0.004,0,0.006
			c0,0,0,0.001,0,0.002c0,0.003,0.001,0.006,0.001,0.009c0,0.001,0,0.002,0,0.003c0,0.002,0,0.004,0.001,0.005
			c0,0.001,0,0.003,0,0.004c0,0.002,0,0.003,0,0.005c0,0.001,0,0.002,0,0.004c0,0.001,0,0.003,0.001,0.004c0,0.002,0,0.003,0,0.004
			c0,0.002,0,0.003,0,0.005c0,0.001,0,0.003,0,0.004c0,0.002,0,0.003,0.001,0.005c0,0.001,0,0.002,0,0.003c0,0.002,0,0.004,0,0.005
			s0,0.003,0,0.004c0,0.002,0,0.004,0.001,0.005c0,0.001,0,0.003,0,0.004c0,0.001,0,0.003,0,0.005c0,0.001,0,0.002,0,0.003
			c0.001,0.006,0.002,0.011,0.003,0.017c0,0.001,0,0.002,0,0.003c0,0.002,0,0.004,0,0.006c0,0.001,0,0.002,0,0.003
			c0,0.002,0,0.004,0.001,0.005c0,0.001,0,0.003,0,0.004c0,0.002,0,0.003,0.001,0.005c0,0.001,0,0.002,0,0.004
			c0,0.001,0,0.003,0,0.004c0,0.001,0,0.003,0.001,0.004c0,0.002,0,0.003,0,0.005c0,0.001,0,0.002,0,0.004
			c0,0.001,0,0.003,0.001,0.004c0,0.002,0,0.003,0,0.004c0,0.002,0,0.003,0.001,0.005c0,0.001,0,0.002,0,0.004
			c0,0.001,0,0.003,0.001,0.004c0,0.001,0,0.003,0,0.004c0,0.002,0,0.003,0.001,0.005c0,0.002,0,0.005,0.001,0.007
			s0,0.003,0.001,0.005c0,0.001,0,0.003,0,0.004c0,0.001,0,0.003,0.001,0.004c0,0.002,0,0.003,0,0.005c0,0.001,0,0.002,0.001,0.004
			c0,0.001,0,0.003,0,0.004c0,0.002,0,0.003,0.001,0.004c0,0.002,0,0.003,0,0.004c0,0.002,0,0.003,0.001,0.005
			c0,0.001,0,0.003,0,0.004c0,0.001,0,0.003,0.001,0.004c0,0.002,0,0.003,0,0.005c0,0.001,0,0.002,0.001,0.004
			c0,0.001,0,0.003,0,0.004c0,0.001,0,0.003,0.001,0.004c0,0.002,0,0.003,0,0.004c0,0.002,0.001,0.004,0.001,0.006
			c0,0.001,0,0.002,0.001,0.003c0,0.003,0.001,0.005,0.001,0.008c0,0.001,0,0.002,0,0.003c0,0.002,0,0.004,0.001,0.005
			c0,0.002,0,0.003,0,0.004c0,0.002,0.001,0.003,0.001,0.005c0,0.001,0,0.002,0.001,0.003c0,0.002,0,0.004,0,0.005
			c0,0.002,0,0.003,0.001,0.004c0,0.002,0,0.003,0.001,0.005c0,0.001,0,0.002,0,0.004c0,0.001,0,0.003,0.001,0.004
			c0,0.002,0,0.003,0.001,0.004c0,0.002,0,0.003,0,0.005c0,0.001,0,0.002,0.001,0.004c0,0.001,0,0.003,0.001,0.004
			c0,0.001,0,0.003,0,0.004c0,0.002,0.001,0.003,0.001,0.005c0,0.001,0,0.002,0.001,0.003c0,0.002,0.001,0.005,0.001,0.007
			c0,0,0,0.001,0,0.002c0,0.002,0.001,0.005,0.002,0.008c0,0.001,0,0.002,0,0.003c0,0.002,0,0.004,0.001,0.005
			c0,0.002,0,0.003,0.001,0.004c0,0.002,0,0.003,0.001,0.005c0,0.001,0,0.002,0,0.004c0,0.001,0,0.002,0.001,0.004
			c0,0.001,0,0.003,0.001,0.004c0,0.002,0,0.003,0.001,0.004c0,0.002,0,0.003,0.001,0.005c0,0.001,0,0.002,0,0.004
			c0,0.001,0.001,0.003,0.001,0.004c0,0.001,0,0.003,0.001,0.004s0,0.003,0.001,0.004c0,0.001,0,0.003,0,0.004
			c0,0.002,0.001,0.003,0.001,0.005c0,0.001,0,0.002,0,0.003s0,0.003,0.001,0.005c0,0,0,0.001,0,0.001
			c0.001,0.005,0.001,0.009,0.002,0.013c0,0.001,0,0.001,0,0.002c0,0.002,0.001,0.004,0.001,0.006c0,0,0,0.001,0,0.002
			c0,0.002,0.001,0.004,0.001,0.006c0,0.001,0,0.002,0.001,0.003s0,0.003,0.001,0.005c0,0.001,0,0.002,0.001,0.003
			c0,0.002,0,0.003,0.001,0.005c0,0.001,0,0.002,0.001,0.003c0,0.002,0,0.003,0.001,0.005c0,0.001,0,0.002,0,0.004
			c0,0.001,0.001,0.003,0.001,0.004c0,0.001,0,0.003,0,0.004c0,0.001,0.001,0.003,0.001,0.004c0,0.002,0.001,0.003,0.001,0.004
			c0,0.001,0.001,0.003,0.001,0.005c0,0.001,0,0.002,0.001,0.003c0.001,0.006,0.003,0.012,0.004,0.018c0,0.001,0,0.002,0,0.003
			c0,0.001,0.001,0.003,0.001,0.005c0,0.001,0.001,0.002,0.001,0.003c0,0.002,0.001,0.003,0.001,0.005
			c0,0.001,0.001,0.002,0.001,0.003c0,0.002,0.001,0.004,0.001,0.005c0,0.001,0,0.002,0,0.003c0,0.002,0.001,0.004,0.001,0.006
			c0,0.001,0,0.002,0,0.003c0,0.001,0.001,0.003,0.001,0.005c0,0.001,0,0.002,0,0.003c0,0.002,0.001,0.003,0.001,0.005
			c0,0.001,0,0.002,0.001,0.003c0,0.002,0,0.003,0.001,0.005c0,0.001,0,0.002,0,0.003c0,0.002,0.001,0.003,0.001,0.005
			c0,0.001,0,0.001,0,0.002c0.001,0.004,0.002,0.008,0.003,0.012c0,0.001,0,0.001,0,0.002c0,0.002,0.001,0.003,0.001,0.005
			c0,0.001,0,0.002,0.001,0.003c0,0.002,0,0.004,0.001,0.005s0,0.002,0.001,0.003c0,0.002,0.001,0.003,0.001,0.005
			c0,0.001,0,0.002,0,0.004c0,0.001,0.001,0.003,0.001,0.004s0,0.003,0.001,0.004s0,0.003,0.001,0.005c0,0.001,0,0.002,0.001,0.003
			s0.001,0.003,0.001,0.005c0,0.001,0,0.002,0,0.003c0,0.001,0.001,0.003,0.001,0.005c0,0.001,0,0.002,0.001,0.003
			c0,0.002,0.001,0.003,0.001,0.005c0,0.001,0,0.002,0,0.003s0.001,0.003,0.001,0.005v0.001c0.001,0.004,0.002,0.009,0.004,0.013
			c0,0,0,0.001,0,0.002c0,0.002,0.001,0.003,0.001,0.005c0,0.001,0,0.002,0,0.003c0,0.002,0.001,0.003,0.001,0.005
			c0,0.001,0,0.002,0.001,0.003c0,0.002,0.001,0.003,0.001,0.005c0,0.001,0,0.002,0,0.003c0,0.002,0.001,0.003,0.001,0.005
			c0,0.001,0,0.002,0.001,0.003c0,0.002,0.001,0.003,0.001,0.005c0,0.001,0,0.002,0,0.003c0,0.002,0.001,0.004,0.001,0.005
			s0.001,0.002,0.001,0.003c0,0.002,0.001,0.004,0.001,0.005s0,0.002,0.001,0.003c0,0.002,0.001,0.003,0.001,0.005
			c0,0.001,0,0.002,0,0.002c0.002,0.007,0.004,0.013,0.006,0.02c0,0,0,0.001,0,0.002c0,0.002,0.001,0.003,0.001,0.005
			c0,0.001,0,0.002,0.001,0.003c0,0.002,0.001,0.003,0.001,0.005c0,0.001,0,0.002,0,0.003c0,0.001,0.001,0.003,0.001,0.005
			c0,0.001,0.001,0.002,0.001,0.003c0,0.002,0.001,0.003,0.001,0.005c0,0.001,0,0.002,0.001,0.003c0,0.002,0.001,0.003,0.001,0.005
			c0,0.001,0,0.002,0.001,0.003c0,0.002,0.001,0.003,0.001,0.005c0,0.001,0,0.002,0.001,0.003c0,0.002,0.001,0.003,0.001,0.005
			c0,0.001,0,0.002,0.001,0.003c0,0.002,0.001,0.003,0.001,0.005c0,0.001,0,0.001,0,0.002c0.002,0.007,0.004,0.013,0.006,0.02
			c0,0,0,0.001,0,0.001c0,0.002,0.001,0.004,0.001,0.006c0,0.001,0,0.002,0.001,0.002c0,0.002,0.001,0.004,0.001,0.005
			s0,0.002,0.001,0.003c0,0.002,0.001,0.004,0.001,0.006c0,0,0,0.001,0.001,0.002c0,0.002,0.001,0.004,0.001,0.005
			s0,0.002,0.001,0.003c0,0.002,0.001,0.004,0.001,0.006c0,0,0,0.001,0.001,0.002c0,0.002,0.001,0.003,0.001,0.005
			c0,0.001,0,0.002,0.001,0.003c0,0.002,0.001,0.003,0.002,0.005c0,0.001,0,0.001,0,0.002c0.003,0.009,0.006,0.019,0.01,0.027
			c0,0.001,0,0.001,0,0.001c0,0.002,0.001,0.004,0.002,0.006c0,0.001,0,0.001,0,0.002c0.001,0.002,0.001,0.004,0.002,0.006
			c0,0,0,0.001,0.001,0.002c0,0.002,0.001,0.004,0.001,0.005s0.001,0.002,0.001,0.003c0,0.002,0.001,0.004,0.002,0.005
			c0,0.001,0,0.002,0,0.003c0.001,0.001,0.001,0.003,0.002,0.005c0,0.001,0,0.002,0.001,0.002c0,0.002,0.001,0.004,0.002,0.006
			c0,0.001,0,0.001,0,0.001c0.004,0.012,0.008,0.023,0.013,0.035c0,0.001,0,0.001,0,0.001c0.001,0.003,0.001,0.004,0.002,0.007
			l0,0.001c0,0.002,0.001,0.004,0.002,0.006c0,0.001,0,0.001,0.001,0.002c0,0.002,0.001,0.004,0.002,0.006c0,0.001,0,0.001,0,0.002
			c0.001,0.002,0.001,0.004,0.002,0.005s0,0.002,0.001,0.003s0.001,0.003,0.002,0.005c0,0.001,0,0.001,0,0.002
			c0.001,0.002,0.001,0.004,0.002,0.006c0,0.001,0,0.001,0,0.002c0.003,0.009,0.006,0.018,0.01,0.027c0,0,0,0,0,0
			c0.001,0.003,0.001,0.005,0.002,0.007c0,0,0,0.001,0,0.001c0,0.002,0.001,0.004,0.002,0.006c0,0.001,0,0.001,0,0.002
			c0.001,0.002,0.001,0.004,0.002,0.006l0,0.001c0.001,0.003,0.001,0.004,0.002,0.007c0,0,0,0,0,0.001
			c0,0.002,0.001,0.004,0.002,0.006c0,0.001,0,0.001,0.001,0.002c0,0.002,0.001,0.004,0.002,0.006c0,0,0,0.001,0.001,0.001
			c0,0.002,0.001,0.004,0.002,0.006c0,0.001,0,0.001,0,0.001c0.003,0.009,0.007,0.019,0.011,0.028l0,0
			c0.001,0.002,0.002,0.005,0.002,0.007c0,0,0,0.001,0,0.001c0.001,0.002,0.002,0.004,0.002,0.006c0,0.001,0,0.001,0,0.002
			c0.001,0.002,0.001,0.003,0.002,0.005c0,0.001,0,0.002,0.001,0.002c0,0.002,0.001,0.004,0.002,0.006c0,0.001,0,0.001,0.001,0.002
			c0,0.002,0.001,0.004,0.002,0.006c0,0,0,0.001,0,0.001c0.007,0.017,0.014,0.033,0.021,0.05l0,0
			c0.001,0.002,0.001,0.005,0.002,0.007c0,0,0,0,0,0.001c0.001,0.002,0.002,0.004,0.002,0.006c0,0.001,0,0.001,0,0.001
			c0.001,0.002,0.002,0.004,0.003,0.007c0,0,0,0,0,0.001c0.001,0.002,0.002,0.004,0.003,0.006v0.001
			c0.007,0.017,0.014,0.033,0.021,0.049v0.001c0.002,0.004,0.004,0.009,0.006,0.014l0,0c0.011,0.024,0.021,0.048,0.032,0.071l0,0
			c0.313,0.688,0.776,1.296,1.347,1.78l1.294-1.524c-0.695-0.59-1.094-1.448-1.094-2.354V217.414L0.48,217.414z M11.988,222.099h-6
			v2h6V222.099L11.988,222.099z M23.988,222.099h-6v2h6V222.099L23.988,222.099z M35.988,222.099h-6v2h6V222.099L35.988,222.099z
			 M47.988,222.099h-6v2h6V222.099L47.988,222.099z M59.988,222.099h-6v2h6V222.099L59.988,222.099z M71.988,222.099h-6v2h6V222.099
			L71.988,222.099z M83.988,222.099h-6v2h6V222.099L83.988,222.099z M95.988,222.099h-6v2h6V222.099L95.988,222.099z
			 M107.988,222.099h-6v2h6V222.099L107.988,222.099z M119.988,222.099h-6v2h6V222.099L119.988,222.099z M131.744,222.075
			c-0.127,0.016-0.258,0.023-0.388,0.023h-5.368v2h5.368c0.003,0,0.006,0,0.009,0c0.001,0,0.003,0,0.004,0c0.002,0,0.004,0,0.006,0
			c0.001,0,0.002,0,0.003,0c0.003,0,0.005,0,0.007,0c0.001,0,0.002,0,0.003,0c0.002,0,0.004,0,0.006,0s0.003,0,0.004,0
			c0.003,0,0.006,0,0.009,0c0.001,0,0.002,0,0.002,0c0.003,0,0.005,0,0.007,0c0.001,0,0.003,0,0.004,0c0.002,0,0.004,0,0.006,0
			c0.001,0,0.003,0,0.004-0.001c0.002,0,0.003,0,0.005,0s0.003,0,0.005,0c0.001,0,0.003,0,0.004,0c0.002,0,0.004,0,0.005,0
			c0.002,0,0.004,0,0.006,0c0.003,0,0.005,0,0.007,0s0.003,0,0.005,0s0.003,0,0.005,0c0.001,0,0.003,0,0.004,0
			c0.002,0,0.004,0,0.006,0c0.001,0,0.002-0.001,0.003-0.001c0.002,0,0.004,0,0.006,0c0.001,0,0.002,0,0.003,0
			c0.007,0,0.014,0,0.021,0h0.001c0.002,0,0.005-0.001,0.007-0.001c0.001,0,0.001,0,0.002,0c0.002,0,0.005,0,0.007,0h0.001
			c0.154-0.005,0.307-0.017,0.457-0.035L131.744,222.075L131.744,222.075z M136.48,214.398h-2v4.604
			c0,0.285-0.039,0.566-0.115,0.836l1.926,0.543c0.028-0.101,0.054-0.202,0.075-0.306l0,0c0.002-0.007,0.004-0.015,0.005-0.022
			c0,0,0-0.001,0.001-0.001c0-0.002,0.001-0.005,0.001-0.007c0-0.001,0-0.001,0-0.002c0.001-0.004,0.002-0.008,0.003-0.012
			c0-0.001,0-0.002,0-0.003c0.001-0.002,0.001-0.004,0.002-0.006c0-0.001,0-0.002,0-0.003c0.001-0.002,0.001-0.004,0.002-0.006
			c0-0.001,0-0.002,0-0.004c0.001-0.003,0.002-0.006,0.002-0.009c0-0.001,0.001-0.003,0.001-0.004c0-0.002,0.001-0.003,0.001-0.005
			s0.001-0.003,0.001-0.005c0-0.001,0.001-0.003,0.001-0.005s0.001-0.005,0.002-0.008c0-0.002,0-0.003,0-0.004
			c0.001-0.002,0.001-0.004,0.001-0.006c0.001-0.001,0.001-0.003,0.001-0.004c0.001-0.002,0.001-0.004,0.001-0.006
			c0.001-0.001,0.001-0.002,0.001-0.004c0.001-0.003,0.001-0.006,0.002-0.009c0-0.001,0-0.002,0-0.003
			c0.001-0.002,0.001-0.004,0.002-0.007c0-0.001,0-0.002,0-0.003c0.001-0.003,0.001-0.005,0.002-0.007c0-0.001,0-0.002,0-0.003
			c0.001-0.003,0.001-0.006,0.002-0.009c0-0.001,0-0.002,0-0.003c0.001-0.003,0.001-0.005,0.002-0.007c0-0.002,0-0.002,0-0.004
			c0.001-0.003,0.001-0.006,0.002-0.009l0,0c0-0.003,0.001-0.007,0.002-0.01c0-0.001,0-0.002,0-0.003
			c0.001-0.002,0.001-0.005,0.001-0.007c0.001-0.001,0.001-0.002,0.001-0.003c0-0.003,0.001-0.007,0.002-0.01l0,0
			c0-0.004,0.001-0.007,0.001-0.01c0-0.001,0-0.001,0.001-0.002c0-0.003,0.001-0.006,0.001-0.009v-0.001
			c0.001-0.004,0.001-0.007,0.002-0.011l0,0c0.001-0.003,0.001-0.007,0.002-0.01c0,0,0-0.001,0-0.002
			c0-0.003,0.001-0.006,0.002-0.009c0-0.001,0-0.001,0-0.001c0-0.003,0.001-0.007,0.001-0.01c0-0.001,0-0.001,0-0.001
			c0.001-0.004,0.001-0.007,0.002-0.01v-0.001c0.001-0.007,0.002-0.014,0.003-0.021c0-0.001,0-0.001,0-0.001
			c0.001-0.004,0.001-0.007,0.002-0.01v-0.001c0.001-0.007,0.002-0.014,0.003-0.021c0-0.001,0-0.001,0-0.002
			c0.001-0.003,0.001-0.006,0.002-0.009c0-0.001,0-0.001,0-0.001c0.001-0.007,0.002-0.014,0.003-0.021c0-0.001,0-0.001,0-0.002
			c0-0.003,0.001-0.006,0.001-0.01l0,0c0.001-0.007,0.002-0.014,0.003-0.021c0,0,0,0,0-0.001c0.001-0.007,0.002-0.014,0.003-0.021
			c0,0,0,0,0-0.001c0.001-0.003,0.001-0.006,0.001-0.01c0,0,0-0.001,0.001-0.001c0-0.007,0.001-0.014,0.002-0.021
			c0-0.001,0-0.001,0-0.001c0.001-0.004,0.001-0.007,0.001-0.01l0.001-0.001c0-0.007,0.001-0.014,0.002-0.021c0,0,0,0,0-0.001
			c0.001-0.003,0.001-0.006,0.001-0.01l0,0c0.001-0.008,0.002-0.015,0.003-0.021v-0.001c0-0.004,0.001-0.007,0.001-0.01v-0.001
			c0.001-0.007,0.001-0.014,0.002-0.021c0-0.001,0-0.001,0-0.002c0.001-0.007,0.002-0.014,0.002-0.021v-0.001
			c0.001-0.003,0.001-0.006,0.001-0.01v-0.001c0.001-0.007,0.002-0.015,0.002-0.021l0,0c0.001-0.004,0.001-0.007,0.001-0.01
			c0-0.001,0-0.001,0-0.002c0.001-0.007,0.002-0.014,0.002-0.021c0-0.001,0-0.001,0-0.001c0.001-0.004,0.001-0.007,0.001-0.01
			v-0.001c0.001-0.007,0.001-0.014,0.002-0.021v-0.001c0-0.003,0.001-0.007,0.001-0.01c0,0,0,0,0-0.001c0-0.003,0-0.007,0.001-0.011
			c0,0,0,0,0-0.001c0-0.003,0-0.006,0-0.009c0-0.001,0-0.001,0.001-0.002c0-0.003,0-0.007,0-0.01l0,0
			c0-0.004,0.001-0.008,0.001-0.011c0-0.001,0-0.001,0-0.002c0-0.003,0-0.006,0.001-0.009c0,0,0-0.001,0-0.002
			c0-0.007,0.001-0.014,0.001-0.021c0,0,0-0.001,0-0.002c0-0.003,0-0.006,0.001-0.009v-0.001c0-0.007,0-0.015,0.001-0.021
			c0,0,0-0.001,0-0.002c0-0.003,0-0.006,0-0.009c0,0,0-0.001,0.001-0.001c0-0.004,0-0.007,0-0.011v-0.001
			c0-0.003,0-0.006,0.001-0.009c0-0.001,0-0.002,0-0.003c0-0.003,0-0.006,0-0.008c0-0.001,0-0.002,0-0.002
			c0-0.004,0-0.007,0.001-0.011v-0.001c0-0.003,0-0.006,0-0.009c0-0.001,0-0.002,0-0.003c0-0.003,0-0.006,0-0.009v-0.001
			c0.001-0.004,0.001-0.007,0.001-0.01c0-0.001,0-0.002,0-0.003c0-0.003,0-0.005,0-0.008c0-0.001,0-0.002,0-0.003
			c0-0.003,0-0.006,0.001-0.01l0,0c0-0.003,0-0.007,0-0.01c0-0.001,0-0.002,0-0.003c0-0.003,0-0.005,0-0.008
			c0-0.001,0-0.002,0-0.003c0-0.003,0-0.006,0-0.01c0.001-0.001,0.001-0.001,0.001-0.002c0-0.002,0-0.005,0-0.008
			c0-0.001,0-0.002,0-0.003c0-0.003,0-0.006,0-0.008c0-0.001,0-0.002,0-0.003c0-0.003,0-0.006,0-0.01c0-0.001,0-0.001,0-0.002
			c0-0.003,0-0.006,0-0.008c0-0.001,0-0.002,0-0.003c0-0.003,0-0.006,0.001-0.009c0,0,0-0.001,0-0.002c0-0.003,0-0.007,0-0.01
			c0-0.001,0-0.002,0-0.003c0-0.002,0-0.005,0-0.007c0-0.001,0-0.003,0-0.004c0-0.003,0-0.006,0-0.009v-0.001
			c0-0.003,0-0.007,0-0.01c0-0.001,0-0.002,0-0.003c0-0.003,0-0.005,0-0.008c0-0.001,0-0.002,0-0.003c0-0.003,0-0.007,0-0.01
			V214.398L136.48,214.398z M136.48,202.398h-2v6h2V202.398L136.48,202.398z M136.48,190.398h-2v6h2V190.398L136.48,190.398z
			 M136.48,178.398h-2v6h2V178.398L136.48,178.398z M136.48,166.398h-2v6h2V166.398L136.48,166.398z M136.48,154.398h-2v6h2V154.398
			L136.48,154.398z M136.48,142.398h-2v6h2V142.398L136.48,142.398z M136.48,130.398h-2v6h2V130.398L136.48,130.398z
			 M136.48,118.398h-2v6h2V118.398L136.48,118.398z M136.48,106.398h-2v6h2V106.398L136.48,106.398z M136.48,94.398h-2v6h2V94.398
			L136.48,94.398z M136.48,82.398h-2v6h2V82.398L136.48,82.398z M136.48,70.398h-2v6h2V70.398L136.48,70.398z M136.48,58.398h-2v6h2
			V58.398L136.48,58.398z M132.576,48.244l-0.472,1.943c1.207,0.293,2.147,1.308,2.339,2.524l1.976-0.311
			c-0.075-0.479-0.218-0.935-0.417-1.36l0,0c-0.004-0.007-0.007-0.014-0.01-0.021l0,0c-0.004-0.007-0.007-0.014-0.01-0.021h-0.001
			c-0.002-0.005-0.004-0.009-0.006-0.014c0,0,0,0,0,0c-0.002-0.002-0.003-0.004-0.004-0.006v0c-0.003-0.007-0.007-0.014-0.01-0.021
			v0c-0.004-0.006-0.007-0.014-0.011-0.02c0,0,0,0,0-0.001c-0.001-0.002-0.002-0.004-0.003-0.006c0,0,0,0,0,0
			c-0.003-0.005-0.005-0.009-0.007-0.014l-0.001,0c-0.001-0.002-0.002-0.004-0.003-0.006c0,0,0,0,0,0
			c-0.002-0.004-0.005-0.009-0.007-0.013c0,0,0,0-0.001-0.001c0-0.002-0.001-0.003-0.002-0.005c-0.001,0-0.001-0.001-0.001-0.001
			c-0.002-0.004-0.004-0.008-0.007-0.013c0,0,0-0.001,0-0.001c-0.001-0.001-0.002-0.003-0.003-0.005c0,0-0.001-0.001-0.001-0.001
			c-0.002-0.004-0.004-0.008-0.007-0.013c0,0,0-0.001,0-0.001c-0.001-0.001-0.002-0.003-0.003-0.005c0,0-0.001-0.001-0.001-0.002
			c-0.001-0.002-0.002-0.004-0.003-0.006l0,0c-0.001-0.002-0.003-0.004-0.004-0.006c0,0,0-0.001,0-0.001
			c-0.001-0.002-0.002-0.003-0.003-0.005c0,0-0.001-0.001-0.001-0.002c-0.001-0.001-0.002-0.003-0.003-0.004
			c0,0,0-0.001-0.001-0.002c-0.001-0.002-0.002-0.004-0.003-0.006c0,0,0-0.001-0.001-0.001c0-0.001-0.001-0.003-0.002-0.005
			c0,0-0.001-0.001-0.001-0.002c-0.001-0.001-0.002-0.003-0.003-0.005c0,0,0-0.001-0.001-0.001
			c-0.001-0.002-0.002-0.004-0.003-0.006c0,0-0.001-0.001-0.001-0.001c-0.001-0.001-0.002-0.003-0.002-0.005
			c-0.001,0-0.001-0.001-0.002-0.002c0-0.001-0.001-0.002-0.002-0.004c0-0.001-0.001-0.001-0.001-0.002
			c-0.001-0.002-0.002-0.003-0.003-0.005c-0.001-0.001-0.001-0.002-0.001-0.002c-0.001-0.001-0.002-0.002-0.002-0.003
			c-0.001-0.001-0.001-0.002-0.002-0.003c-0.001-0.001-0.001-0.003-0.002-0.004s-0.001-0.001-0.001-0.002
			c-0.001-0.002-0.003-0.004-0.004-0.006c0-0.001,0-0.001-0.001-0.002c0-0.001-0.001-0.003-0.002-0.004c0,0-0.001-0.001-0.001-0.002
			c-0.001-0.001-0.002-0.002-0.002-0.004c-0.001-0.001-0.001-0.002-0.002-0.002c-0.001-0.002-0.002-0.004-0.003-0.006
			c0,0-0.001-0.001-0.001-0.002c-0.001-0.001-0.002-0.002-0.002-0.004c-0.001-0.001-0.001-0.001-0.002-0.002
			c-0.001-0.001-0.001-0.002-0.002-0.004c-0.001,0-0.001-0.001-0.001-0.002c-0.001-0.001-0.003-0.003-0.004-0.005
			c0-0.001-0.001-0.001-0.001-0.002c-0.001-0.001-0.001-0.002-0.002-0.003s-0.001-0.002-0.002-0.003
			c0-0.001-0.001-0.002-0.002-0.003c0-0.001-0.001-0.001-0.001-0.002c-0.001-0.002-0.002-0.004-0.003-0.006
			c-0.001,0-0.001-0.001-0.001-0.001c-0.001-0.001-0.002-0.003-0.003-0.004c0-0.001-0.001-0.002-0.001-0.003
			c-0.001-0.001-0.002-0.002-0.002-0.003c-0.001-0.001-0.001-0.002-0.002-0.003c-0.001-0.001-0.002-0.002-0.002-0.004
			c-0.001-0.001-0.002-0.002-0.003-0.004c0-0.001-0.001-0.002-0.001-0.003c-0.001-0.001-0.002-0.002-0.002-0.003
			c-0.001-0.001-0.001-0.001-0.002-0.002c-0.001-0.001-0.001-0.002-0.002-0.003c0-0.001-0.001-0.002-0.002-0.003
			c0-0.001-0.001-0.003-0.002-0.004c-0.001-0.001-0.002-0.002-0.002-0.004c-0.001-0.001-0.002-0.002-0.002-0.003
			c-0.001-0.001-0.001-0.002-0.002-0.003s-0.001-0.002-0.002-0.003c0-0.001-0.001-0.002-0.002-0.003
			c-0.001-0.001-0.001-0.003-0.002-0.004c-0.001-0.001-0.002-0.002-0.002-0.004c-0.001-0.001-0.002-0.002-0.002-0.003
			c-0.001-0.001-0.001-0.002-0.002-0.003s-0.001-0.002-0.002-0.003c0-0.001-0.001-0.001-0.001-0.002
			c-0.002-0.002-0.003-0.005-0.004-0.007c-0.001,0-0.001-0.001-0.001-0.001c-0.001-0.001-0.002-0.002-0.003-0.004
			c0,0,0-0.001-0.001-0.002s-0.001-0.002-0.002-0.004c0,0-0.001,0-0.001-0.001c-0.002-0.002-0.003-0.005-0.005-0.008c0,0,0,0,0,0
			c-0.001-0.001-0.002-0.002-0.003-0.004c0,0-0.001-0.001-0.001-0.001c-0.001-0.001-0.002-0.003-0.002-0.004
			c-0.001,0-0.001,0-0.001-0.001c-0.003-0.004-0.006-0.009-0.008-0.013c-0.001,0-0.001-0.001-0.001-0.001
			c-0.001-0.001-0.002-0.003-0.003-0.004c0,0,0,0,0-0.001c-0.003-0.004-0.006-0.009-0.009-0.014c0,0,0,0,0-0.001
			c-0.001-0.001-0.002-0.003-0.003-0.004c0,0-0.001,0-0.001-0.001c-0.003-0.004-0.006-0.009-0.008-0.014c-0.001,0-0.001,0-0.001,0
			c-0.001-0.001-0.002-0.003-0.003-0.004c0,0,0-0.001,0-0.001c-0.003-0.004-0.006-0.009-0.009-0.014l0,0
			c-0.001-0.002-0.002-0.003-0.003-0.005c-0.001,0-0.001,0-0.001,0c-0.003-0.005-0.006-0.009-0.009-0.014v0
			c-0.001-0.001-0.002-0.003-0.003-0.004c0,0,0,0-0.001,0c-0.004-0.007-0.008-0.013-0.012-0.02l0,0
			c-0.501-0.781-1.209-1.417-2.049-1.831l0,0c-0.005-0.002-0.01-0.005-0.015-0.007l-0.001,0c-0.001,0-0.003-0.001-0.005-0.002l0,0
			c-0.006-0.002-0.011-0.005-0.016-0.007c0,0,0,0,0,0c-0.002,0-0.004-0.001-0.005-0.002s-0.001,0-0.001,0
			c-0.006-0.002-0.011-0.005-0.016-0.007l0,0c-0.002-0.001-0.003-0.001-0.005-0.002l-0.001,0c-0.005-0.002-0.01-0.005-0.015-0.007
			c0,0,0,0-0.001,0c-0.001-0.001-0.003-0.001-0.004-0.002c-0.001,0-0.001,0-0.002,0c-0.005-0.002-0.01-0.004-0.014-0.006
			c-0.001,0-0.001,0-0.002-0.001s-0.003-0.001-0.004-0.002c-0.001,0-0.001,0-0.002,0c-0.001-0.001-0.003-0.001-0.004-0.002
			c0,0-0.001,0-0.001,0c-0.003-0.001-0.005-0.002-0.008-0.004c-0.001,0-0.002,0-0.003-0.001s-0.002-0.001-0.003-0.002
			c-0.001,0-0.002,0-0.003-0.001s-0.003-0.001-0.004-0.001s-0.001-0.001-0.002-0.001c-0.002-0.001-0.004-0.002-0.007-0.003
			c-0.001,0-0.002-0.001-0.003-0.001s-0.002-0.001-0.003-0.001s-0.002-0.001-0.003-0.001s-0.002-0.001-0.003-0.001
			c-0.002,0-0.004-0.001-0.005-0.002s-0.001,0-0.001-0.001c-0.003,0-0.004-0.001-0.007-0.002c0,0-0.002-0.001-0.003-0.001
			s-0.002-0.001-0.003-0.001s-0.002-0.001-0.003-0.001c-0.002-0.001-0.003-0.001-0.005-0.002l-0.001,0
			c-0.003-0.001-0.005-0.002-0.007-0.003c0,0-0.001,0-0.002-0.001s-0.003-0.001-0.004-0.002c-0.001,0-0.002,0-0.003-0.001
			c-0.002-0.001-0.004-0.001-0.006-0.002l0,0c-0.002-0.001-0.004-0.002-0.007-0.003c0,0-0.001,0-0.002-0.001
			s-0.003-0.001-0.004-0.002s-0.002,0-0.003-0.001c-0.001-0.001-0.003-0.001-0.005-0.002c0,0-0.001,0-0.001,0
			c-0.002-0.001-0.005-0.002-0.007-0.003c0,0-0.001,0-0.001,0c-0.002,0-0.004-0.001-0.006-0.002c0,0-0.001,0-0.001,0
			c-0.002-0.001-0.004-0.001-0.007-0.002c0,0,0,0,0,0c-0.002-0.001-0.005-0.002-0.007-0.003c0,0,0,0-0.001,0
			c-0.002-0.001-0.004-0.002-0.006-0.003c0,0-0.001,0-0.001,0c-0.002,0-0.004-0.001-0.007-0.002l0,0
			c-0.005-0.002-0.009-0.004-0.014-0.006c0,0-0.001,0-0.001,0c-0.007-0.003-0.015-0.006-0.021-0.009l0,0
			C133.087,48.39,132.836,48.307,132.576,48.244L132.576,48.244z"/>
	</g>
	<g id="Type_Path">
		<line fill="none" x1="21.166" y1="159.499" x2="134.166" y2="108.833"/>
		<g opacity="0.4">
			
				<text transform="matrix(0.8013 -0.3593 0.4091 0.9125 23.0986 158.6309)" fill="#C4DEF4" font-family="'HelveticaNeue'" font-size="26.54">C</text>
			
				<text transform="matrix(0.8013 -0.3593 0.4091 0.9125 38.4619 151.7441)" fill="#C4DEF4" font-family="'HelveticaNeue'" font-size="26.54">O</text>
			
				<text transform="matrix(0.8013 -0.3593 0.4091 0.9125 54.6245 144.498)" fill="#C4DEF4" font-family="'HelveticaNeue'" font-size="26.54">N</text>
			
				<text transform="matrix(0.8013 -0.3593 0.4091 0.9125 69.9907 137.6074)" fill="#C4DEF4" font-family="'HelveticaNeue'" font-size="26.54">T</text>
			
				<text transform="matrix(0.8013 -0.3593 0.4091 0.9125 82.1963 132.1348)" fill="#C4DEF4" font-family="'HelveticaNeue'" font-size="26.54">E</text>
			
				<text transform="matrix(0.8013 -0.3593 0.4091 0.9125 95.1992 126.3047)" fill="#C4DEF4" font-family="'HelveticaNeue'" font-size="26.54">N</text>
			
				<text transform="matrix(0.8013 -0.3593 0.4091 0.9125 110.5605 119.416)" fill="#C4DEF4" font-family="'HelveticaNeue'" font-size="26.54">T</text>
		</g>
	</g>
</g>
<path id="Title" fill="#F6F6F7" d="M-7.5,8.5h150.05v30H-7.5V8.5z"/>
<rect id="Divide" x="-7.5" y="38.38" fill="#D1D1D3" width="150" height="1"/>
<text transform="matrix(1 0 0 1 53.084 28.5)" fill="#333333" font-family="'HelveticaNeue'" font-size="14">Title</text>
</svg>
