<?xml version="1.0" encoding="utf-8"?>
<!DOCTYPE svg PUBLIC "-//W3C//DTD SVG 1.1//EN" "http://www.w3.org/Graphics/SVG/1.1/DTD/svg11.dtd">
<svg version="1.1" id="Film_Strip" xmlns="http://www.w3.org/2000/svg" xmlns:xlink="http://www.w3.org/1999/xlink" x="0px" y="0px"
	 width="150px" height="194px" viewBox="-14.5 15.5 150 194" enable-background="new -14.5 15.5 150 194" xml:space="preserve">
<rect id="Background_Panel" x="-14.5" y="14.5" fill="#FFFFFF" width="150" height="194"/>
<g id="Pagination_Controls">
	<g id="Selected">
		<circle fill="#0572CE" cx="49" cy="201.333" r="3"/>
		<path fill="#00569F" d="M49,198.833c1.378,0,2.5,1.121,2.5,2.5s-1.122,2.5-2.5,2.5s-2.5-1.121-2.5-2.5S47.622,198.833,49,198.833
			 M49,197.833c-1.93,0-3.5,1.57-3.5,3.5s1.57,3.5,3.5,3.5s3.5-1.57,3.5-3.5S50.93,197.833,49,197.833L49,197.833z"/>
	</g>
	<g id="Unselected">
		<circle fill="#FFFFFF" cx="60.89" cy="201.333" r="3"/>
		<path fill="#A4AFB4" d="M60.89,197.833c-1.93,0-3.5,1.57-3.5,3.5s1.57,3.5,3.5,3.5c1.93,0,3.5-1.57,3.5-3.5
			S62.82,197.833,60.89,197.833L60.89,197.833z M60.89,203.833c-1.38,0-2.5-1.12-2.5-2.5s1.12-2.5,2.5-2.5c1.379,0,2.5,1.12,2.5,2.5
			S62.269,203.833,60.89,203.833L60.89,203.833z"/>
	</g>
	<g id="Unselected_1_">
		<circle fill="#FFFFFF" cx="72.891" cy="201.333" r="3"/>
		<path fill="#A4AFB4" d="M72.891,197.833c-1.931,0-3.5,1.57-3.5,3.5s1.569,3.5,3.5,3.5c1.93,0,3.5-1.57,3.5-3.5
			S74.82,197.833,72.891,197.833L72.891,197.833z M72.891,203.833c-1.381,0-2.5-1.12-2.5-2.5s1.119-2.5,2.5-2.5
			c1.379,0,2.5,1.12,2.5,2.5S74.27,203.833,72.891,203.833L72.891,203.833z"/>
	</g>
</g>
</svg>
