<?xml version="1.0" encoding="utf-8"?>
<!DOCTYPE svg PUBLIC "-//W3C//DTD SVG 1.1//EN" "http://www.w3.org/Graphics/SVG/1.1/DTD/svg11.dtd">
<svg version="1.1" id="Filmstrip" xmlns="http://www.w3.org/2000/svg" xmlns:xlink="http://www.w3.org/1999/xlink" x="0px" y="0px"
	 width="150px" height="224px" viewBox="0 0 150 224" enable-background="new 0 0 150 224" xml:space="preserve">
<rect id="Background_Panel" fill-rule="evenodd" clip-rule="evenodd" fill="#FFFFFF" width="150" height="224"/>
<path id="Title" fill-rule="evenodd" clip-rule="evenodd" fill="#F6F6F7" d="M0,0h150.05v30H0V0z"/>
<rect id="Divide" y="29.88" fill-rule="evenodd" clip-rule="evenodd" fill="#F3F3F4" width="150" height="1"/>
<path id="Border" fill-rule="evenodd" clip-rule="evenodd" fill="#D6DFE6" d="M0-0.04h150.05V224H0V-0.04z M0.96,1.03h148v222h-148
	V1.03z"/>
<text transform="matrix(1 0 0 1 68.5835 24)" fill="#333333" font-family="'HelveticaNeue'" font-size="9">Title</text>
<g id="Springboard_Icon_1_">
	<g>
		<path fill-rule="evenodd" clip-rule="evenodd" fill="#0572CE" d="M13.97,24.01H5.04c-0.57,0-1.03,0.45-1.03,1s0.46,1,1.03,1h8.94
			c0.57,0,1.03-0.45,1.03-1S14.54,24.01,13.97,24.01z M13.97,20.01H5.04c-0.57,0-1.03,0.45-1.03,1s0.46,1,1.03,1h8.94
			c0.57,0,1.03-0.45,1.03-1S14.54,20.01,13.97,20.01z M5.04,18.01h8.94c0.57,0,1.03-0.45,1.03-1s-0.46-1-1.03-1H5.04
			c-0.57,0-1.03,0.45-1.03,1S4.47,18.01,5.04,18.01z"/>
	</g>
</g>
<g id="Pagination_Controls">
	<path id="Selected" fill-rule="evenodd" clip-rule="evenodd" fill="#0572CE" d="M62.5,210c1.93,0,3.5,1.57,3.5,3.5
		c0,1.93-1.57,3.5-3.5,3.5s-3.5-1.57-3.5-3.5C59,211.57,60.57,210,62.5,210z"/>
	<path id="Unselected" fill-rule="evenodd" clip-rule="evenodd" fill="#0572CE" d="M74.39,210c1.93,0,3.5,1.57,3.5,3.5
		c0,1.93-1.57,3.5-3.5,3.5c-1.93,0-3.5-1.57-3.5-3.5C70.89,211.57,72.46,210,74.39,210z M74.39,211c1.38,0,2.5,1.12,2.5,2.5
		s-1.12,2.5-2.5,2.5s-2.5-1.12-2.5-2.5S73.01,211,74.39,211z"/>
	<path id="Unselected_1_" fill-rule="evenodd" clip-rule="evenodd" fill="#0572CE" d="M86.39,210c1.93,0,3.5,1.57,3.5,3.5
		c0,1.93-1.57,3.5-3.5,3.5c-1.93,0-3.5-1.57-3.5-3.5C82.89,211.57,84.46,210,86.39,210z M86.39,211c1.38,0,2.5,1.12,2.5,2.5
		s-1.12,2.5-2.5,2.5s-2.5-1.12-2.5-2.5S85.01,211,86.39,211z"/>
</g>
</svg>
