<?xml version="1.0" encoding="utf-8"?>
<!DOCTYPE svg PUBLIC "-//W3C//DTD SVG 1.1//EN" "http://www.w3.org/Graphics/SVG/1.1/DTD/svg11.dtd">
<svg version="1.1" id="Flow_Layout" xmlns="http://www.w3.org/2000/svg" xmlns:xlink="http://www.w3.org/1999/xlink" x="0px"
	 y="0px" width="150px" height="224px" viewBox="0 0 150 224" enable-background="new 0 0 150 224" xml:space="preserve">
<rect id="Background_Panel" fill-rule="evenodd" clip-rule="evenodd" fill="#FFFFFF" width="150" height="224"/>
<g id="Bottom_Row">
	<g id="Square_3_1_" display="none">
		<rect id="Top_Horizontal_Bar_24_" x="100.96" y="82.96" display="inline" fill="#DAE9F5" width="44" height="44"/>
		<path display="inline" fill="#AED8FA" d="M144.96,126.96h-44v-44h44V126.96z M144.04,83.88h-42.17v42.17h42.17V83.88z"/>
	</g>
	<g id="Square_2_1_">
		<rect id="Top_Horizontal_Bar_20_" x="52.96" y="83.96" fill="#DAE9F5" width="44" height="44"/>
		<path fill="#AED8FA" d="M96.96,127.96h-44v-44h44V127.96z M96.04,84.88H53.88v42.17h42.17V84.88z"/>
	</g>
	<g id="Square_1_1_">
		<rect id="Top_Horizontal_Bar_30_" x="5" y="83.96" fill="#DAE9F5" width="44" height="44"/>
		<path fill="#AED8FA" d="M49,127.96H5v-44h44V127.96z M48.08,84.88H5.92v42.17h42.17V84.88z"/>
	</g>
</g>
<g id="Top_Row">
	<g id="Square_3_2_">
		<rect id="Top_Horizontal_Bar_5_" x="100.96" y="35.96" fill="#DAE9F5" width="44" height="44"/>
		<path fill="#AED8FA" d="M144.96,79.96h-44v-44h44V79.96z M144.04,36.88h-42.17v42.17h42.17V36.88z"/>
	</g>
	<g id="Square_2">
		<rect id="Top_Horizontal_Bar_21_" x="52.96" y="35.96" fill="#DAE9F5" width="44" height="44"/>
		<path fill="#AED8FA" d="M96.96,79.96h-44v-44h44V79.96z M96.04,36.88H53.88v42.17h42.17V36.88z"/>
	</g>
	<g id="Square_1">
		<rect id="Top_Horizontal_Bar_8_" x="5" y="35.96" fill="#DAE9F5" width="44" height="44"/>
		<path fill="#AED8FA" d="M49,79.96H5v-44h44V79.96z M48.08,36.88H5.92v42.17h42.17V36.88z"/>
	</g>
</g>
<path id="Title" fill-rule="evenodd" clip-rule="evenodd" fill="#F6F6F7" d="M0,0h150.05v30H0V0z"/>
<rect id="Divide" y="29.88" fill-rule="evenodd" clip-rule="evenodd" fill="#F3F3F4" width="150" height="1"/>
<text transform="matrix(1 0 0 1 68.5835 24)" fill="#333333" font-family="'HelveticaNeue'" font-size="9">Title</text>
<g id="Springboard_Icon_1_">
	<g>
		<path fill-rule="evenodd" clip-rule="evenodd" fill="#0572CE" d="M13.97,24.01H5.04c-0.57,0-1.03,0.45-1.03,1s0.46,1,1.03,1h8.94
			c0.57,0,1.03-0.45,1.03-1S14.54,24.01,13.97,24.01z M13.97,20.01H5.04c-0.57,0-1.03,0.45-1.03,1s0.46,1,1.03,1h8.94
			c0.57,0,1.03-0.45,1.03-1S14.54,20.01,13.97,20.01z M5.04,18.01h8.94c0.57,0,1.03-0.45,1.03-1s-0.46-1-1.03-1H5.04
			c-0.57,0-1.03,0.45-1.03,1S4.47,18.01,5.04,18.01z"/>
	</g>
</g>
<path id="Border" fill-rule="evenodd" clip-rule="evenodd" fill="#D6DFE6" d="M0-0.04h150.05V224H0V-0.04z M0.96,1.03h148v222h-148
	V1.03z"/>
</svg>
