<?xml version="1.0" encoding="utf-8"?>
<!DOCTYPE svg PUBLIC "-//W3C//DTD SVG 1.1//EN" "http://www.w3.org/Graphics/SVG/1.1/DTD/svg11.dtd">
<svg version="1.1" id="List_Items_Layout" xmlns="http://www.w3.org/2000/svg" xmlns:xlink="http://www.w3.org/1999/xlink" x="0px"
	 y="0px" width="150px" height="194px" viewBox="-5.5 20.5 150 194" enable-background="new -5.5 20.5 150 194"
	 xml:space="preserve">
<rect id="Background_Panel" x="-5.5" y="20.5" fill="#FFFFFF" width="150" height="194"/>
<rect id="Divide_2_" x="4.5" y="184.5" fill="#D5DFE5" width="140" height="1"/>
<rect id="Divide_4_" x="4.5" y="151.5" fill="#D5DFE5" width="140" height="1"/>
<rect id="Divide_3_" x="4.5" y="118.5" fill="#D5DFE5" width="140" height="1"/>
<rect id="Divide_1_" x="4.5" y="85.5" fill="#D5DFE5" width="140" height="1"/>
<rect id="Divide" x="4.5" y="52.5" fill="#D5DFE5" width="140" height="1"/>
<text transform="matrix(1 0 0 1 3.5 203.5)" font-family="'HelveticaNeue'" font-size="16">Item 6</text>
<text transform="matrix(1 0 0 1 3.5 173.5)" font-family="'HelveticaNeue'" font-size="16">Item 5</text>
<text transform="matrix(1 0 0 1 3.5 140.5)" font-family="'HelveticaNeue'" font-size="16">Item 4</text>
<text transform="matrix(1 0 0 1 3.5 107.5)" font-family="'HelveticaNeue'" font-size="16">Item 3</text>
<text transform="matrix(1 0 0 1 3.5 74.5)" font-family="'HelveticaNeue'" font-size="16">Item 2</text>
<text transform="matrix(1 0 0 1 3.5 41.5)" font-family="'HelveticaNeue'" font-size="16">Item 1</text>
</svg>
