<?xml version="1.0" encoding="utf-8"?>
<!DOCTYPE svg PUBLIC "-//W3C//DTD SVG 1.1//EN" "http://www.w3.org/Graphics/SVG/1.1/DTD/svg11.dtd">
<svg version="1.1" id="Tabs_Bottom_Layout" xmlns="http://www.w3.org/2000/svg" xmlns:xlink="http://www.w3.org/1999/xlink" x="0px"
	 y="0px" width="150px" height="224px" viewBox="0 0 150 224" enable-background="new 0 0 150 224" xml:space="preserve">
<rect id="Background_Panel" fill="#FFFFFF" width="150" height="224"/>
<g id="Nav_Bar">
	<rect id="Nav_Bar_1_" y="184.92" fill="#F6F6F7" width="150" height="39.08"/>
	<rect id="Divide_1_" y="183.88" fill="#D1D1D3" width="150" height="1"/>
</g>
<g id="Icons">
	<rect id="Thumbnail" x="117" y="190.02" fill="#FFFFFF" width="24" height="24"/>
	<path fill="#E2E2E5" d="M141,214.02h-24v-24h24V214.02z M140.221,190.8h-22.4v22.4h22.4V190.8z"/>
	<rect id="Thumbnail_14_" x="81.02" y="190.02" fill="#FFFFFF" width="24" height="24"/>
	<path fill="#E2E2E5" d="M105.02,214.02h-24v-24h24V214.02z M104.24,190.8h-22.4v22.4h22.4V190.8z"/>
	<rect id="Thumbnail_11_" x="45.02" y="190.02" fill="#FFFFFF" width="24" height="24"/>
	<path fill="#E2E2E5" d="M69.02,214.02h-24v-24h24V214.02z M68.24,190.8h-22.4v22.4h22.4V190.8z"/>
	<rect id="Thumbnail_8_" x="9.02" y="190.02" fill="#FFFFFF" width="24" height="24"/>
	<path fill="#E2E2E5" d="M33.02,214.02h-24v-24h24V214.02z M32.24,190.8H9.84v22.4h22.4V190.8z"/>
</g>
<g id="Icon_Labels">
	<text transform="matrix(1 0 0 1 120.584 221)" fill="#333333" font-family="'HelveticaNeue'" font-size="6">Icon 4</text>
	<text transform="matrix(1 0 0 1 84.584 221)" fill="#333333" font-family="'HelveticaNeue'" font-size="6">Icon 3</text>
	<text transform="matrix(1 0 0 1 48.584 221)" fill="#333333" font-family="'HelveticaNeue'" font-size="6">Icon 2</text>
	<text transform="matrix(1 0 0 1 12.584 221)" fill="#333333" font-family="'HelveticaNeue'" font-size="6">Icon 1</text>
</g>
<path id="Title" fill="#F6F6F7" d="M0,0h150.05v30H0V0z"/>
<rect id="Divide" y="29.88" fill="#D1D1D3" width="150" height="1"/>
<text transform="matrix(1 0 0 1 60.584 20)" fill="#333333" font-family="'HelveticaNeue'" font-size="14">Title</text>
</svg>
