<?xml version="1.0" encoding="utf-8"?>
<!DOCTYPE svg PUBLIC "-//W3C//DTD SVG 1.1//EN" "http://www.w3.org/Graphics/SVG/1.1/DTD/svg11.dtd">
<svg version="1.1" id="Summary_1_" xmlns="http://www.w3.org/2000/svg" xmlns:xlink="http://www.w3.org/1999/xlink" x="0px" y="0px"
	 width="150px" height="224px" viewBox="0 0 150 224" enable-background="new 0 0 150 224" xml:space="preserve">
<rect id="Background_Panel" fill-rule="evenodd" clip-rule="evenodd" fill="#FFFFFF" width="150" height="224"/>
<g id="Dashed_Line">
	<rect id="Divide_1_" x="60" y="51" fill-rule="evenodd" clip-rule="evenodd" width="6" height="1"/>
	<rect id="Divide_6_" x="48" y="51" fill-rule="evenodd" clip-rule="evenodd" width="6" height="1"/>
	<rect id="Divide_5_" x="36" y="51" fill-rule="evenodd" clip-rule="evenodd" width="6" height="1"/>
	<rect id="Divide_4_" x="24" y="51" fill-rule="evenodd" clip-rule="evenodd" width="6" height="1"/>
	<rect id="Divide_3_" x="12" y="51" fill-rule="evenodd" clip-rule="evenodd" width="6" height="1"/>
	<rect id="Divide_2_" y="51" fill-rule="evenodd" clip-rule="evenodd" width="6" height="1"/>
	<rect id="Divide_12_" x="132" y="51" fill-rule="evenodd" clip-rule="evenodd" width="6" height="1"/>
	<rect id="Divide_13_" x="144" y="51" fill-rule="evenodd" clip-rule="evenodd" width="6" height="1"/>
	<rect id="Divide_11_" x="120" y="51" fill-rule="evenodd" clip-rule="evenodd" width="6" height="1"/>
	<rect id="Divide_10_" x="108" y="51" fill-rule="evenodd" clip-rule="evenodd" width="6" height="1"/>
	<rect id="Divide_9_" x="96" y="51" fill-rule="evenodd" clip-rule="evenodd" width="6" height="1"/>
	<rect id="Divide_8_" x="84" y="51" fill-rule="evenodd" clip-rule="evenodd" width="6" height="1"/>
	<rect id="Divide_7_" x="72" y="51" fill-rule="evenodd" clip-rule="evenodd" width="6" height="1"/>
</g>
<text id="Summary" transform="matrix(1 0 0 1 61.5835 44)" fill="#333333" font-family="'HelveticaNeue'" font-size="7">Summary</text>
<path id="Title" fill-rule="evenodd" clip-rule="evenodd" fill="#F6F6F7" d="M0,0h150.05v30H0V0z"/>
<rect id="Divide" y="29.88" fill-rule="evenodd" clip-rule="evenodd" fill="#F3F3F4" width="150" height="1"/>
<path id="Border" fill-rule="evenodd" clip-rule="evenodd" fill="#D6DFE6" d="M0-0.04h150.05V224H0V-0.04z M0.96,1.03h148v222h-148
	V1.03z"/>
<text transform="matrix(1 0 0 1 68.5835 24)" fill="#333333" font-family="'HelveticaNeue'" font-size="9">Title</text>
<g id="Springboard_Icon_1_">
	<g>
		<path fill-rule="evenodd" clip-rule="evenodd" fill="#0572CE" d="M13.97,24.01H5.04c-0.57,0-1.03,0.45-1.03,1s0.46,1,1.03,1h8.94
			c0.57,0,1.03-0.45,1.03-1S14.54,24.01,13.97,24.01z M13.97,20.01H5.04c-0.57,0-1.03,0.45-1.03,1s0.46,1,1.03,1h8.94
			c0.57,0,1.03-0.45,1.03-1S14.54,20.01,13.97,20.01z M5.04,18.01h8.94c0.57,0,1.03-0.45,1.03-1s-0.46-1-1.03-1H5.04
			c-0.57,0-1.03,0.45-1.03,1S4.47,18.01,5.04,18.01z"/>
	</g>
</g>
</svg>
