<?xml version="1.0" encoding="utf-8"?>
<!DOCTYPE svg PUBLIC "-//W3C//DTD SVG 1.1//EN" "http://www.w3.org/Graphics/SVG/1.1/DTD/svg11.dtd">
<svg version="1.1" id="Tabs_Bottom_Layout" xmlns="http://www.w3.org/2000/svg" xmlns:xlink="http://www.w3.org/1999/xlink" x="0px"
	 y="0px" width="150px" height="224px" viewBox="-14.5 15.5 150 224" enable-background="new -14.5 15.5 150 224"
	 xml:space="preserve">
<rect id="Background_Panel" x="-14.5" y="15.5" fill="#FFFFFF" width="150" height="224"/>
<path id="Title" fill="#F6F6F7" d="M-14.5,15.5h150.05v30H-14.5V15.5z"/>
<rect id="Divide" x="-14.5" y="45.38" fill="#D1D1D3" width="150" height="1"/>
<text transform="matrix(1 0 0 1 46.084 35.5)" fill="#333333" font-family="'HelveticaNeue'" font-size="14">Title</text>
<path id="Footer" fill="#F6F6F7" d="M-14.5,209.62h150.05v30H-14.5V209.62z"/>
<rect id="Divide_2_" x="-14.5" y="208.5" fill="#D1D1D3" width="150" height="1"/>
<g id="Segmented_Control_1_">
	<path fill="none" stroke="#0572CE" stroke-width="1.0028" stroke-miterlimit="10" d="M-5.797,213.037h132.851
		c1.146,0,2.074,0.92,2.074,2.06v17.931c0,1.141-0.928,2.061-2.074,2.061H-5.797c-1.149,0-2.075-0.92-2.075-2.061v-17.931
		C-7.873,213.957-6.947,213.037-5.797,213.037z"/>
	<path fill="#0572CE" d="M-5.889,213.037h43.964v22.055H-5.889c-0.848,0-1.536-0.92-1.536-2.059v-17.927
		C-7.425,213.957-6.737,213.037-5.889,213.037z"/>
	
		<rect x="36.958" y="213.037" fill="#F6F6F7" stroke="#0572CE" stroke-width="1.0957" stroke-miterlimit="10" width="46" height="22.072"/>
	
		<text id="C_Enabled_1_" transform="matrix(1.0066 0 0 1 100.249 229.6309)" fill="#0572CE" font-family="'HelveticaNeue'" font-size="16">C</text>
	
		<text id="B_Enabled_1_" transform="matrix(1.0066 0 0 1 54.249 229.6309)" fill="#0572CE" font-family="'HelveticaNeue'" font-size="16">B</text>
	
		<text id="A_Selected_1_" transform="matrix(1.0066 0 0 1 8.79 229.6309)" fill="#FFFFFF" font-family="'HelveticaNeue'" font-size="16">A</text>
</g>
<g opacity="0.4">
	<path fill="#C4DEF4" d="M124.377,53.516h-5.483v1.828h5.483V53.516L124.377,53.516L124.377,53.516z M113.41,53.516h-5.483v1.828
		h5.483V53.516L113.41,53.516z M102.443,53.516H96.96v1.828h5.483V53.516L102.443,53.516z M91.477,53.516h-5.483v1.828h5.483V53.516
		L91.477,53.516z M80.51,53.516h-5.484v1.828h5.484V53.516L80.51,53.516z M69.542,53.516h-5.483v1.828h5.483V53.516L69.542,53.516z
		 M58.576,53.516h-5.483v1.828h5.483V53.516L58.576,53.516z M47.609,53.516h-5.483v1.828h5.483V53.516L47.609,53.516z
		 M36.642,53.516h-5.483v1.828h5.483V53.516L36.642,53.516z M25.675,53.516h-5.483v1.828h5.483V53.516L25.675,53.516z
		 M14.708,53.516H9.225v1.828h5.483V53.516L14.708,53.516z M3.741,53.516h-5.483v1.828h5.483V53.516L3.741,53.516z M-6.954,54.725
		c-0.753,0.61-1.28,1.411-1.469,2.309h0c0,0.004-0.001,0.009-0.002,0.013c0,0,0,0,0,0c0,0.002-0.001,0.004-0.001,0.006
		c0,0,0,0,0,0.001c0,0.002-0.001,0.004-0.001,0.006c0,0,0,0,0,0.001c0,0.002-0.001,0.003-0.001,0.005c0,0,0,0.001,0,0.001
		c0,0.002,0,0.004-0.001,0.006c0,0,0,0,0,0.001c0,0.002,0,0.004-0.001,0.006v0c0,0.002-0.001,0.004-0.001,0.006c0,0,0,0.001,0,0.001
		c0,0.002,0,0.004-0.001,0.006c0,0,0,0,0,0.001c0,0.002,0,0.004-0.001,0.006c0,0,0,0,0,0.001c0,0.002-0.001,0.003-0.001,0.005
		c0,0,0,0.001,0,0.001c0,0.001,0,0.003-0.001,0.005c0,0,0,0.001,0,0.001c0,0.001,0,0.003-0.001,0.005c0,0,0,0,0,0.001
		c0,0.002,0,0.004-0.001,0.005c0,0,0,0.001,0,0.001c0,0.001,0,0.003-0.001,0.005c0,0,0,0.001,0,0.001c0,0.001,0,0.003-0.001,0.005
		c0,0,0,0,0,0.001c0,0.002,0,0.004,0,0.006c0,0,0,0,0,0.001c0,0.002,0,0.003-0.001,0.005c0,0,0,0.001,0,0.001
		c0,0.001-0.001,0.003-0.001,0.005c0,0,0,0.001,0,0.001c0,0.001,0,0.003-0.001,0.005c0,0,0,0.001,0,0.002
		c0,0.001,0,0.003-0.001,0.005c0,0,0,0.001,0,0.001c0,0.002-0.001,0.003-0.001,0.005c0,0,0,0.001,0,0.001
		c0,0.001,0,0.003-0.001,0.005c0,0,0,0.001,0,0.001c0,0.001,0,0.003-0.001,0.005c0,0,0,0.001,0,0.002c0,0.001,0,0.003-0.001,0.005
		c0,0,0,0.001,0,0.001c0,0.002,0,0.003,0,0.005c0,0,0,0.001,0,0.001c0,0.002,0,0.003,0,0.005c0,0,0,0.001,0,0.002
		c0,0.001,0,0.003-0.001,0.005c0,0,0,0.001,0,0.002c0,0.001,0,0.003-0.001,0.005c0,0,0,0.001,0,0.001c0,0.002,0,0.004-0.001,0.005
		c0,0,0,0.001,0,0.001c0,0.002,0,0.004-0.001,0.005c0,0,0,0.001,0,0.001c0,0.002,0,0.003-0.001,0.005c0,0,0,0.001,0,0.001
		c0,0.002,0,0.003,0,0.005c0,0,0,0.001,0,0.001c0,0.001-0.001,0.003-0.001,0.005c0,0,0,0.001,0,0.002c0,0.001,0,0.003,0,0.005
		c0,0,0,0,0,0.001c0,0.002,0,0.004-0.001,0.005c0,0,0,0.001,0,0.001c0,0.002-0.001,0.004-0.001,0.006c0,0,0,0,0,0.001
		c0,0.002,0,0.004-0.001,0.006c0,0,0,0,0,0.001c0,0.002,0,0.004-0.001,0.006c0,0,0,0,0,0.001c0,0.002,0,0.004-0.001,0.006
		c0,0,0,0,0,0.001c0,0.004-0.001,0.008-0.001,0.013l0,0c-0.002,0.019-0.004,0.037-0.006,0.055l0,0c0,0.004-0.001,0.009-0.001,0.014
		c0,0,0,0.001,0,0.001c0,0.001,0,0.003-0.001,0.005c0,0,0,0,0,0.001c0,0.002,0,0.004,0,0.006c0,0,0,0.001,0,0.001
		c0,0.002,0,0.003,0,0.005c0,0,0,0.001,0,0.001c0,0.002,0,0.003,0,0.005c0,0.001,0,0.002,0,0.002c0,0.001,0,0.003,0,0.004
		c0,0.001,0,0.001,0,0.002c0,0.001,0,0.003,0,0.004c0,0.001,0,0.002,0,0.002c0,0.001,0,0.003,0,0.004c0,0.001,0,0.002,0,0.003
		c0,0.001,0,0.002,0,0.004c0,0.001,0,0.002,0,0.002c0,0.001,0,0.003,0,0.004c0,0.001,0,0.001,0,0.002c0,0.001,0,0.003,0,0.004
		c0,0.001,0,0.002,0,0.002c0,0.001,0,0.003,0,0.004c0,0.001,0,0.002,0,0.003c0,0.001,0,0.002,0,0.004c0,0.001,0,0.002,0,0.003
		c0,0.001,0,0.002,0,0.004c0,0.001,0,0.002,0,0.003s0,0.002,0,0.004c0,0.001,0,0.002,0,0.003s0,0.002,0,0.004
		c0,0.001,0,0.002,0,0.003s0,0.002,0,0.004c0,0.001,0,0.002,0,0.003c0,0.001,0,0.002,0,0.004c0,0.001,0,0.002,0,0.003
		c0,0.001,0,0.002,0,0.004c0,0.001,0,0.002,0,0.003c0,0.001,0,0.002,0,0.004c0,0.001,0,0.002,0,0.003c0,0.001,0,0.002,0,0.004
		c0,0.001,0,0.002,0,0.003c0,0.001,0,0.002,0,0.004c0,0.001,0,0.002,0,0.003c0,0.001,0,0.002,0,0.004c0,0.001,0,0.002,0,0.003
		c0,0.001,0,0.002,0,0.004c0,0.001,0,0.002,0,0.003c0,0.001,0,0.002,0,0.003c0,0.001,0,0.002,0,0.003c0,0.001,0,0.002,0,0.003
		c0,0.001,0,0.002,0,0.003c0,0.001,0,0.002,0,0.004c0,0.001,0,0.002,0,0.003c0,0.001,0,0.002,0,0.003c0,0.001,0,0.002,0,0.003
		c0,0.001,0,0.002,0,0.003s0,0.002,0,0.003c0,0.001,0,0.002,0,0.003c0,0.001,0,0.002,0,0.003c0,0.001,0,0.002,0,0.003
		c0,0.001,0,0.002,0,0.003s0,0.002,0,0.003c0,0.001,0,0.002,0,0.003c0,0.001,0,0.002,0,0.003s0,0.002,0,0.003
		c0,0.001,0,0.002,0,0.003c0,0.001,0,0.002,0,0.003c0,0.001,0,0.002,0,0.003s0,0.002,0,0.004c0,0.001,0,0.002,0,0.003
		c0,0.001,0,0.002,0,0.004c0,0.001,0,0.002,0,0.003c0,0.001,0,0.002,0,0.004c0,0.001,0,0.002,0,0.003c0,0.001,0,0.002,0,0.004
		c0,0.001,0,0.002,0,0.003c0,0.001,0,0.002,0,0.004c0,0.001,0,0.002,0,0.003c0,0.001,0,0.002,0,0.003c0,0.001,0,0.002,0,0.003
		s0,0.002,0,0.003c0,0.001,0,0.002,0,0.003c0,0.001,0,0.002,0,0.003c0,0.001,0,0.002,0,0.003c0,0.001,0,0.002,0,0.003
		c0,0.001,0,0.002,0,0.004c0,0.001,0,0.002,0,0.003c0,0.001,0,0.002,0,0.003c0,0.001,0,0.002,0,0.003s0,0.002,0,0.003
		c0,0.001,0,0.002,0,0.003c0,0.001,0,0.002,0,0.003c0,0.001,0,0.002,0,0.003s0,0.002,0,0.003c0,0.001,0,0.002,0,0.003
		c0,0.001,0,0.002,0,0.003c0,0.001,0,0.002,0,0.003c0,0.001,0,0.002,0,0.004c0,0.001,0,0.002,0,0.003c0,0.001,0,0.002,0,0.003
		s0,0.002,0,0.003c0,0.001,0,0.002,0,0.003s0,0.002,0,0.003s0,0.002,0,0.003c0,0.001,0,0.002,0,0.003c0,0.001,0,0.002,0,0.004
		c0,0.001,0,0.002,0,0.003c0,0.001,0,0.003,0,0.004s0,0.002,0,0.003c0,0.001,0,0.002,0,0.003c0,0.001,0,0.002,0,0.003
		c0,0.002,0,0.004,0,0.007l0,0v1.948h1.828v-1.948c0-0.803,0.545-1.365,0.87-1.628L-6.954,54.725L-6.954,54.725z M-6.672,65.205
		H-8.5v5.484h1.828V65.205L-6.672,65.205z M-6.672,76.172H-8.5v5.483h1.828V76.172L-6.672,76.172z M-6.672,87.139H-8.5v5.483h1.828
		V87.139L-6.672,87.139z M-6.672,98.105H-8.5v5.483h1.828V98.105L-6.672,98.105z M-6.672,109.072H-8.5v5.483h1.828V109.072
		L-6.672,109.072z M-6.672,120.039H-8.5v5.483h1.828V120.039L-6.672,120.039z M-6.672,131.006H-8.5v5.483h1.828V131.006
		L-6.672,131.006z M-6.672,141.973H-8.5v5.483h1.828V141.973L-6.672,141.973z M-6.672,152.94H-8.5v5.483h1.828V152.94L-6.672,152.94
		z M-6.672,163.907H-8.5v5.483h1.828V163.907L-6.672,163.907z M-6.672,174.874H-8.5v5.483h1.828V174.874L-6.672,174.874z
		 M-6.672,185.841H-8.5v5.483h1.828V185.841L-6.672,185.841z M-6.652,196.527l-1.806,0.278c0,0.001,0,0.001,0,0.002s0,0.001,0,0.001
		c0,0.002,0,0.004,0,0.006l0,0.001c0,0.002,0,0.004,0.001,0.006c0,0,0,0,0,0.001c0,0.002,0,0.004,0.001,0.005
		c0,0.001,0,0.001,0,0.002c0,0.004,0.001,0.008,0.002,0.013l0,0c0,0.002,0.001,0.004,0.001,0.006l0,0.001
		c0,0.002,0,0.004,0.001,0.006l0,0c0,0.005,0.001,0.009,0.002,0.013c0,0.001,0,0.001,0,0.001c0,0.002,0,0.004,0.001,0.006v0.001
		c0,0.004,0.001,0.008,0.002,0.013c0,0,0,0,0,0.001c0,0.002,0,0.004,0.001,0.005c0,0.001,0,0.001,0,0.001
		c0.001,0.004,0.001,0.009,0.002,0.013v0.001c0,0.002,0.001,0.004,0.001,0.006c0,0,0,0,0,0c0,0.005,0.001,0.009,0.002,0.014h0
		c0,0.002,0,0.004,0.001,0.006v0.001c0.001,0.004,0.002,0.009,0.002,0.013l0,0c0,0.002,0.001,0.004,0.001,0.006
		c0,0.001,0,0.001,0,0.001c0.001,0.006,0.002,0.013,0.004,0.02l0,0c0.001,0.007,0.002,0.013,0.004,0.02l0,0
		c0.001,0.007,0.003,0.013,0.004,0.02c0,0,0,0,0,0.001c0.001,0.006,0.003,0.013,0.004,0.019l0,0
		c0.004,0.021,0.009,0.039,0.013,0.059c0,0.001,0,0,0,0c0.002,0.009,0.004,0.018,0.006,0.026l0,0
		c0.161,0.653,0.502,1.253,0.979,1.76c0,0,0,0,0,0c0.005,0.005,0.009,0.01,0.014,0.015l0,0c0.001,0.002,0.003,0.004,0.004,0.005
		c0,0,0,0,0,0.001c0.003,0.003,0.006,0.006,0.009,0.01c0,0,0,0,0,0c0.001,0.002,0.003,0.003,0.004,0.005l0,0
		c0.003,0.003,0.006,0.007,0.01,0.01l0,0c0.001,0.002,0.003,0.003,0.004,0.005h0c0.003,0.004,0.006,0.007,0.009,0.01
		c0,0,0,0,0,0.001c0.001,0.001,0.003,0.003,0.004,0.004c0,0,0,0,0,0.001c0.004,0.004,0.009,0.009,0.014,0.014
		c0,0.001,0,0.001,0,0.001c0.001,0.002,0.003,0.003,0.004,0.005l0,0c0.001,0.001,0.003,0.003,0.005,0.005h0
		c0.001,0.002,0.003,0.003,0.004,0.004c0,0.001,0.001,0.001,0.001,0.001c0.001,0.002,0.003,0.003,0.004,0.005l0,0
		c0.002,0.002,0.003,0.003,0.005,0.005c0,0,0,0,0,0c0.001,0.001,0.003,0.003,0.004,0.004c0,0.001,0.001,0.001,0.001,0.001
		c0.001,0.002,0.002,0.003,0.004,0.005c0,0,0,0,0,0c0.001,0.002,0.003,0.003,0.005,0.005l0,0c0.001,0.001,0.003,0.003,0.004,0.005
		c0,0,0,0,0.001,0c0.001,0.002,0.002,0.003,0.004,0.004c0,0.001,0,0.001,0,0.001c0.003,0.003,0.006,0.006,0.01,0.01h0
		c0.001,0.002,0.003,0.003,0.004,0.005h0c0.003,0.003,0.006,0.006,0.009,0.009c0,0.001,0,0.001,0.001,0.001
		c0.001,0.002,0.003,0.003,0.004,0.004c0,0.001,0,0.001,0.001,0.001c0.003,0.003,0.006,0.006,0.009,0.009
		c0,0.001,0.001,0.001,0.001,0.001c0.001,0.002,0.002,0.003,0.004,0.004c0,0,0,0.001,0.001,0.001
		c0.003,0.003,0.006,0.006,0.01,0.009v0.001c0.002,0.001,0.003,0.003,0.004,0.004c0,0,0,0,0.001,0.001
		c0.001,0.001,0.003,0.003,0.005,0.004c0,0,0,0,0,0c0.001,0.002,0.003,0.003,0.005,0.005l0,0.001
		c0.001,0.001,0.002,0.002,0.004,0.003c0,0.001,0.001,0.001,0.001,0.002c0.001,0.001,0.002,0.002,0.003,0.003
		c0,0.001,0.001,0.001,0.001,0.001c0.001,0.002,0.003,0.003,0.005,0.005c0,0,0,0,0.001,0c0.001,0.002,0.002,0.003,0.004,0.004
		c0,0,0,0.001,0.001,0.001c0.001,0.001,0.002,0.003,0.004,0.004c0,0,0,0.001,0.001,0.001c0.001,0.001,0.003,0.003,0.004,0.004
		c0,0.001,0.001,0.001,0.001,0.002c0.001,0,0.002,0.002,0.003,0.003c0,0,0.001,0.001,0.001,0.001
		c0.001,0.001,0.002,0.002,0.003,0.003s0.001,0.001,0.002,0.002c0.001,0.001,0.003,0.002,0.004,0.004c0,0,0.001,0.001,0.001,0.001
		c0.001,0.001,0.002,0.002,0.003,0.003c0,0.001,0.001,0.001,0.002,0.002c0.001,0.001,0.002,0.002,0.003,0.003
		c0,0,0.001,0.001,0.002,0.001c0.001,0.001,0.002,0.003,0.004,0.004c0,0.001,0.001,0.001,0.002,0.002
		c0.001,0.001,0.002,0.002,0.003,0.003c0,0,0.001,0.001,0.002,0.001c0.001,0.001,0.002,0.002,0.002,0.003
		c0.001,0.001,0.002,0.001,0.002,0.002c0.001,0.001,0.002,0.002,0.002,0.002c0.001,0.001,0.003,0.003,0.004,0.004
		c0.001,0,0.001,0.001,0.002,0.002c0,0.001,0.001,0.001,0.002,0.002c0,0.001,0.001,0.002,0.002,0.002
		c0,0.001,0.001,0.002,0.002,0.002c0.001,0.001,0.002,0.002,0.003,0.003s0.002,0.002,0.003,0.003s0.002,0.002,0.002,0.002
		c0.001,0.001,0.001,0.002,0.002,0.002c0.001,0.001,0.001,0.002,0.002,0.003c0.001,0,0.001,0.001,0.002,0.002
		c0,0.001,0.001,0.001,0.002,0.002s0.002,0.002,0.003,0.003c0,0.001,0.002,0.002,0.003,0.003c0,0,0.001,0.001,0.002,0.002
		c0.001,0.001,0.002,0.001,0.003,0.002c0,0.001,0.001,0.001,0.002,0.002c0.001,0.001,0.001,0.002,0.002,0.002
		c0.001,0.001,0.002,0.002,0.004,0.004c0.001,0,0.001,0.001,0.002,0.002s0.002,0.002,0.003,0.002c0,0.001,0.001,0.002,0.001,0.002
		c0.001,0.001,0.002,0.002,0.003,0.003c0,0,0,0,0.001,0.001c0.003,0.003,0.007,0.006,0.01,0.009c0,0,0.001,0.001,0.001,0.001
		c0.001,0.001,0.002,0.002,0.003,0.003c0,0,0,0.001,0.001,0.001c0.003,0.003,0.007,0.006,0.01,0.009
		c0,0.001,0.001,0.001,0.001,0.001c0.001,0.001,0.002,0.002,0.003,0.003c0,0,0,0.001,0.001,0.001
		c0.003,0.003,0.007,0.006,0.01,0.009c0,0.001,0.001,0.001,0.001,0.002c0.001,0,0.002,0.001,0.003,0.002
		c0,0.001,0,0.001,0.001,0.001c0.004,0.004,0.007,0.007,0.011,0.01h0c0.001,0.001,0.002,0.003,0.004,0.004c0,0,0,0,0,0
		c0.004,0.003,0.008,0.007,0.012,0.01l0,0c0.001,0.002,0.003,0.003,0.004,0.004c0,0,0,0,0,0c0.005,0.005,0.011,0.009,0.016,0.014h0
		c0.005,0.004,0.011,0.009,0.016,0.014c0,0,0,0,0,0c0.618,0.505,1.39,0.881,2.251,1.074l0.401-1.783
		C-5.567,198.304-6.505,197.477-6.652,196.527L-6.652,196.527z M6.239,198.688H0.755v1.828h5.483V198.688L6.239,198.688z
		 M17.206,198.688h-5.483v1.828h5.483V198.688L17.206,198.688z M28.172,198.688h-5.483v1.828h5.483V198.688L28.172,198.688z
		 M39.139,198.688h-5.483v1.828h5.483V198.688L39.139,198.688z M50.106,198.688h-5.483v1.828h5.483V198.688L50.106,198.688z
		 M61.073,198.688H55.59v1.828h5.483V198.688L61.073,198.688z M72.04,198.688h-5.483v1.828h5.483V198.688L72.04,198.688z
		 M83.007,198.688h-5.483v1.828h5.483V198.688L83.007,198.688z M93.974,198.688H88.49v1.828h5.483V198.688L93.974,198.688z
		 M104.94,198.688h-5.483v1.828h5.483V198.688L104.94,198.688z M115.907,198.688h-5.483v1.828h5.483V198.688L115.907,198.688z
		 M126.057,198.34c-0.508,0.228-1.088,0.348-1.68,0.348h-2.986v1.828h2.986c0.003,0,0.006,0,0.01,0c0.001,0,0.001,0,0.003,0
		s0.004,0,0.006,0s0.003,0,0.004,0c0.002,0,0.004,0,0.007,0c0,0,0.002,0,0.003,0c0.002,0,0.005,0,0.008,0h0.001
		c0.003,0,0.007,0,0.01,0c0.001,0,0.002,0,0.003,0c0.002,0,0.004,0,0.007,0c0.001,0,0.002,0,0.003,0c0.002,0,0.004,0,0.006,0
		s0.003,0,0.004,0c0.002,0,0.005,0,0.007-0.001c0.001,0,0.002,0,0.002,0c0.004,0,0.007,0,0.01,0c0.001,0,0.002,0,0.003,0
		c0.002,0,0.004,0,0.007,0c0.001,0,0.002,0,0.003,0c0.002,0,0.004,0,0.006,0s0.003,0,0.004,0c0.002,0,0.005,0,0.007,0
		c0.001,0,0.002,0,0.003,0c0.003,0,0.006,0,0.009,0c0.001,0,0.002,0,0.003,0c0.002-0.001,0.004-0.001,0.007-0.001
		c0.001,0,0.002,0,0.003,0c0.002,0,0.004,0,0.006,0c0.001,0,0.003,0,0.004,0c0.002,0,0.004,0,0.006,0c0.001,0,0.003,0,0.004,0
		c0.003,0,0.006,0,0.009,0c0.001,0,0.002-0.001,0.003-0.001c0.002,0,0.004,0,0.006,0s0.003,0,0.004,0c0.002,0,0.004,0,0.006,0
		c0.001,0,0.003,0,0.004,0c0.002,0,0.004,0,0.006,0c0.001,0,0.002,0,0.004,0c0.003-0.001,0.006-0.001,0.009-0.001
		c0.001,0,0.001,0,0.002,0c0.003,0,0.005,0,0.007,0s0.003,0,0.004,0c0.002,0,0.004,0,0.006,0c0.001,0,0.003-0.001,0.004-0.001
		c0.002,0,0.004,0,0.006,0c0.001,0,0.002,0,0.003,0c0.003,0,0.006,0,0.009,0c0.001,0,0.002,0,0.003,0
		c0.002-0.001,0.005-0.001,0.007-0.001c0.001,0,0.002,0,0.004,0s0.004,0,0.006,0c0.001,0,0.002,0,0.004,0
		c0.001,0,0.003,0,0.005-0.001c0.002,0,0.003,0,0.004,0c0.003,0,0.005,0,0.008,0c0.001,0,0.002,0,0.003,0
		c0.003,0,0.005,0,0.008-0.001c0.001,0,0.002,0,0.004,0s0.003,0,0.005,0s0.003,0,0.004,0c0.002,0,0.004,0,0.006-0.001
		c0.001,0,0.003,0,0.004,0c0.002,0,0.004,0,0.006,0s0.004,0,0.006,0c0.002-0.001,0.004-0.001,0.006-0.001s0.003,0,0.005,0
		c0.001,0,0.003,0,0.005,0c0.001,0,0.003,0,0.004-0.001c0.002,0,0.003,0,0.005,0s0.003,0,0.005,0c0.001,0,0.003,0,0.005,0
		c0.002-0.001,0.003-0.001,0.005-0.001s0.005,0,0.008,0c0.001,0,0.003,0,0.004,0c0.002-0.001,0.003-0.001,0.005-0.001
		s0.003,0,0.005,0c0.001,0,0.003,0,0.005,0c0.001-0.001,0.003-0.001,0.004-0.001c0.002,0,0.004,0,0.005,0c0.002,0,0.003,0,0.004,0
		c0.003-0.001,0.006-0.001,0.009-0.001c0.002,0,0.003,0,0.005,0c0.001,0,0.003,0,0.004-0.001c0.002,0,0.003,0,0.005,0
		s0.003,0,0.005,0c0.001,0,0.003,0,0.005-0.001c0.001,0,0.003,0,0.004,0c0.002,0,0.003,0,0.005,0s0.005-0.001,0.008-0.001
		c0.001,0,0.003,0,0.005,0s0.003,0,0.005-0.001c0.001,0,0.003,0,0.005,0c0.001,0,0.002,0,0.004,0s0.003-0.001,0.005-0.001
		c0.001,0,0.003,0,0.004,0c0.002,0,0.004,0,0.005,0c0.002-0.001,0.004-0.001,0.005-0.001c0.003,0,0.006,0,0.008-0.001
		c0.002,0,0.003,0,0.005,0s0.003,0,0.005,0c0.001,0,0.003-0.001,0.004-0.001c0.002,0,0.004,0,0.005,0c0.002,0,0.003,0,0.004,0
		c0.002-0.001,0.004-0.001,0.006-0.001c0.001,0,0.002,0,0.003,0c0.004-0.001,0.007-0.001,0.01-0.001c0.001,0,0.003,0,0.004,0
		c0.002-0.001,0.004-0.001,0.005-0.001c0.002,0,0.003,0,0.004,0c0.002,0,0.004-0.001,0.006-0.001c0.001,0,0.002,0,0.003,0
		c0.002,0,0.004,0,0.006-0.001c0.001,0,0.001,0,0.002,0c0.004,0,0.009-0.001,0.013-0.001c0.001,0,0.001,0,0.002,0
		c0.002,0,0.004-0.001,0.006-0.001c0.001,0,0.002,0,0.003,0c0.002,0,0.004-0.001,0.006-0.001c0.001,0,0.002,0,0.002,0
		c0.003,0,0.005,0,0.007-0.001h0.001c0.008,0,0.015-0.001,0.022-0.002h0.001c0.003,0,0.005-0.001,0.007-0.001
		c0.001,0,0.002,0,0.002,0c0.003,0,0.005-0.001,0.007-0.001h0.001c0.007-0.001,0.015-0.002,0.022-0.002
		c0-0.001,0.001-0.001,0.001-0.001c0.003,0,0.005,0,0.007,0c0.001,0,0.001-0.001,0.002-0.001c0.002,0,0.005,0,0.007,0h0.001
		c0.01-0.002,0.021-0.003,0.031-0.004l0,0c0.014-0.002,0.026-0.003,0.039-0.005c0.001,0,0.001,0,0.001,0
		c0.003-0.001,0.005-0.001,0.008-0.001l0,0c0.011-0.002,0.021-0.003,0.031-0.004c0,0,0,0,0.001,0
		c0.013-0.002,0.025-0.004,0.039-0.006l0,0c0.562-0.078,1.092-0.231,1.575-0.448L126.057,198.34L126.057,198.34z M129.5,190.178
		h-1.828v5.483h1.828V190.178L129.5,190.178z M129.5,179.211h-1.828v5.483h1.828V179.211L129.5,179.211z M129.5,168.244h-1.828
		v5.483h1.828V168.244L129.5,168.244z M129.5,157.277h-1.828v5.483h1.828V157.277L129.5,157.277z M129.5,146.311h-1.828v5.483h1.828
		V146.311L129.5,146.311z M129.5,135.344h-1.828v5.483h1.828V135.344L129.5,135.344z M129.5,124.377h-1.828v5.483h1.828V124.377
		L129.5,124.377z M129.5,113.409h-1.828v5.483h1.828V113.409L129.5,113.409z M129.5,102.443h-1.828v5.483h1.828V102.443
		L129.5,102.443z M129.5,91.476h-1.828v5.484h1.828V91.476L129.5,91.476z M129.5,80.509h-1.828v5.483h1.828V80.509L129.5,80.509z
		 M129.5,69.542h-1.828v5.483h1.828V69.542L129.5,69.542z M129.5,58.575h-1.828v5.483h1.828V58.575L129.5,58.575z M124.377,53.516
		v1.828c0.643,0,1.266,0.141,1.804,0.406l0.809-1.639c-0.478-0.236-1.006-0.409-1.568-0.506l0,0
		c-0.011-0.001-0.021-0.003-0.031-0.005l0,0c-0.011-0.001-0.021-0.003-0.031-0.005h-0.001c-0.007-0.001-0.014-0.002-0.021-0.003l0,0
		c-0.004,0-0.007-0.001-0.011-0.002l0,0c-0.007-0.001-0.015-0.002-0.021-0.003l0,0c-0.003,0-0.007-0.001-0.01-0.002
		c-0.001,0-0.001,0-0.001,0c-0.007-0.001-0.014-0.002-0.021-0.003h-0.001c-0.003,0-0.007-0.001-0.01-0.001c-0.001,0,0,0,0,0
		c-0.008-0.001-0.015-0.002-0.021-0.003c0,0,0,0-0.001,0c-0.01-0.001-0.021-0.003-0.031-0.004c0,0,0,0-0.001,0
		c-0.01-0.001-0.021-0.002-0.03-0.004c-0.001,0-0.001,0-0.001,0c-0.011-0.001-0.021-0.003-0.031-0.004c0,0-0.001,0-0.002,0
		c-0.007-0.001-0.014-0.001-0.021-0.002l0,0c-0.004,0-0.007-0.001-0.01-0.001c-0.001,0-0.001,0-0.001,0
		c-0.007-0.001-0.014-0.001-0.021-0.002c0,0,0,0-0.001,0c-0.003,0-0.006-0.001-0.009-0.001c-0.001,0-0.001,0-0.002,0
		c-0.007,0-0.014-0.001-0.02-0.002c-0.001,0-0.002,0-0.002,0c-0.003,0-0.006,0-0.009-0.001c-0.001,0-0.001,0-0.002,0
		c-0.007-0.001-0.014-0.001-0.021-0.002h-0.001c-0.003,0-0.006,0-0.009-0.001c-0.001,0-0.001,0-0.002,0
		c-0.007,0-0.014-0.001-0.021-0.002c0,0-0.001,0-0.002,0c-0.003,0-0.006,0-0.009-0.001c0,0,0,0-0.001,0c-0.003,0-0.007,0-0.01-0.001
		c-0.001,0-0.001,0-0.001,0c-0.003,0-0.007,0-0.01-0.001c-0.001,0-0.001,0-0.002,0c-0.003,0-0.006,0-0.009-0.001
		c-0.001,0-0.001,0-0.001,0c-0.004,0-0.007,0-0.011-0.001c0,0,0,0-0.001,0c-0.003,0-0.006,0-0.009-0.001c-0.001,0-0.002,0-0.002,0
		c-0.007,0-0.014-0.001-0.021-0.002h-0.001c-0.004,0-0.007,0-0.01-0.001h-0.001c-0.007,0-0.014-0.001-0.021-0.001
		c-0.001,0-0.001,0-0.002,0c-0.003,0-0.006,0-0.009,0c-0.001,0-0.001,0-0.002,0c-0.007,0-0.014-0.001-0.021-0.002
		c0,0-0.001,0-0.002,0c-0.003,0-0.006,0-0.008,0c-0.001,0-0.002,0-0.002,0c-0.007,0-0.014-0.001-0.021-0.001
		c-0.001,0-0.002,0-0.002,0c-0.003,0-0.006,0-0.009,0c-0.001,0-0.001,0-0.002,0c-0.003,0-0.007,0-0.01-0.001c-0.001,0,0,0-0.001,0
		c-0.003,0-0.006,0-0.01,0c0,0-0.001,0-0.002,0c-0.003,0-0.006,0-0.009,0h-0.001c-0.004,0-0.007,0-0.011-0.001h-0.001
		c-0.003,0-0.006,0-0.009,0c-0.001,0-0.002,0-0.003,0c-0.003,0-0.005,0-0.008,0c-0.001,0-0.002,0-0.002,0
		c-0.004,0-0.007,0-0.01-0.001c-0.001,0-0.002,0-0.003,0c-0.002,0-0.005,0-0.008,0c-0.001,0-0.002,0-0.003,0
		c-0.002,0-0.005,0-0.008,0c-0.001,0-0.001,0-0.002,0c-0.003,0-0.007,0-0.01,0c-0.001,0-0.002,0-0.002,0c-0.003,0-0.006,0-0.009,0
		c0,0-0.001,0-0.002,0c-0.003,0-0.006,0-0.01,0l0,0c-0.004,0-0.007,0-0.011,0c-0.001,0-0.002,0-0.002,0c-0.003,0-0.006,0-0.008,0
		c-0.001,0-0.002,0-0.003,0c-0.003,0-0.007,0-0.01,0l0,0c-0.004,0-0.007,0-0.011,0c-0.001,0-0.001,0-0.002,0
		c-0.003,0-0.005,0-0.008,0c-0.001,0-0.002,0-0.003,0c-0.003,0-0.007,0-0.01,0h-0.001c-0.003,0-0.006,0-0.009,0
		c-0.001,0-0.002,0-0.003,0c-0.003,0-0.005,0-0.008,0c-0.001,0-0.002,0-0.003,0c-0.003,0-0.006,0-0.01,0c-0.001,0-0.001,0-0.002,0
		c-0.003,0-0.005,0-0.008,0c-0.001,0-0.002,0-0.004,0s-0.004,0-0.007,0c-0.001,0-0.002,0-0.003,0c-0.003,0-0.006,0-0.01,0
		c0,0-0.001,0-0.002,0c-0.003,0-0.005,0-0.008,0c-0.001,0-0.002,0-0.003,0c-0.003,0-0.006,0-0.008,0c-0.001,0-0.002,0-0.003,0
		c-0.003,0-0.006,0-0.01,0c-0.001,0-0.001,0-0.002,0c-0.003,0-0.006,0-0.008,0c-0.001,0-0.002,0-0.003,0c-0.003,0-0.006,0-0.009,0
		c0,0-0.001,0-0.002,0c-0.003,0-0.006,0-0.01,0c-0.001,0-0.002,0-0.003,0c-0.002,0-0.005,0-0.007,0c-0.001,0-0.002,0-0.003,0
		c-0.003,0-0.006,0-0.009,0c-0.001,0-0.001,0-0.002,0c-0.003,0-0.007,0-0.01,0c-0.001,0-0.002,0-0.003,0c-0.002,0-0.005,0-0.007,0
		c-0.001,0-0.003,0-0.004,0c-0.003,0-0.006,0-0.009,0h-0.001c-0.003,0-0.007,0-0.01,0c-0.001,0-0.002,0-0.003,0
		c-0.003,0-0.005,0-0.008,0c-0.001,0-0.002,0-0.003,0C124.384,53.516,124.38,53.516,124.377,53.516L124.377,53.516L124.377,53.516z"
		/>
</g>
<line fill="none" x1="14.186" y1="151.499" x2="127.186" y2="100.833"/>
<g opacity="0.4">
	
		<text transform="matrix(0.8013 -0.3593 0.4091 0.9125 16.1187 150.6309)" fill="#C4DEF4" font-family="'HelveticaNeue'" font-size="26.54">C</text>
	
		<text transform="matrix(0.8013 -0.3593 0.4091 0.9125 31.4819 143.7441)" fill="#C4DEF4" font-family="'HelveticaNeue'" font-size="26.54">O</text>
	
		<text transform="matrix(0.8013 -0.3593 0.4091 0.9125 47.6445 136.498)" fill="#C4DEF4" font-family="'HelveticaNeue'" font-size="26.54">N</text>
	
		<text transform="matrix(0.8013 -0.3593 0.4091 0.9125 63.0107 129.6074)" fill="#C4DEF4" font-family="'HelveticaNeue'" font-size="26.54">T</text>
	
		<text transform="matrix(0.8013 -0.3593 0.4091 0.9125 75.2163 124.1348)" fill="#C4DEF4" font-family="'HelveticaNeue'" font-size="26.54">E</text>
	
		<text transform="matrix(0.8013 -0.3593 0.4091 0.9125 88.2188 118.3047)" fill="#C4DEF4" font-family="'HelveticaNeue'" font-size="26.54">N</text>
	
		<text transform="matrix(0.8013 -0.3593 0.4091 0.9125 103.5801 111.416)" fill="#C4DEF4" font-family="'HelveticaNeue'" font-size="26.54">T</text>
</g>
</svg>
