<?xml version="1.0" encoding="utf-8"?>
<!DOCTYPE svg PUBLIC "-//W3C//DTD SVG 1.1//EN" "http://www.w3.org/Graphics/SVG/1.1/DTD/svg11.dtd">
<svg version="1.1" id="Tabs_Header_Layout" xmlns="http://www.w3.org/2000/svg" xmlns:xlink="http://www.w3.org/1999/xlink" x="0px"
	 y="0px" width="150px" height="224px" viewBox="0 0 150 224" enable-background="new 0 0 150 224" xml:space="preserve">
<rect id="Background_Panel" fill="#FFFFFF" width="150" height="224"/>
<path id="Title" fill="#F6F6F7" d="M0,0h150.05v30H0V0z"/>
<rect id="Divide" y="29.88" fill="#D1D1D3" width="150" height="1"/>
<g id="Segmented_Control">
	<path fill="none" stroke="#0572CE" stroke-width="1.0028" stroke-miterlimit="10" d="M8.119,4h133.852
		c1.148,0,2.074,0.92,2.074,2.06V23.99c0,1.141-0.926,2.061-2.074,2.061H8.119c-1.147,0-2.074-0.92-2.074-2.061V6.06
		C6.045,4.92,6.971,4,8.119,4z"/>
	<path fill="#0572CE" d="M7.511,4h43.481v22.055H7.511c-0.838,0-1.519-0.92-1.519-2.059V6.069C5.992,4.92,6.673,4,7.511,4z"/>
	
		<rect x="49.875" y="4" fill="#F6F6F7" stroke="#0572CE" stroke-width="1.0957" stroke-miterlimit="10" width="48" height="22.072"/>
	
		<text id="C_Enabled" transform="matrix(1.0066 0 0 1 115.166 20.5938)" fill="#0572CE" font-family="'HelveticaNeue'" font-size="16">C</text>
	
		<text id="B_Enabled" transform="matrix(1.0066 0 0 1 69.166 20.5938)" fill="#0572CE" font-family="'HelveticaNeue'" font-size="16">B</text>
	
		<text id="A_Selected" transform="matrix(1.0066 0 0 1 23.707 20.5938)" fill="#FFFFFF" font-family="'HelveticaNeue'" font-size="16">A</text>
</g>
</svg>
