<?xml version="1.0" encoding="utf-8"?>
<!DOCTYPE svg PUBLIC "-//W3C//DTD SVG 1.1//EN" "http://www.w3.org/Graphics/SVG/1.1/DTD/svg11.dtd">
<svg version="1.1" id="Tabs_Header_Layout" xmlns="http://www.w3.org/2000/svg" xmlns:xlink="http://www.w3.org/1999/xlink" x="0px"
	 y="0px" width="150px" height="224px" viewBox="-14.5 15.5 150 224" enable-background="new -14.5 15.5 150 224"
	 xml:space="preserve">
<rect id="Background_Panel" x="-14.5" y="15.5" fill="#FFFFFF" width="150" height="224"/>
<path id="Title" fill="#F6F6F7" d="M-14.5,15.5h150.05v30H-14.5V15.5z"/>
<rect id="Divide" x="-14.5" y="45.38" fill="#D1D1D3" width="150" height="1"/>
<g id="Segmented_Control_1_">
	<path fill="none" stroke="#0572CE" stroke-width="1.0028" stroke-miterlimit="10" d="M-5.797,19.037h132.851
		c1.146,0,2.074,0.92,2.074,2.06v17.931c0,1.141-0.928,2.061-2.074,2.061H-5.797c-1.149,0-2.075-0.92-2.075-2.061V21.097
		C-7.873,19.957-6.947,19.037-5.797,19.037z"/>
	<path fill="#0572CE" d="M-5.889,19.037h43.964v22.055H-5.889c-0.848,0-1.536-0.92-1.536-2.059V21.106
		C-7.425,19.957-6.737,19.037-5.889,19.037z"/>
	
		<rect x="36.958" y="19.037" fill="#F6F6F7" stroke="#0572CE" stroke-width="1.0957" stroke-miterlimit="10" width="46" height="22.072"/>
	
		<text id="C_Enabled_1_" transform="matrix(1.0066 0 0 1 100.249 35.6309)" fill="#0572CE" font-family="'HelveticaNeue'" font-size="16">C</text>
	
		<text id="B_Enabled_1_" transform="matrix(1.0066 0 0 1 54.249 35.6309)" fill="#0572CE" font-family="'HelveticaNeue'" font-size="16">B</text>
	
		<text id="A_Selected_1_" transform="matrix(1.0066 0 0 1 8.79 35.6309)" fill="#FFFFFF" font-family="'HelveticaNeue'" font-size="16">A</text>
</g>
<g id="Content_Water_Mark">
	<g opacity="0.4">
		<path fill="#C4DEF4" d="M124.439,55.599h-6v2.01h6V55.599L124.439,55.599L124.439,55.599z M112.438,55.599h-6v2.01h6V55.599
			L112.438,55.599z M100.439,55.599h-6v2.01h6V55.599L100.439,55.599z M88.438,55.599h-6v2.01h6V55.599L88.438,55.599z
			 M76.439,55.599h-6v2.01h6V55.599L76.439,55.599z M64.439,55.599h-6v2.01h6V55.599L64.439,55.599z M52.44,55.599h-6v2.01h6V55.599
			L52.44,55.599z M40.44,55.599h-6v2.01h6V55.599L40.44,55.599z M28.44,55.599h-6v2.01h6V55.599L28.44,55.599z M16.44,55.599h-6
			v2.01h6V55.599L16.44,55.599z M4.44,55.599h-6.001v2.01H4.44V55.599L4.44,55.599z M-7.092,57.264
			c-0.392,0.427-0.712,0.921-0.941,1.464l0,0c-0.001,0.002-0.001,0.004-0.002,0.006l0,0c-0.001,0.002-0.002,0.004-0.002,0.006v0.001
			c-0.001,0.002-0.002,0.004-0.003,0.006c0,0,0,0,0,0.001c-0.001,0.002-0.002,0.004-0.003,0.006l0,0
			c-0.001,0.002-0.002,0.005-0.003,0.008l0,0c-0.001,0.002-0.002,0.004-0.003,0.006l0,0c-0.01,0.024-0.02,0.048-0.029,0.072
			c0,0,0,0,0,0.001c0,0.002-0.001,0.004-0.002,0.006l0,0c-0.001,0.002-0.002,0.004-0.002,0.006v0.001
			c-0.001,0.002-0.002,0.004-0.002,0.006c0,0,0,0,0,0.001c-0.001,0.002-0.001,0.004-0.002,0.006v0.001
			c0,0.002-0.001,0.004-0.002,0.006v0.001c0,0.002-0.001,0.004-0.002,0.006v0.001c-0.001,0.002-0.002,0.004-0.002,0.006v0.001
			c-0.001,0.002-0.001,0.004-0.002,0.006c0,0,0,0,0,0.001c0,0.002-0.001,0.004-0.002,0.007l0,0c-0.006,0.012-0.01,0.024-0.015,0.037
			l0,0c-0.001,0.002-0.002,0.005-0.003,0.007c0,0,0,0,0,0.001c-0.001,0.002-0.001,0.004-0.002,0.006c0,0,0,0.001,0,0.002
			c-0.001,0.001-0.001,0.003-0.002,0.005c0,0,0,0.001-0.001,0.002c0,0.001-0.001,0.003-0.002,0.005c0,0.001,0,0.001,0,0.002
			s-0.001,0.003-0.002,0.005c0,0,0,0.001-0.001,0.002c0,0.002-0.001,0.003-0.001,0.005c0,0,0,0.001-0.001,0.002
			c0,0.002-0.001,0.003-0.002,0.005v0.001c-0.001,0.002-0.001,0.004-0.002,0.006v0.001C-8.131,59-8.131,59.001-8.132,59.003v0.001
			c0,0.002-0.001,0.004-0.002,0.005c0,0.001,0,0.001,0,0.002c-0.001,0.002-0.001,0.004-0.002,0.006c0,0,0,0,0,0.001
			c-0.004,0.012-0.009,0.024-0.013,0.038l0,0c0,0.002-0.001,0.004-0.002,0.007c0,0,0,0,0,0.001c-0.016,0.01-0.016,0.012-0.016,0.014
			c0,0,0,0.001-0.001,0.002c0,0.001-0.001,0.003-0.001,0.005c0,0,0,0.001-0.001,0.002c0,0.001-0.001,0.003-0.001,0.005
			c0,0,0,0.001-0.001,0.002c0,0.002-0.001,0.003-0.001,0.005c0,0,0,0.001-0.001,0.002c0,0.002-0.001,0.003-0.001,0.005
			c0,0,0,0.001-0.001,0.002c0,0.002-0.001,0.003-0.001,0.005c0,0,0,0.001-0.001,0.002c0,0.002-0.001,0.003-0.001,0.005
			c0,0.001,0,0.001-0.001,0.002c0,0.002-0.001,0.003-0.001,0.005c0,0.001,0,0.002-0.001,0.002c0,0.001-0.001,0.003-0.001,0.005
			c0,0.001,0,0.001-0.001,0.002c0,0.002-0.001,0.003-0.001,0.005c0,0,0,0.001,0,0.002c-0.001,0.002-0.001,0.004-0.002,0.006v0.001
			c-0.003,0.01-0.006,0.02-0.008,0.029v0.001c-0.001,0.002-0.001,0.004-0.002,0.006v0.001c0,0.002-0.001,0.004-0.002,0.006
			c0,0,0,0.001,0,0.002c0,0.001-0.001,0.003-0.002,0.005c0,0,0,0.001,0,0.002s-0.001,0.003-0.001,0.005c0,0,0,0.001-0.001,0.002
			c0,0.002-0.001,0.003-0.001,0.005c0,0,0,0.001,0,0.002c0,0.001-0.001,0.003-0.001,0.005c0,0.001-0.001,0.001-0.001,0.002
			s-0.001,0.003-0.001,0.005c0,0.001,0,0.001-0.001,0.002c0,0.001-0.001,0.003-0.001,0.005c0,0.001,0,0.002,0,0.002
			c0,0.002-0.001,0.003-0.001,0.005c0,0.001,0,0.001-0.001,0.002c0,0.001-0.001,0.003-0.001,0.005c0,0.001,0,0.002,0,0.002
			c0,0.002-0.001,0.003-0.001,0.005c0,0,0,0.001-0.001,0.002c0,0.002-0.001,0.004-0.001,0.006v0.001
			c-0.003,0.01-0.006,0.02-0.009,0.03v0.001c0,0.002-0.001,0.004-0.001,0.006c0,0.001,0,0.001-0.001,0.002
			c0,0.001-0.001,0.003-0.001,0.004c0,0.001-0.001,0.002-0.001,0.003c0,0.001-0.001,0.003-0.001,0.004s0,0.002,0,0.003
			s-0.001,0.003-0.001,0.004c0,0.001,0,0.002-0.001,0.003c0,0.001-0.001,0.003-0.001,0.005c0,0.001-0.001,0.001-0.001,0.002
			s-0.001,0.003-0.001,0.004s0,0.002,0,0.003c0,0.001-0.001,0.003-0.001,0.004s0,0.002-0.001,0.003c0,0.001,0,0.003-0.001,0.004
			c0,0.001,0,0.002-0.001,0.003c0,0.001,0,0.003-0.001,0.004c0,0.001,0,0.002-0.001,0.003c0,0.001-0.001,0.003-0.001,0.004
			s0,0.002-0.001,0.003s-0.001,0.003-0.001,0.004s0,0.002,0,0.002c0,0.002-0.001,0.004-0.001,0.005s0,0.001,0,0.002
			c0,0.002-0.001,0.004-0.001,0.006v0.001c0,0.002-0.001,0.004-0.002,0.006c0,0,0,0,0,0.001c-0.001,0.005-0.003,0.01-0.004,0.015
			c0,0,0,0.001-0.001,0.002c0,0.002,0,0.003-0.001,0.005c0,0.001,0,0.002-0.001,0.003c0,0.001-0.001,0.003-0.001,0.004
			c0,0.001,0,0.002-0.001,0.003c0,0.001-0.001,0.003-0.001,0.004s0,0.002-0.001,0.003c0,0.002,0,0.003-0.001,0.005
			c0,0.001,0,0.002-0.001,0.003c0,0.001,0,0.003-0.001,0.004c0,0.001,0,0.002-0.001,0.003c0,0.001,0,0.003,0,0.004
			c0,0.001,0,0.002-0.001,0.003c0,0.001,0,0.003-0.001,0.004c0,0.001,0,0.001,0,0.002c0,0.002-0.001,0.003-0.001,0.005
			c0,0.001,0,0.002,0,0.003s-0.001,0.003-0.001,0.004s0,0.002-0.001,0.003c0,0.002,0,0.003-0.001,0.005c0,0.001,0,0.001-0.001,0.003
			c0,0.001,0,0.003-0.001,0.005c0,0,0,0.001,0,0.002c0,0.002-0.001,0.003-0.001,0.005c0,0,0,0.001,0,0.002
			c0,0.002-0.001,0.004-0.001,0.006v0.001c0,0.002-0.001,0.005-0.001,0.007c0,0,0,0.001-0.001,0.002
			c-0.001,0.005-0.002,0.01-0.003,0.015c0,0,0,0.001,0,0.002s-0.001,0.003-0.001,0.005c0,0.001,0,0.002-0.001,0.003
			c0,0.001,0,0.003-0.001,0.004c0,0.001,0,0.002,0,0.003s-0.001,0.003-0.001,0.004c0,0.001,0,0.002,0,0.003s0,0.003-0.001,0.004
			c0,0.001,0,0.002-0.001,0.003c0,0.001,0,0.003-0.001,0.004c0,0.001,0,0.002,0,0.003s0,0.003-0.001,0.004
			c0,0.001,0,0.002-0.001,0.003c0,0.001,0,0.003-0.001,0.004c0,0.001,0,0.002,0,0.003s0,0.003-0.001,0.004c0,0.001,0,0.002,0,0.003
			s-0.001,0.003-0.001,0.005c0,0.001,0,0.002-0.001,0.003c0,0.001,0,0.003-0.001,0.004c0,0.001,0,0.002,0,0.003
			c0,0.002-0.001,0.003-0.001,0.005c0,0.001,0,0.002-0.001,0.003c0,0.001,0,0.003-0.001,0.004c0,0.001,0,0.002,0,0.003
			s0,0.003-0.001,0.004c0,0.001,0,0.002,0,0.003s-0.001,0.002-0.001,0.004c0,0.001,0,0.002-0.001,0.004c0,0.001,0,0.003-0.001,0.004
			c0,0.001,0,0.002,0,0.003s0,0.002,0,0.003C-8.3,59.649-8.3,59.652-8.301,59.655c0,0,0,0.001,0,0.001c0,0.002,0,0.003-0.001,0.004
			c0,0.001,0,0.002-0.001,0.003c0,0.001,0,0.002,0,0.004c0,0.001,0,0.002-0.001,0.003c0,0.001,0,0.002,0,0.004
			c0,0.001,0,0.002-0.001,0.004c0,0.001,0,0.002,0,0.004c0,0.001,0,0.002-0.001,0.003c0,0.001,0,0.002,0,0.004
			c0,0.001-0.001,0.002-0.001,0.004c0,0.001,0,0.002-0.001,0.004c0,0.001,0,0.002,0,0.005c0,0.001,0,0.002-0.001,0.003
			c0,0.001,0,0.003,0,0.004s0,0.002-0.001,0.003c0,0.001,0,0.003,0,0.004s0,0.002-0.001,0.003c0,0.001,0,0.003,0,0.004
			s0,0.002-0.001,0.003c0,0.001,0,0.003,0,0.004s0,0.002-0.001,0.003c0,0.001,0,0.003,0,0.004s0,0.002-0.001,0.003
			c0,0.001,0,0.003,0,0.004s0,0.002-0.001,0.003c0,0.001,0,0.003,0,0.004s0,0.002-0.001,0.003c0,0.001,0,0.003,0,0.005
			c0,0.001,0,0.002,0,0.002c0,0.003-0.001,0.005-0.001,0.008v0.001c0,0.002,0,0.004-0.001,0.006c0,0,0,0.001,0,0.002
			c0,0.002,0,0.003-0.001,0.005c0,0.001,0,0.002,0,0.003s0,0.003-0.001,0.004c0,0.001,0,0.002,0,0.003s0,0.003,0,0.005
			c0,0.001,0,0.002-0.001,0.003c0,0.001,0,0.003,0,0.005c0,0.001,0,0.002,0,0.003s0,0.003-0.001,0.004c0,0.001,0,0.002,0,0.003
			s0,0.003-0.001,0.004c0,0.001,0,0.002,0,0.003s0,0.003,0,0.004c0,0,0,0.001,0,0.002s-0.001,0.003-0.001,0.004
			c0,0.001,0,0.002,0,0.003s0,0.003-0.001,0.004c0,0.001,0,0.002,0,0.003c0,0.001,0,0.003,0,0.004s0,0.002,0,0.003
			s0,0.003-0.001,0.005c0,0.001,0,0.002,0,0.003s0,0.003-0.001,0.005c0,0.001,0,0.002,0,0.003s0,0.003,0,0.005
			c0,0.001,0,0.002,0,0.002c0,0.002,0,0.004-0.001,0.006c0,0,0,0.001,0,0.002c0,0.002,0,0.005-0.001,0.008l0,0
			c0,0.002-0.001,0.005-0.001,0.008c0,0.001,0,0.003-0.001,0.004c0,0.001,0,0.002,0,0.003s0,0.003,0,0.004c0,0.001,0,0.002,0,0.003
			s0,0.002,0,0.003s0,0.003-0.001,0.004c0,0.001,0,0.002,0,0.003s0,0.003,0,0.004s0,0.002,0,0.003c0,0.001,0,0.003,0,0.004
			s0,0.002-0.001,0.004c0,0.001,0,0.003,0,0.004s0,0.002,0,0.003s0,0.003,0,0.004s0,0.002,0,0.003c0,0.001,0,0.003,0,0.004
			s0,0.002,0,0.003s0,0.003-0.001,0.004c0,0.001,0,0.002,0,0.003s0,0.003,0,0.004c0,0.001,0,0.002,0,0.003s0,0.003,0,0.004
			s0,0.002,0,0.003s0,0.003,0,0.004s0,0.002,0,0.004c0,0.001,0,0.003,0,0.004c0,0.001,0,0.002,0,0.004c0,0.001,0,0.003-0.001,0.004
			c0,0.001,0,0.002,0,0.003c0,0.001,0,0.003-0.001,0.006c0,0.001,0,0.001,0,0.002c0,0.003-0.001,0.005-0.001,0.008
			c0,0.001,0,0.002,0,0.002c0,0.002,0,0.003-0.001,0.005c0,0.001,0,0.002,0,0.003s0,0.003-0.001,0.005c0,0.001,0,0.002,0,0.003
			s0,0.003-0.001,0.005c0,0.001,0,0.002,0,0.003c0,0.002,0,0.003-0.001,0.005c0,0.001,0,0.002,0,0.003c0,0.001,0,0.003-0.001,0.005
			c0,0.001,0,0.002,0,0.003s0,0.003-0.001,0.005c0,0.001,0,0.002,0,0.003s0,0.003,0,0.005c0,0.001,0,0.002,0,0.003
			c0,0.002,0,0.003,0,0.005c0,0.001,0,0.002,0,0.003s0,0.003,0,0.004s0,0.002,0,0.003s0,0.003,0,0.005c0,0.001,0,0.002,0,0.003
			s0,0.003,0,0.005c0,0.001,0,0.002,0,0.003s0,0.003-0.001,0.005c0,0.001,0,0.002,0,0.003c0,0.002,0,0.003,0,0.005
			c0,0.001,0,0.002,0,0.003c0,0.002,0,0.004,0,0.005s0,0.001,0,0.002c0,0.002,0,0.004,0,0.006c0,0,0,0.001,0,0.002
			c0,0.003-0.001,0.005-0.001,0.008l0,0c0,0.002,0,0.005-0.001,0.007c0,0.001,0,0.002,0,0.003s0,0.003,0,0.004s0,0.002,0,0.003
			c0,0.002,0,0.003,0,0.005c0,0.001,0,0.002,0,0.003c0,0.001,0,0.002,0,0.003s0,0.002,0,0.003c0,0.002,0,0.004,0,0.005
			s0,0.002,0,0.003s0,0.003,0,0.004s0,0.002,0,0.003c0,0.002,0,0.003,0,0.004s0,0.002,0,0.004c0,0.002,0,0.003,0,0.004
			s0,0.002,0,0.004c0,0.001,0,0.002,0,0.004s0,0.003,0,0.004s0,0.003,0,0.004c0,0.001,0,0.002,0,0.004s0,0.003,0,0.004
			s0,0.002,0,0.003s0,0.003,0,0.004s0,0.002,0,0.003s0,0.003,0,0.004c0,0.001,0,0.002,0,0.003s0,0.003,0,0.004s0,0.002,0,0.003
			s0,0.003,0,0.004s0,0.002,0,0.004c0,0.002,0,0.004,0,0.007v0.001c0,0.003,0,0.005,0,0.008c0,0.001,0,0.003,0,0.004
			s0,0.003,0,0.004c0,0.001,0,0.002,0,0.004s0,0.002,0,0.004c0,0.001,0,0.002,0,0.003c0,0.002,0,0.003,0,0.005
			c0,0.001,0,0.002,0,0.003c0,0.001,0,0.003,0,0.004s0,0.002,0,0.003s0,0.003,0,0.004s0,0.002,0,0.004c0,0.001,0,0.002,0,0.004
			c0,0.001,0,0.002,0,0.004c0,0.001,0,0.003,0,0.004s0,0.002,0,0.004s0,0.002,0,0.004c0,0.001,0,0.003,0,0.004s0,0.003,0,0.004
			s0,0.002,0,0.003c0,0.001,0,0.003,0,0.004s0,0.002,0,0.003s0,0.003,0,0.004c0,0.001,0,0.002,0,0.004s0,0.002,0,0.004
			c0,0.001,0,0.002,0,0.004s0,0.003,0,0.004s0,0.002,0,0.004s0,0.003,0,0.005c0,0.001,0,0.002,0,0.003c0,0.002,0,0.003,0,0.005
			c0,0.001,0,0.002,0,0.003c0,0.002,0,0.005,0,0.007c0,0.001,0,0.002,0,0.004c0,0.002,0,0.003,0,0.004s0,0.002,0,0.003
			c0,0.002,0,0.003,0,0.005c0,0.001,0,0.002,0,0.003s0,0.003,0,0.005c0,0.001,0,0.002,0,0.003s0,0.003,0,0.005
			c0,0.001,0,0.002,0,0.003s0,0.003,0,0.004s0,0.002,0,0.003s0,0.003,0,0.004c0,0.001,0,0.002,0,0.003c0,0.002,0,0.003,0,0.004
			s0,0.002,0,0.004s0,0.003,0,0.004s0,0.003,0,0.004c0,0.001,0,0.003,0,0.004s0,0.002,0,0.003s0,0.003,0,0.005
			c0,0.001,0,0.002,0,0.003c0,0.002,0,0.003,0,0.005c0,0.001,0,0.002,0,0.003c0,0.001,0,0.003,0,0.004s0,0.002,0,0.003
			s0,0.003,0,0.005c0,0.001,0,0.002,0,0.003c0,0.002,0,0.004,0,0.005c0,0.001,0,0.002,0,0.003c0,0.002,0,0.004,0,0.005v0.001
			c0,0.003,0,0.005,0,0.008c0,0.001,0,0.001,0,0.002c0,0.002,0,0.004,0,0.006c0,0,0,0,0,0.001c0,0.002,0,0.005,0,0.007
			c0,0.001,0,0.002,0,0.002c0,0.002,0,0.004,0,0.006c0,0.001,0,0.001,0,0.002c0,0.002,0,0.003,0,0.005c0,0.001,0,0.002,0,0.003
			c0,0.002,0,0.003,0,0.005c0,0.001,0,0.002,0,0.003s0,0.003,0,0.005c0,0.001,0,0.002,0,0.003c0,0.002,0,0.003,0,0.005
			c0,0.001,0,0.002,0,0.003s0,0.003,0,0.004s0,0.002,0,0.004c0,0.002,0,0.003,0,0.004s0,0.002,0,0.003s0,0.003,0,0.004
			s0,0.002,0,0.004c0,0.001,0,0.003,0,0.004s0,0.002,0,0.003c0,0.001,0,0.003,0,0.004s0,0.002,0,0.003c0,0.002,0,0.003,0,0.005
			c0,0.001,0,0.002,0,0.003s0,0.003,0,0.005c0,0.001,0,0.002,0,0.003c0,0.002,0,0.004,0,0.006c0,0.001,0,0.001,0,0.002
			c0,0.003,0,0.005,0,0.008v2.23h2v-2.23c0-0.778,0.29-1.522,0.815-2.097L-7.092,57.264L-7.092,57.264z M-6.436,68.984h-2v6.031h2
			V68.984L-6.436,68.984z M-6.436,81.047h-2v6.031h2V81.047L-6.436,81.047z M-6.436,93.109h-2v6.031h2V93.109L-6.436,93.109z
			 M-6.436,105.172h-2v6.031h2V105.172L-6.436,105.172z M-6.436,117.234h-2v6.031h2V117.234L-6.436,117.234z M-6.436,129.297h-2
			v6.031h2V129.297L-6.436,129.297z M-6.436,141.359h-2v6.031h2V141.359L-6.436,141.359z M-6.436,153.422h-2v6.031h2V153.422
			L-6.436,153.422z M-6.436,165.484h-2v6.031h2V165.484L-6.436,165.484z M-6.436,177.547h-2v6.031h2V177.547L-6.436,177.547z
			 M-6.436,189.609h-2v6.029h2V189.609L-6.436,189.609z M-6.436,201.67h-2v6.031h2V201.67L-6.436,201.67z M-6.436,213.732h-2v6.031
			h2V213.732L-6.436,213.732z M-6.436,225.795h-2v1.597c0,0.003,0,0.006,0,0.01v0.002c0,0.002,0,0.004,0,0.006s0,0.002,0,0.004
			s0,0.004,0,0.006c0,0,0,0.002,0,0.004c0,0.001,0,0.003,0,0.005c0,0.001,0,0.002,0,0.004c0,0.001,0,0.003,0,0.004
			c0,0.002,0,0.003,0,0.004c0,0.002,0,0.005,0,0.005c0,0.002,0,0.004,0,0.004c0,0.002,0,0.004,0,0.006s0,0.002,0,0.004
			s0,0.004,0,0.005c0,0.002,0,0.003,0,0.004c0,0.002,0,0.004,0,0.006c0,0.001,0,0.002,0,0.003c0,0.003,0,0.006,0,0.01v0.002
			c0,0.002,0,0.004,0,0.006s0,0.002,0,0.004s0,0.004,0,0.004c0,0.003,0,0.003,0,0.006c0,0,0,0.003,0,0.004c0,0.002,0,0.003,0,0.005
			s0,0.004,0,0.005s0,0.003,0,0.004c0,0.003,0,0.003,0,0.005s0,0.004,0,0.004c0,0.002,0,0.004,0,0.006c0,0,0,0.002,0,0.004
			s0,0.003,0,0.005c0,0.001,0,0.003,0,0.004c0,0.002,0,0.003,0,0.005c0,0.001,0,0.002,0,0.004s0,0.004,0,0.006s0,0.002,0,0.002
			c0,0.004,0,0.006,0,0.01v0.002c0,0.002,0,0.004,0,0.007c0,0.001,0,0.002,0,0.003c0,0.002,0,0.004,0,0.006c0,0.001,0,0.002,0,0.004
			c0,0.001,0,0.003,0,0.005c0,0.001,0,0.002,0,0.005c0,0,0,0.002,0,0.004s0,0.002,0,0.004s0,0.004,0,0.004c0,0.002,0,0.004,0,0.004
			c0,0.002,0,0.005,0,0.007c0,0.001,0,0.002,0,0.003c0,0.002,0,0.004,0,0.006c0,0.001,0,0.002,0,0.003c0,0.002,0,0.004,0,0.007
			v0.002c0,0.006,0,0.012,0.001,0.018c0,0.001,0,0.002,0,0.003c0,0.002,0,0.004,0,0.006c0,0.001,0,0.002,0,0.004
			c0,0.001,0,0.003,0,0.005c0,0.001,0,0.002,0,0.004s0,0.004,0,0.006v0.002c0,0.002,0,0.004,0,0.007c0,0.002,0,0.002,0,0.004
			s0,0.004,0,0.005c0,0.002,0,0.003,0,0.004c0,0.002,0,0.003,0,0.005c0,0.001,0,0.003,0,0.004c0,0.002,0,0.004,0,0.006
			s0,0.002,0,0.004s0,0.004,0,0.006v0.002c0,0.002,0,0.006,0.001,0.009c0,0.001,0,0.001,0,0.002c0,0.002,0,0.005,0,0.007
			c0,0.001,0,0.002,0,0.003c0,0.002,0,0.004,0,0.006c0,0.001,0,0.002,0,0.003c0,0.002,0,0.004,0,0.006s0,0.002,0,0.004
			s0,0.004,0,0.004c0,0.002,0,0.004,0,0.004c0,0.002,0,0.004,0,0.006c0,0.001,0,0.003,0,0.004s0,0.003,0,0.005
			c0,0.001,0,0.002,0,0.003c0,0.002,0,0.004,0,0.006s0,0.002,0,0.004s0,0.004,0,0.006v0.002c0,0.002,0,0.004,0,0.006
			s0,0.003,0,0.004c0,0.003,0,0.006,0.001,0.008c0,0.001,0,0.002,0,0.003s0,0.003,0,0.005s0,0.003,0,0.004c0,0.002,0,0.004,0,0.006
			s0,0.002,0,0.004s0,0.004,0,0.004c0,0.002,0,0.004,0,0.004c0,0.003,0,0.005,0,0.006s0,0.003,0,0.004c0,0.002,0,0.003,0,0.005
			c0,0.001,0,0.002,0,0.004s0,0.004,0,0.006s0,0.002,0,0.004s0,0.004,0,0.006v0.002c0,0.002,0,0.004,0,0.006s0,0.003,0,0.004
			c0.001,0.006,0.001,0.011,0.002,0.017c0,0.001,0,0.002,0,0.003c0,0.002,0,0.004,0,0.006s0,0.002,0,0.004s0,0.004,0,0.004
			c0,0.002,0,0.004,0,0.004c0,0.003,0,0.005,0,0.006s0,0.003,0,0.004c0,0.002,0,0.003,0,0.005c0,0.001,0,0.003,0,0.004
			s0,0.003,0,0.004c0,0.003,0,0.003,0,0.005s0,0.004,0,0.004c0,0.002,0,0.004,0,0.004c0,0.002,0,0.004,0,0.006c0,0,0,0.002,0,0.004
			c0,0.001,0,0.003,0,0.004c0,0.002,0,0.003,0,0.004c0,0.002,0,0.003,0,0.005c0,0.003,0.001,0.005,0.001,0.009c0,0,0,0.002,0,0.004
			s0,0.002,0,0.004s0,0.002,0,0.004s0,0.004,0,0.004c0,0.002,0,0.004,0.001,0.006c0,0.001,0,0.002,0,0.004c0,0.001,0,0.003,0,0.004
			c0,0.002,0,0.003,0,0.004c0,0.002,0,0.003,0,0.005c0,0.001,0,0.003,0,0.005c0,0,0,0.002,0,0.004s0,0.002,0,0.004s0,0.004,0,0.004
			c0,0.002,0,0.005,0,0.005c0,0.003,0,0.004,0.001,0.006c0,0.001,0,0.003,0,0.004c0,0.002,0,0.004,0,0.006c0,0,0,0.001,0,0.002
			c0,0.003,0.001,0.006,0.001,0.01v0.002c0,0.002,0,0.004,0.001,0.006c0,0,0,0.002,0,0.004s0,0.002,0,0.005c0,0.001,0,0.002,0,0.004
			c0,0.001,0,0.003,0.001,0.004c0,0.002,0,0.003,0,0.004c0,0.002,0,0.003,0,0.005c0,0.001,0,0.003,0,0.004
			c0,0.002,0,0.004,0.001,0.006v0.002c0,0.002,0,0.004,0,0.006c0,0,0,0.002,0,0.004s0,0.004,0.001,0.005c0,0.001,0,0.003,0,0.004
			s0,0.003,0,0.005c0,0.001,0,0.002,0,0.003c0.001,0.006,0.002,0.011,0.003,0.017c0,0.002,0,0.002,0,0.004s0,0.004,0,0.006
			c0,0.001,0,0.002,0,0.003c0,0.002,0,0.004,0.001,0.005c0,0.001,0,0.003,0,0.004c0,0.002,0,0.003,0.001,0.005
			c0,0.001,0,0.002,0,0.004c0,0.001,0,0.003,0,0.005c0,0,0,0.002,0.001,0.004c0,0.002,0,0.002,0,0.004s0,0.002,0,0.004
			s0,0.004,0.001,0.004c0,0.003,0,0.004,0,0.005c0,0.002,0,0.003,0.001,0.005c0,0.001,0,0.002,0,0.004c0,0.001,0,0.003,0.001,0.004
			c0,0.001,0,0.003,0,0.005s0,0.004,0.001,0.006c0,0.002,0,0.004,0.001,0.006s0,0.004,0.001,0.006c0,0,0,0.002,0,0.004
			c0,0.001,0,0.003,0.001,0.004c0,0.002,0,0.003,0,0.005c0,0.001,0,0.002,0.001,0.004c0,0.001,0,0.003,0,0.004
			c0,0.002,0,0.003,0.001,0.004c0,0.003,0,0.003,0,0.005s0,0.002,0.001,0.004c0,0.002,0,0.004,0,0.004c0,0.002,0,0.004,0.001,0.004
			c0,0.002,0,0.004,0,0.006c0,0.001,0,0.002,0.001,0.004c0,0.001,0,0.003,0,0.004s0,0.003,0.001,0.004c0,0.002,0,0.003,0,0.004
			c0,0.002,0.001,0.004,0.001,0.006s0,0.002,0.001,0.004c0,0.002,0.001,0.004,0.001,0.008v0.002c0,0.002,0,0.004,0.001,0.006
			c0,0.002,0,0.003,0,0.004c0,0.002,0.001,0.003,0.001,0.005c0,0.001,0,0.002,0.001,0.003c0,0.002,0,0.004,0,0.005
			c0,0.002,0,0.003,0.001,0.005c0,0.002,0,0.002,0.001,0.004c0,0.002,0,0.002,0,0.004s0,0.004,0.001,0.004
			c0,0.002,0,0.004,0.001,0.004c0,0.002,0,0.004,0,0.006c0,0.001,0,0.002,0.001,0.004c0,0.001,0,0.003,0.001,0.004
			c0,0.001,0,0.003,0,0.004c0,0.002,0.001,0.003,0.001,0.005c0,0.001,0,0.003,0.001,0.003c0,0.002,0.001,0.006,0.001,0.008
			c0,0,0,0,0,0.002s0.001,0.004,0.002,0.008c0,0,0,0.003,0,0.004c0,0.002,0,0.004,0.001,0.005c0,0.002,0,0.003,0.001,0.004
			c0,0.002,0,0.003,0.001,0.005c0,0.001,0,0.002,0,0.004c0,0.001,0,0.003,0.001,0.005c0,0,0,0.002,0.001,0.004
			c0,0.002,0,0.002,0.001,0.004c0,0.002,0,0.002,0.001,0.004c0,0.002,0,0.002,0,0.004s0,0.004,0,0.005s0,0.003,0.001,0.004
			s0,0.003,0.001,0.004c0,0.001,0,0.003,0,0.004c0,0.002,0.001,0.003,0.001,0.005c0,0.001,0,0.002,0,0.004c0,0,0,0.002,0.001,0.004
			v0.002c0.001,0.004,0.001,0.008,0.002,0.012c0,0.002,0,0.002,0,0.002c0,0.003,0.001,0.005,0.001,0.007c0,0,0,0.001,0,0.002
			c0,0.002,0.001,0.004,0.001,0.006c0,0.001,0,0.002,0.001,0.003s0,0.004,0.001,0.006c0,0,0,0.002,0.001,0.002
			c0,0.002,0,0.004,0.001,0.006c0,0,0,0.002,0.001,0.002c0,0.002,0,0.004,0.001,0.006c0,0.001,0,0.002,0,0.004
			c0,0.001,0.001,0.003,0.001,0.004s0,0.003,0,0.004s0.001,0.003,0.001,0.004c0,0.002,0.001,0.003,0.001,0.004
			s0.001,0.004,0.001,0.006c0,0,0,0.002,0.001,0.002c0.001,0.006,0.003,0.012,0.003,0.019c0,0.001,0,0.002,0,0.003
			s0.001,0.003,0.001,0.005c0,0.001,0.001,0.002,0.001,0.003c0,0.002,0.001,0.003,0.001,0.006l0.001,0.003
			c0,0.002,0.001,0.004,0.001,0.006v0.002c0,0.002,0.001,0.004,0.001,0.006s0,0.002,0,0.004c0,0.001,0.001,0.003,0.001,0.005
			c0,0.001,0,0.002,0,0.003c0,0.002,0.001,0.003,0.001,0.005c0,0.001,0,0.002,0.001,0.003c0,0.002,0,0.003,0.001,0.006v0.002
			c0,0.002,0.001,0.004,0.001,0.006c0,0,0,0,0,0.002c0.001,0.004,0.002,0.008,0.003,0.012c0,0.001,0,0.001,0,0.002
			c0,0.002,0.001,0.003,0.001,0.005c0,0.001,0,0.002,0.001,0.003c0,0.002,0,0.004,0.001,0.005s0,0.002,0.001,0.003
			c0,0.002,0.001,0.004,0.001,0.006c0,0,0,0.002,0,0.004c0,0,0.001,0.002,0.001,0.004c0,0,0,0.002,0.001,0.004
			c0.001,0,0,0.003,0.001,0.005c0,0.001,0,0.002,0.001,0.003s0.001,0.003,0.001,0.005c0,0.001,0,0.002,0,0.003
			s0.001,0.003,0.001,0.005c0,0.001,0,0.003,0.001,0.003c0,0.002,0.001,0.004,0.001,0.006v0.002c0,0.002,0.001,0.004,0.001,0.006
			l0,0c0.001,0.005,0.002,0.01,0.004,0.014c0,0,0,0.001,0,0.002c0,0.002,0.001,0.003,0.001,0.005c0,0.001,0,0.002,0,0.003
			c0,0.002,0.001,0.004,0.001,0.006c0,0,0,0.002,0.001,0.002c0,0.002,0.001,0.004,0.001,0.006v0.002
			c0,0.002,0.001,0.004,0.001,0.006c0,0.001,0,0.002,0.001,0.003c0,0.002,0.001,0.003,0.001,0.005s0,0.002,0,0.004
			s0.001,0.004,0.001,0.005s0.001,0.002,0.001,0.003c0,0.003,0.001,0.005,0.001,0.005c0,0.002,0,0.002,0.001,0.004
			c0,0.002,0.001,0.002,0.001,0.004s0,0.002,0,0.002c0.002,0.008,0.004,0.014,0.006,0.021c0,0,0,0.001,0,0.002
			c0,0.002,0.001,0.002,0.001,0.004c0,0.003,0,0.003,0.001,0.005c0,0.002,0.001,0.002,0.001,0.004s0,0.002,0,0.004
			c0,0,0.001,0.002,0.001,0.004s0.001,0.002,0.001,0.004s0.001,0.003,0.001,0.005c0,0.001,0,0.002,0.001,0.003
			c0,0.002,0.001,0.003,0.001,0.005c0,0.001,0,0.002,0.001,0.003c0,0.002,0.001,0.003,0.001,0.006c0,0,0,0.002,0.001,0.002
			c0,0.002,0.001,0.004,0.001,0.006c0,0,0,0.002,0.001,0.002c0,0.002,0.001,0.004,0.001,0.006c0,0,0,0,0,0.002
			c0.002,0.007,0.004,0.013,0.006,0.02v0.001c0,0.003,0.001,0.005,0.001,0.007c0,0,0,0.002,0.001,0.002
			c0,0.002,0.001,0.004,0.001,0.004c0,0.002,0,0.002,0.001,0.004c0,0.002,0.001,0.004,0.001,0.006c0,0,0,0.001,0.001,0.002
			c0,0.002,0.001,0.004,0.001,0.005s0,0.002,0.001,0.003c0,0.002,0.001,0.004,0.001,0.006c0,0,0,0.001,0.001,0.002
			c0,0.002,0.001,0.004,0.001,0.006c0,0,0,0.002,0.001,0.002c0,0.002,0.001,0.004,0.002,0.006c0,0,0,0,0,0.002
			c0.003,0.01,0.006,0.02,0.009,0.027c0,0.001,0,0.001,0,0.001c0,0.002,0.001,0.004,0.002,0.006c0,0.002,0,0.002,0,0.002
			c0.001,0.002,0.001,0.004,0.002,0.006c0,0,0,0.002,0.001,0.002c0,0.002,0.001,0.004,0.001,0.006c0,0.001,0.001,0.002,0.001,0.003
			c0,0.002,0.001,0.004,0.002,0.005c0,0.001,0,0.002,0,0.003c0.001,0.001,0.001,0.003,0.002,0.005c0,0.001,0,0.002,0.001,0.002
			c0,0.002,0.001,0.004,0.002,0.006c0,0.002,0,0.002,0,0.002c0.004,0.012,0.008,0.022,0.014,0.034c0,0.001,0,0.001,0,0.001
			c0.001,0.004,0.001,0.004,0.002,0.008l0,0c0,0.002,0.001,0.004,0.002,0.006c0,0.002,0,0.002,0.001,0.002
			c0,0.002,0.001,0.005,0.002,0.007c0,0.001,0,0.001,0,0.002c0.001,0.002,0.001,0.004,0.002,0.005s0,0.002,0.001,0.003
			s0.001,0.003,0.002,0.005c0,0.001,0,0.001,0,0.002c0.001,0.002,0.001,0.004,0.002,0.006c0,0.002,0,0.002,0,0.002
			c0.003,0.01,0.006,0.019,0.01,0.027l0,0c0.001,0.003,0.001,0.006,0.002,0.008v0.001c0,0.002,0.001,0.004,0.002,0.006
			c0,0.002,0,0.002,0,0.002c0.001,0.002,0.001,0.004,0.002,0.006v0.002c0.001,0.002,0.001,0.004,0.002,0.007c0,0,0,0,0,0.001
			c0,0.002,0.001,0.004,0.002,0.006c0,0.001,0,0.001,0.001,0.002c0,0.002,0.001,0.004,0.002,0.006c0,0,0,0.001,0.001,0.001
			c0,0.002,0.001,0.005,0.002,0.007l0,0c0.002,0.01,0.006,0.02,0.01,0.028l0,0c0.001,0.002,0.002,0.005,0.002,0.007v0.001
			c0.001,0.003,0.002,0.005,0.002,0.007c0,0,0,0,0,0.002c0.001,0.002,0.001,0.002,0.002,0.004c0,0.002,0,0.002,0.001,0.002
			c0,0.002,0.001,0.004,0.002,0.006c0,0.002,0,0.002,0.001,0.003c0,0.002,0.001,0.004,0.002,0.006v0.001
			c0.007,0.018,0.014,0.033,0.021,0.05l0,0c0.001,0.002,0.001,0.005,0.002,0.007c0,0,0,0,0,0.002
			c0.001,0.002,0.002,0.004,0.002,0.006l0,0c0,0.002,0.001,0.004,0.002,0.008l0,0c0.001,0.004,0.002,0.006,0.003,0.008v0.001
			c0.007,0.018,0.014,0.033,0.021,0.049v0.001c0.002,0.004,0.004,0.009,0.006,0.015l0,0c0.011,0.023,0.022,0.047,0.033,0.07l0,0
			c0.312,0.691,0.775,1.303,1.347,1.79l1.294-1.532c-0.695-0.594-1.094-1.455-1.094-2.366v-1.64H-6.436z M5.071,230.505h-6v2.011h6
			V230.505L5.071,230.505z M17.071,230.505h-6v2.011h6V230.505L17.071,230.505z M29.071,230.505h-6v2.011h6V230.505L29.071,230.505z
			 M41.071,230.505h-6v2.011h6V230.505L41.071,230.505z M53.071,230.505h-6v2.011h6V230.505L53.071,230.505z M65.071,230.505h-6
			v2.011h6V230.505L65.071,230.505z M77.071,230.505h-5.999v2.011h5.999V230.505L77.071,230.505z M89.072,230.505h-6v2.011h6
			V230.505L89.072,230.505z M101.071,230.505h-6v2.011h6V230.505L101.071,230.505z M113.072,230.505h-6v2.011h6V230.505
			L113.072,230.505z M124.828,230.48c-0.127,0.016-0.259,0.022-0.389,0.022h-5.368v2.011h5.368c0.004,0,0.006,0,0.01,0
			c0.001,0,0.003,0,0.004,0c0.002,0,0.004,0,0.006,0c0.001,0,0.002,0,0.003,0c0.003,0,0.005,0,0.007,0s0.002,0,0.004,0
			s0.004,0,0.006,0s0.002,0,0.004,0s0.006,0,0.009,0c0.001,0,0.002,0,0.002,0c0.003,0,0.005,0,0.007,0c0.001,0,0.003,0,0.004,0
			c0.002,0,0.004,0,0.006,0s0.004,0,0.004,0c0.002,0,0.004,0,0.006,0s0.002,0,0.004,0s0.004,0,0.004,0c0.002,0,0.005,0,0.006,0
			c0.002,0,0.004,0,0.006,0c0.003,0,0.005,0,0.006,0c0.002,0,0.003,0,0.005,0s0.004,0,0.006,0c0,0,0.002,0,0.004,0s0.004,0,0.006,0
			l0.002-0.002c0.002,0,0.005,0,0.007,0c0.001,0,0.002,0,0.003,0c0.009,0,0.016,0,0.023,0l0,0c0.001,0,0.005-0.001,0.007-0.001
			c0,0,0,0,0.002,0s0.005,0,0.007,0h0.001c0.154-0.005,0.307-0.017,0.456-0.034L124.828,230.48L124.828,230.48z M129.564,222.764
			h-1.999v4.628c0,0.286-0.041,0.569-0.116,0.84l1.926,0.546c0.027-0.102,0.054-0.202,0.076-0.307l0,0
			c0.002-0.007,0.003-0.016,0.004-0.023c0,0,0-0.001,0.001-0.001c0-0.002,0.001-0.005,0.001-0.007c0-0.001,0-0.001,0-0.002
			c0.001-0.004,0.002-0.008,0.003-0.012c0-0.002,0-0.002,0-0.004c0.001-0.002,0.001-0.004,0.002-0.006v-0.002
			c0.001-0.002,0.001-0.004,0.002-0.006c0-0.002,0-0.003,0-0.005c0.001-0.003,0.002-0.006,0.002-0.009
			c0-0.001,0.001-0.003,0.001-0.004c0-0.002,0.001-0.003,0.001-0.005c0-0.003,0.001-0.003,0.001-0.005s0.002-0.004,0.002-0.006
			s0-0.004,0.002-0.008c0-0.002,0-0.003,0-0.004c0-0.002,0-0.004,0-0.006c0.002-0.001,0.002-0.003,0.002-0.004
			c0-0.002,0-0.004,0-0.006c0.002-0.001,0.002-0.002,0.002-0.004c0-0.004,0-0.006,0.002-0.01v-0.002c0-0.002,0-0.004,0.002-0.008
			c0,0,0-0.002,0-0.003c0-0.003,0-0.005,0.002-0.007c0-0.001,0-0.002,0-0.003c0-0.003,0-0.006,0.002-0.009c0-0.002,0-0.002,0-0.004
			s0-0.004,0.002-0.006c0-0.002,0-0.002,0-0.004c0-0.004,0-0.006,0.002-0.01l0,0c0-0.003,0.001-0.007,0.002-0.011
			c0-0.001,0-0.002,0-0.003c0.001-0.002,0.001-0.005,0.001-0.007c0.001-0.002,0.001-0.002,0.001-0.004s0.001-0.006,0.002-0.01l0,0
			c0-0.004,0.001-0.007,0.001-0.01c0-0.001,0-0.001,0.001-0.002c0-0.003,0.001-0.006,0.001-0.009v-0.001
			c0.001-0.004,0.001-0.008,0.002-0.012l0,0c0.001-0.002,0.001-0.006,0.002-0.01c0,0,0,0,0-0.002c0-0.004,0.001-0.007,0.002-0.009
			c0-0.001,0-0.001,0-0.001c0-0.003,0.001-0.007,0.001-0.01c0-0.001,0-0.001,0-0.001c0.001-0.005,0.001-0.007,0.002-0.011l0,0
			c0.001-0.008,0.002-0.015,0.004-0.021c0-0.001,0-0.001,0-0.001c0-0.004,0-0.007,0.002-0.01v-0.001
			c0-0.008,0.002-0.014,0.002-0.021c0-0.001,0-0.001,0-0.002c0.002-0.003,0.002-0.006,0.002-0.009c0-0.001,0-0.001,0-0.001
			c0.002-0.007,0.002-0.014,0.004-0.022c0,0,0,0,0-0.002s0-0.006,0-0.01l0,0c0.002-0.007,0.002-0.014,0.004-0.021l0,0
			c0-0.008,0.002-0.014,0.002-0.021c0,0,0,0,0-0.001c0.002-0.003,0.002-0.006,0.002-0.01c0,0,0-0.001,0.001-0.001
			c0-0.008,0.001-0.014,0.002-0.021l0,0c0.001-0.005,0.001-0.008,0.001-0.011l0.001-0.001c0-0.007,0.001-0.014,0.002-0.021l0,0
			c0.001-0.004,0.001-0.006,0.001-0.01l0,0c0.001-0.009,0.002-0.016,0.003-0.021v-0.002c0-0.004,0.001-0.006,0.001-0.01l0,0
			c0.001-0.008,0.001-0.015,0.002-0.021c0-0.002,0-0.002,0-0.003c0.001-0.007,0.002-0.014,0.002-0.021l0,0
			c0.001-0.004,0.001-0.007,0.001-0.011v-0.001c0.001-0.008,0.003-0.015,0.003-0.021l0,0c0-0.004,0-0.006,0-0.01c0,0,0,0,0-0.002
			c0.002-0.007,0.002-0.014,0.002-0.021c0-0.001,0-0.001,0-0.001c0.002-0.004,0.002-0.008,0.002-0.01v-0.002
			c0-0.006,0-0.014,0.002-0.021v-0.001c0-0.003,0-0.007,0-0.01c0,0,0,0,0-0.001c0-0.003,0-0.007,0.002-0.011c0,0,0,0,0-0.002
			s0-0.006,0-0.009c0-0.001,0-0.001,0-0.002c0-0.003,0-0.007,0-0.01l0,0c0-0.004,0.002-0.008,0.002-0.011c0-0.002,0-0.002,0-0.002
			c0-0.004,0-0.006,0-0.011c0,0,0,0,0-0.002c0-0.007,0.002-0.014,0.002-0.021c0,0,0-0.001,0-0.002c0-0.003,0-0.007,0-0.009v-0.002
			c0-0.006,0-0.015,0.002-0.021c0,0,0-0.001,0-0.002c0-0.003,0-0.006,0-0.009v-0.001c0-0.005,0-0.007,0-0.011v-0.002
			c0-0.002,0-0.006,0.002-0.008c0-0.002,0-0.003,0-0.004c0-0.003,0-0.006,0-0.008c0-0.001,0-0.002,0-0.002
			c0-0.004,0-0.007,0.001-0.012l0,0c0-0.004,0-0.006,0-0.01v-0.002c0-0.004,0-0.007,0-0.01v-0.001
			c0.001-0.004,0.001-0.007,0.001-0.01c0-0.001,0-0.002,0-0.003c0-0.004,0-0.006,0-0.008s0-0.002,0-0.004s0-0.006,0.001-0.01l0,0
			c0-0.003,0-0.007,0-0.01c0-0.001,0-0.002,0-0.003c0-0.003,0-0.005,0-0.009c0-0.001,0-0.002,0-0.003c0-0.005,0-0.007,0-0.01
			c0.001-0.002,0.001-0.002,0.001-0.002c0-0.002,0-0.006,0-0.009c0-0.001,0-0.002,0-0.003c0-0.003,0-0.006,0-0.008
			c0-0.001,0-0.002,0-0.003c0-0.003,0-0.006,0-0.011c0,0,0,0,0-0.002s0-0.006,0-0.008v-0.002c0-0.004,0-0.007,0.001-0.01
			c0,0,0-0.001,0-0.002c0-0.003,0-0.007,0-0.01c0-0.001,0-0.002,0-0.003c0-0.003,0-0.005,0-0.007s0-0.004,0-0.004
			c0-0.004,0-0.006,0-0.01l0,0c0-0.004,0-0.008,0-0.011c0-0.001,0-0.002,0-0.003c0-0.003,0-0.005,0-0.008c0-0.002,0-0.002,0-0.004
			s0-0.006,0-0.01v-4.608H129.564z M129.564,210.701h-1.999v6.031h1.999V210.701L129.564,210.701z M129.564,198.639h-1.999v6.031
			h1.999V198.639L129.564,198.639z M129.564,186.576h-1.999v6.031h1.999V186.576L129.564,186.576z M129.564,174.514h-1.999v6.031
			h1.999V174.514L129.564,174.514z M129.564,162.452h-1.999v6.031h1.999V162.452L129.564,162.452z M129.564,150.39h-1.999v6.031
			h1.999V150.39L129.564,150.39z M129.564,138.327h-1.999v6.031h1.999V138.327L129.564,138.327z M129.564,126.265h-1.999v6.031
			h1.999V126.265L129.564,126.265z M129.564,114.202h-1.999v6.031h1.999V114.202L129.564,114.202z M129.564,102.139h-1.999v6.031
			h1.999V102.139L129.564,102.139z M129.564,90.077h-1.999v6.031h1.999V90.077L129.564,90.077z M129.564,78.014h-1.999v6.031h1.999
			V78.014L129.564,78.014z M129.564,65.952h-1.999v6.031h1.999V65.952L129.564,65.952z M125.66,55.745l-0.472,1.953
			c1.206,0.294,2.147,1.315,2.338,2.537l1.977-0.312c-0.076-0.481-0.218-0.94-0.418-1.367l0,0c-0.003-0.007-0.006-0.014-0.009-0.021
			l0,0c-0.004-0.007-0.008-0.014-0.01-0.021h-0.002c-0.002-0.005-0.004-0.009-0.006-0.014l0,0c-0.002-0.002-0.002-0.004-0.004-0.006
			l0,0c-0.003-0.007-0.007-0.014-0.01-0.021l0,0c-0.004-0.006-0.007-0.014-0.011-0.021c0,0,0,0,0-0.001
			c-0.001-0.002-0.002-0.004-0.003-0.005l0,0c-0.004-0.005-0.006-0.009-0.008-0.014l0,0c-0.002-0.002-0.002-0.004-0.004-0.006l0,0
			c-0.002-0.004-0.004-0.009-0.006-0.013c0,0,0,0-0.002-0.001c0-0.002-0.001-0.003-0.002-0.005c-0.001,0-0.001-0.001-0.001-0.001
			c-0.002-0.004-0.004-0.008-0.007-0.013v-0.001c-0.001-0.001-0.002-0.003-0.003-0.005l-0.001-0.001
			c-0.002-0.004-0.004-0.009-0.008-0.014V58.37c0-0.001-0.002-0.003-0.002-0.005c0,0-0.001-0.001-0.001-0.002
			c0-0.002-0.002-0.004-0.002-0.006l0,0c-0.002-0.002-0.004-0.004-0.004-0.006V58.35c-0.002-0.002-0.002-0.003-0.004-0.005
			c0,0,0-0.001,0-0.002c-0.002-0.001-0.002-0.003-0.004-0.004c0,0,0-0.001-0.001-0.002c-0.001-0.002-0.002-0.004-0.003-0.006
			c0,0,0-0.001-0.001-0.001c0-0.001-0.001-0.003-0.002-0.005c0,0-0.001-0.001-0.001-0.002c-0.001-0.001-0.002-0.003-0.003-0.005
			c0,0,0-0.001-0.001-0.001c-0.001-0.002-0.002-0.004-0.003-0.006l-0.001-0.001c-0.001-0.001-0.002-0.003-0.002-0.005
			c-0.002,0-0.002-0.001-0.002-0.002s-0.002-0.002-0.002-0.004c0-0.001-0.002-0.001-0.002-0.002c0-0.002-0.002-0.003-0.002-0.005
			c-0.002-0.001-0.002-0.002-0.002-0.002c0-0.001-0.002-0.002-0.002-0.003c0-0.001,0-0.002-0.002-0.003c0-0.001,0-0.003-0.002-0.004
			c0-0.001,0-0.001,0-0.002c-0.002-0.001-0.004-0.004-0.004-0.006c0-0.001,0-0.001-0.002-0.002c0-0.001-0.001-0.003-0.002-0.004
			c0,0-0.001-0.001-0.001-0.002c-0.001-0.001-0.002-0.002-0.002-0.004c-0.001-0.001-0.001-0.002-0.002-0.002
			c-0.001-0.002-0.002-0.004-0.003-0.006c0,0-0.001-0.001-0.001-0.002c-0.001-0.001-0.002-0.002-0.002-0.004
			c-0.001-0.001-0.001-0.001-0.002-0.002s-0.001-0.002-0.002-0.004c-0.001,0-0.001-0.001-0.001-0.002
			c-0.001-0.001-0.004-0.003-0.004-0.005c0-0.001-0.002-0.001-0.002-0.002s0-0.002-0.002-0.003c0-0.001,0-0.002-0.002-0.003
			c0-0.001,0-0.002-0.002-0.003c0-0.001,0-0.001,0-0.002c-0.002-0.002-0.002-0.004-0.004-0.006v-0.001
			c-0.002-0.001-0.002-0.003-0.005-0.004c0-0.001,0-0.002,0-0.003c-0.002-0.001-0.004-0.002-0.004-0.003
			c-0.001-0.001-0.001-0.002-0.002-0.003s-0.002-0.002-0.002-0.004c-0.001-0.001-0.002-0.002-0.003-0.004
			c0-0.001-0.001-0.002-0.001-0.003c-0.001-0.001-0.002-0.002-0.002-0.003c-0.001-0.001-0.001-0.001-0.002-0.002
			s-0.001-0.002-0.002-0.003c0-0.001-0.001-0.002-0.002-0.003c0-0.001-0.001-0.003-0.002-0.004s-0.003-0.002-0.003-0.004
			c0-0.001-0.002-0.002-0.002-0.003s0-0.002-0.002-0.003c0-0.001,0-0.002-0.002-0.003c0-0.001,0-0.002-0.002-0.003
			c0-0.001,0-0.003-0.002-0.004c0-0.001-0.002-0.002-0.002-0.004c0-0.001-0.002-0.002-0.002-0.003s0-0.002-0.002-0.003
			c0-0.001,0-0.002-0.002-0.003c0-0.001,0-0.001,0-0.002c-0.003-0.002-0.004-0.005-0.005-0.007c-0.001,0-0.001-0.001-0.001-0.001
			c-0.001-0.001-0.002-0.002-0.003-0.004c0,0,0-0.001-0.001-0.002s-0.001-0.002-0.002-0.004c0,0-0.001,0-0.001-0.001
			c-0.002-0.002-0.003-0.005-0.005-0.008l0,0c-0.001-0.001-0.002-0.002-0.003-0.004l-0.001-0.001
			c-0.002-0.001-0.002-0.003-0.002-0.004c-0.002,0-0.002,0-0.002-0.001c-0.002-0.004-0.006-0.009-0.008-0.013v-0.001
			c-0.002-0.001-0.002-0.003-0.004-0.004c0,0,0,0,0-0.001c-0.002-0.004-0.006-0.009-0.009-0.014c0,0,0,0,0-0.001
			c-0.001-0.001-0.002-0.003-0.003-0.004c0,0-0.001,0-0.001-0.001c-0.003-0.004-0.006-0.009-0.008-0.014c-0.001,0-0.001,0-0.001,0
			c-0.001-0.001-0.002-0.003-0.004-0.004v-0.001c-0.002-0.004-0.006-0.009-0.008-0.014l0,0c-0.002-0.002-0.002-0.003-0.004-0.005
			l0,0c-0.004-0.005-0.006-0.009-0.01-0.014l0,0c-0.001-0.001-0.002-0.003-0.003-0.004c0,0,0,0-0.001,0
			c-0.004-0.008-0.008-0.014-0.01-0.021l0,0c-0.502-0.785-1.21-1.424-2.051-1.84l0,0c-0.006-0.002-0.01-0.005-0.016-0.007h-0.001
			c-0.001,0-0.003-0.001-0.005-0.002l0,0c-0.005-0.002-0.01-0.005-0.015-0.007l0,0c-0.002,0-0.004-0.001-0.006-0.002
			c0-0.001,0,0,0,0c-0.006-0.002-0.012-0.005-0.017-0.007l0,0c-0.002-0.001-0.003-0.001-0.005-0.002h-0.001
			c-0.005-0.003-0.01-0.006-0.015-0.008c0,0,0,0-0.002,0c0-0.001-0.002-0.001-0.004-0.002c0,0,0,0-0.002,0
			c-0.004-0.002-0.01-0.004-0.014-0.006c-0.001,0-0.001,0-0.002-0.001s-0.003-0.001-0.004-0.002c-0.001,0-0.001,0-0.002,0
			c-0.001-0.001-0.003-0.001-0.004-0.002h-0.001c-0.003-0.001-0.005-0.002-0.009-0.004c0,0-0.002,0-0.002-0.001
			c-0.002-0.001-0.002-0.001-0.004-0.002c0,0-0.002,0-0.002-0.001c-0.002-0.001-0.004-0.001-0.004-0.001
			c-0.002,0-0.002-0.001-0.002-0.001c-0.003-0.001-0.005-0.002-0.008-0.003c-0.001,0-0.002-0.001-0.003-0.001
			s-0.002-0.001-0.003-0.001s-0.002-0.001-0.003-0.001s-0.002-0.001-0.003-0.001c-0.002,0-0.004-0.001-0.006-0.002
			c0-0.001,0,0,0-0.001c-0.004,0-0.004-0.001-0.008-0.002l-0.002-0.001c-0.002,0-0.002-0.001-0.004-0.001
			c0,0-0.002-0.001-0.003-0.001c-0.002-0.001-0.003-0.001-0.005-0.002h-0.001c-0.003-0.001-0.005-0.002-0.007-0.003
			c0,0-0.001,0-0.002-0.001s-0.003-0.001-0.004-0.002c-0.002,0-0.002,0-0.004-0.001s-0.004-0.001-0.006-0.002l0,0
			c-0.002-0.001-0.004-0.002-0.006-0.003c0,0-0.002,0-0.002-0.001c-0.001-0.001-0.003-0.001-0.004-0.002s-0.002,0-0.003-0.001
			c-0.001-0.001-0.003-0.001-0.005-0.002h-0.001c-0.002-0.001-0.005-0.002-0.007-0.003h-0.001c-0.003,0-0.005-0.001-0.008-0.002
			h-0.002c-0.002-0.001-0.004-0.001-0.006-0.002l0,0c-0.002-0.001-0.006-0.002-0.008-0.003c0,0,0,0-0.001,0
			c-0.001-0.001-0.003-0.002-0.005-0.003h-0.001c-0.002,0-0.004-0.001-0.007-0.002l0,0c-0.005-0.002-0.009-0.004-0.015-0.006l0,0
			c-0.008-0.004-0.016-0.006-0.021-0.01l0,0C126.17,55.892,125.919,55.808,125.66,55.745L125.66,55.745z"/>
	</g>
	<g id="Type_Path">
		<line fill="none" x1="14.166" y1="165.999" x2="127.166" y2="115.333"/>
		<g opacity="0.4">
			
				<text transform="matrix(0.8013 -0.3593 0.4091 0.9125 16.0996 165.1309)" fill="#C4DEF4" font-family="'HelveticaNeue'" font-size="26.5403">C</text>
			
				<text transform="matrix(0.8013 -0.3593 0.4091 0.9125 31.4619 158.2432)" fill="#C4DEF4" font-family="'HelveticaNeue'" font-size="26.5403">O</text>
			
				<text transform="matrix(0.8013 -0.3593 0.4091 0.9125 47.624 150.9971)" fill="#C4DEF4" font-family="'HelveticaNeue'" font-size="26.5403">N</text>
			
				<text transform="matrix(0.8013 -0.3593 0.4091 0.9125 62.9907 144.1084)" fill="#C4DEF4" font-family="'HelveticaNeue'" font-size="26.5403">T</text>
			
				<text transform="matrix(0.8013 -0.3593 0.4091 0.9125 75.1963 138.6338)" fill="#C4DEF4" font-family="'HelveticaNeue'" font-size="26.5403">E</text>
			
				<text transform="matrix(0.8013 -0.3593 0.4091 0.9125 88.1992 132.8047)" fill="#C4DEF4" font-family="'HelveticaNeue'" font-size="26.5403">N</text>
			
				<text transform="matrix(0.8013 -0.3593 0.4091 0.9125 103.5615 125.916)" fill="#C4DEF4" font-family="'HelveticaNeue'" font-size="26.5403">T</text>
		</g>
	</g>
</g>
</svg>
