<?xml version="1.0" encoding="utf-8"?>
<!DOCTYPE svg PUBLIC "-//W3C//DTD SVG 1.1//EN" "http://www.w3.org/Graphics/SVG/1.1/DTD/svg11.dtd">
<svg version="1.1" id="Tabs_Top_Layout" xmlns="http://www.w3.org/2000/svg" xmlns:xlink="http://www.w3.org/1999/xlink" x="0px"
	 y="0px" width="150px" height="224px" viewBox="0 0 150 224" enable-background="new 0 0 150 224" xml:space="preserve">
<rect id="Background_Panel" fill-rule="evenodd" clip-rule="evenodd" fill="#FFFFFF" width="150" height="224"/>
<g id="Segmented_Control">
	<path fill-rule="evenodd" clip-rule="evenodd" fill="none" stroke="#0572CE" stroke-width="0.9995" stroke-miterlimit="10" d="
		M8.56,36.49h132.97c1.14,0,2.06,0.92,2.06,2.06v8.93c0,1.14-0.92,2.06-2.06,2.06H8.56c-1.14,0-2.06-0.92-2.06-2.06v-8.93
		C6.5,37.41,7.42,36.49,8.56,36.49z"/>
	<path fill-rule="evenodd" clip-rule="evenodd" fill="#0572CE" d="M8.53,36.49h42.41v13.06H8.53c-1.12,0-2.03-0.92-2.03-2.06v-8.93
		C6.5,37.41,7.41,36.49,8.53,36.49z"/>
	<text transform="matrix(1 0 0 1 110 46.084)" fill="#0572CE" font-family="'HelveticaNeue'" font-size="8">Tab 3</text>
	<text transform="matrix(1 0 0 1 64 46.084)" fill="#0572CE" font-family="'HelveticaNeue'" font-size="8">Tab 2</text>
	<text id="Tab_1" transform="matrix(1 0 0 1 19 46.084)" fill="#FFFFFF" font-family="'HelveticaNeue'" font-size="8">Tab 1</text>
</g>
<g id="Layer_3">
	<rect x="96.04" y="37" fill-rule="evenodd" clip-rule="evenodd" fill="#0572CE" width="1" height="12.25"/>
</g>
<path id="Title" fill-rule="evenodd" clip-rule="evenodd" fill="#F6F6F7" d="M0,0h150.05v30H0V0z"/>
<rect id="Divide" y="29.88" fill-rule="evenodd" clip-rule="evenodd" fill="#F3F3F4" width="150" height="1"/>
<path id="Border" fill-rule="evenodd" clip-rule="evenodd" fill="#D6DFE6" d="M0-0.04h150.05V224H0V-0.04z M0.96,1.03h148v222h-148
	V1.03z"/>
<text transform="matrix(1 0 0 1 68.5835 24)" fill="#333333" font-family="'HelveticaNeue'" font-size="9">Title</text>
<g id="Springboard_Icon_1_">
	<g>
		<path fill-rule="evenodd" clip-rule="evenodd" fill="#0572CE" d="M13.97,24.01H5.04c-0.57,0-1.03,0.45-1.03,1s0.46,1,1.03,1h8.94
			c0.57,0,1.03-0.45,1.03-1S14.54,24.01,13.97,24.01z M13.97,20.01H5.04c-0.57,0-1.03,0.45-1.03,1s0.46,1,1.03,1h8.94
			c0.57,0,1.03-0.45,1.03-1S14.54,20.01,13.97,20.01z M5.04,18.01h8.94c0.57,0,1.03-0.45,1.03-1s-0.46-1-1.03-1H5.04
			c-0.57,0-1.03,0.45-1.03,1S4.47,18.01,5.04,18.01z"/>
	</g>
</g>
</svg>
