<?xml version="1.0" encoding="utf-8"?>
<!DOCTYPE svg PUBLIC "-//W3C//DTD SVG 1.1//EN" "http://www.w3.org/Graphics/SVG/1.1/DTD/svg11.dtd">
<svg version="1.1" id="Tabs_Bottom_Layout" xmlns="http://www.w3.org/2000/svg" xmlns:xlink="http://www.w3.org/1999/xlink" x="0px"
	 y="0px" width="150px" height="224px" viewBox="0 0 150 224" enable-background="new 0 0 150 224" xml:space="preserve">
<rect id="Background_Panel" fill-rule="evenodd" clip-rule="evenodd" fill="#FFFFFF" width="150" height="224"/>
<g id="Nav_Bar">
	<rect id="Nav_Bar_1_" y="184.92" fill="#F6F6F7" width="150" height="39.08"/>
	<path fill="#E2E2E5" d="M150,223.92H0v-39h150V223.92z M149,185.92H1v37h148V185.92z"/>
</g>
<g id="Icons">
	<rect id="Thumbnail" x="117" y="190.02" fill="#FFFFFF" width="24" height="24"/>
	<path fill="#E2E2E5" d="M141,214.02h-24v-24h24V214.02z M140.22,190.8h-22.4v22.4h22.4V190.8z"/>
	<rect id="Thumbnail_14_" x="81.02" y="190.02" fill="#FFFFFF" width="24" height="24"/>
	<path fill="#E2E2E5" d="M105.02,214.02h-24v-24h24V214.02z M104.24,190.8h-22.4v22.4h22.4V190.8z"/>
	<rect id="Thumbnail_11_" x="45.02" y="190.02" fill="#FFFFFF" width="24" height="24"/>
	<path fill="#E2E2E5" d="M69.02,214.02h-24v-24h24V214.02z M68.24,190.8h-22.4v22.4h22.4V190.8z"/>
	<rect id="Thumbnail_8_" x="9.02" y="190.02" fill="#FFFFFF" width="24" height="24"/>
	<path fill="#E2E2E5" d="M33.02,214.02h-24v-24h24V214.02z M32.24,190.8H9.84v22.4h22.4V190.8z"/>
</g>
<g id="Icon_Labels">
	<text transform="matrix(1 0 0 1 120.584 221)" fill="#333333" font-family="'HelveticaNeue'" font-size="6">Icon 4</text>
	<text transform="matrix(1 0 0 1 84.584 221)" fill="#333333" font-family="'HelveticaNeue'" font-size="6">Icon 3</text>
	<text transform="matrix(1 0 0 1 48.5835 221)" fill="#333333" font-family="'HelveticaNeue'" font-size="6">Icon 2</text>
	<text transform="matrix(1 0 0 1 12.5835 221)" fill="#333333" font-family="'HelveticaNeue'" font-size="6">Icon 1</text>
</g>
<path id="Title" fill-rule="evenodd" clip-rule="evenodd" fill="#F6F6F7" d="M0,0h150.05v30H0V0z"/>
<rect id="Divide" y="29.88" fill-rule="evenodd" clip-rule="evenodd" fill="#F3F3F4" width="150" height="1"/>
<path id="Border" fill-rule="evenodd" clip-rule="evenodd" fill="#D6DFE6" d="M0-0.04h150.05V224H0V-0.04z M0.96,1.03h148v222h-148
	V1.03z"/>
<text transform="matrix(1 0 0 1 68.5835 24)" fill="#333333" font-family="'HelveticaNeue'" font-size="9">Title</text>
<g id="Springboard_Icon_2_">
	<g>
		<path fill-rule="evenodd" clip-rule="evenodd" fill="#0572CE" d="M13.97,24.01H5.04c-0.57,0-1.03,0.45-1.03,1s0.46,1,1.03,1h8.94
			c0.57,0,1.03-0.45,1.03-1S14.54,24.01,13.97,24.01z M13.97,20.01H5.04c-0.57,0-1.03,0.45-1.03,1s0.46,1,1.03,1h8.94
			c0.57,0,1.03-0.45,1.03-1S14.54,20.01,13.97,20.01z M5.04,18.01h8.94c0.57,0,1.03-0.45,1.03-1s-0.46-1-1.03-1H5.04
			c-0.57,0-1.03,0.45-1.03,1S4.47,18.01,5.04,18.01z"/>
	</g>
</g>
</svg>
