<?xml version="1.0" encoding="utf-8"?>
<!DOCTYPE svg PUBLIC "-//W3C//DTD SVG 1.1//EN" "http://www.w3.org/Graphics/SVG/1.1/DTD/svg11.dtd">
<svg version="1.1" id="Tabs_Header_Layout" xmlns="http://www.w3.org/2000/svg" xmlns:xlink="http://www.w3.org/1999/xlink" x="0px"
	 y="0px" width="150px" height="224px" viewBox="-7.5 8.5 150 224" enable-background="new -7.5 8.5 150 224" xml:space="preserve">
<rect id="Background_Panel" x="-7.583" y="8.5" fill="#FFFFFF" width="150" height="224"/>
<path id="Title" fill="#F6F6F7" d="M-7.975,8.5h152v30h-152V8.5z"/>
<rect id="Divide" x="-7.975" y="38.38" fill="#D1D1D3" width="151.949" height="1"/>
<text transform="matrix(1 0 0 1 52.584 28.5)" fill="#333333" font-family="'HelveticaNeue'" font-size="14">Title</text>
<g opacity="0.4">
	<path fill="#C4DEF4" d="M131.377,77.516h-5.465v1.822h5.465V77.516L131.377,77.516L131.377,77.516z M120.447,77.516h-5.465v1.822
		h5.465V77.516L120.447,77.516z M109.518,77.516h-5.465v1.822h5.465V77.516L109.518,77.516z M98.589,77.516h-5.465v1.822h5.465
		V77.516L98.589,77.516z M87.659,77.516h-5.465v1.822h5.465V77.516L87.659,77.516z M76.729,77.516h-5.465v1.822h5.465V77.516
		L76.729,77.516z M65.8,77.516h-5.465v1.822H65.8V77.516L65.8,77.516z M54.87,77.516h-5.465v1.822h5.465V77.516L54.87,77.516z
		 M43.941,77.516h-5.465v1.822h5.465V77.516L43.941,77.516z M33.011,77.516h-5.465v1.822h5.465V77.516L33.011,77.516z
		 M22.082,77.516h-5.465v1.822h5.465V77.516L22.082,77.516z M11.152,77.516H5.688v1.822h5.465V77.516L11.152,77.516z M0.405,78.454
		c-0.581,0.387-1.057,0.877-1.388,1.437l0,0c-0.062,0.105-0.119,0.212-0.17,0.322l0,0c-0.001,0.002-0.002,0.004-0.003,0.007l0,0
		c-0.001,0.002-0.002,0.004-0.003,0.007c0,0,0,0,0,0c-0.001,0.002-0.002,0.004-0.003,0.006l0,0c-0.005,0.012-0.01,0.023-0.016,0.034
		c0,0,0,0,0,0c-0.001,0.002-0.002,0.004-0.003,0.006c0,0,0,0,0,0c-0.001,0.002-0.002,0.004-0.003,0.006c0,0,0,0,0,0
		c-0.005,0.011-0.01,0.023-0.015,0.034c0,0,0,0,0,0.001c-0.001,0.002-0.002,0.004-0.003,0.006c0,0,0,0,0,0.001
		c0,0.002-0.001,0.004-0.002,0.006c0,0,0,0,0,0.001c0,0.002-0.001,0.004-0.002,0.006c0,0,0,0,0,0
		c-0.004,0.009-0.008,0.018-0.012,0.027v0c-0.001,0.002-0.002,0.004-0.003,0.006c0,0,0,0,0,0c0,0.002-0.001,0.004-0.002,0.006
		c0,0,0,0,0,0.001c-0.005,0.014-0.011,0.027-0.017,0.041c0,0,0,0,0,0.001c0,0.002-0.001,0.004-0.002,0.006c0,0,0,0,0,0.001
		c-0.001,0.002-0.002,0.004-0.002,0.006c0,0,0,0,0,0c-0.003,0.009-0.007,0.019-0.011,0.028v0c-0.001,0.002-0.002,0.004-0.002,0.006
		c0,0,0,0,0,0.001c0,0.002-0.001,0.004-0.002,0.006c0,0,0,0.001,0,0.001c-0.001,0.002-0.002,0.004-0.002,0.006c0,0,0,0,0,0
		c0,0.002-0.001,0.004-0.002,0.007l0,0c-0.003,0.009-0.007,0.019-0.01,0.028c0,0,0,0.001,0,0.001c0,0.002-0.001,0.004-0.002,0.006
		c0,0,0,0,0,0.001c-0.001,0.002-0.001,0.004-0.002,0.006c0,0,0,0.001,0,0.001c-0.001,0.002-0.001,0.004-0.002,0.006v0
		c-0.001,0.002-0.002,0.005-0.002,0.007l0,0c-0.002,0.005-0.003,0.01-0.005,0.014c0,0,0,0,0,0c0,0.002-0.001,0.004-0.002,0.006
		c0,0,0,0.001,0,0.001c-0.001,0.002-0.001,0.004-0.002,0.005c0,0,0,0.001-0.001,0.002c0,0.001-0.001,0.003-0.002,0.005
		c0,0,0,0,0,0.001c-0.001,0.002-0.001,0.004-0.002,0.006c0,0,0,0,0,0.001c-0.002,0.007-0.005,0.014-0.007,0.021l0,0
		c-0.001,0.002-0.001,0.004-0.002,0.007c0,0,0,0,0,0.001c0,0.002-0.001,0.004-0.001,0.006c0,0,0,0.001,0,0.001
		c-0.001,0.002-0.001,0.003-0.002,0.005c0,0,0,0.001,0,0.002c0,0.001-0.001,0.003-0.002,0.005c0,0,0,0.001,0,0.001
		c0,0.002-0.001,0.004-0.002,0.006c0,0,0,0,0,0.001c-0.002,0.004-0.003,0.009-0.005,0.014l0,0c0,0.002-0.001,0.004-0.002,0.007
		c0,0,0,0.001,0,0.001c0,0.001-0.001,0.003-0.002,0.005c0,0,0,0.001,0,0.001c0,0.002-0.001,0.004-0.001,0.006c0,0,0,0,0,0.001
		c0,0.002-0.001,0.004-0.002,0.006c0,0,0,0.001,0,0.001c0,0.002-0.001,0.004-0.001,0.006c0,0,0,0,0,0.001
		c-0.002,0.007-0.004,0.014-0.006,0.021c0,0,0,0.001,0,0.001c0,0.002-0.001,0.004-0.001,0.005c0,0,0,0.001-0.001,0.002
		c0,0.002-0.001,0.003-0.001,0.005c0,0,0,0.001,0,0.002c0,0.001-0.001,0.003-0.001,0.005c0,0.001,0,0.001,0,0.002
		c0,0.001-0.001,0.003-0.001,0.005c0,0.001,0,0.001,0,0.002c-0.001,0.002-0.001,0.004-0.002,0.006v0
		c-0.001,0.005-0.003,0.009-0.004,0.014c0,0,0,0.001,0,0.001c0,0.002-0.001,0.004-0.001,0.005c0,0.001,0,0.001,0,0.002
		c0,0.001-0.001,0.003-0.001,0.005c0,0,0,0.001,0,0.002c0,0.001-0.001,0.003-0.001,0.005c0,0.001,0,0.001,0,0.002
		c0,0.002-0.001,0.004-0.001,0.005c0,0,0,0.001,0,0.001c0,0.002-0.001,0.004-0.001,0.006c0,0,0,0.001,0,0.001
		c-0.001,0.005-0.002,0.009-0.004,0.014c0,0,0,0,0,0.001c0,0.002-0.001,0.004-0.002,0.006c0,0,0,0.001,0,0.002
		c0,0.001,0,0.003-0.001,0.005c0,0.001,0,0.001,0,0.002c0,0.001-0.001,0.003-0.001,0.005c0,0,0,0.001,0,0.002
		c0,0.002-0.001,0.003-0.001,0.005c0,0,0,0.001,0,0.001c0,0.002-0.001,0.004-0.001,0.006c0,0,0,0.001,0,0.001
		c-0.001,0.005-0.002,0.009-0.003,0.014l0,0c0,0.002-0.001,0.005-0.002,0.007c0,0,0,0.001,0,0.001c0,0.002,0,0.004-0.001,0.006
		c0,0,0,0.001,0,0.002c0,0.001-0.001,0.003-0.001,0.005c0,0,0,0.001,0,0.002c0,0.002-0.001,0.003-0.001,0.005c0,0,0,0.001,0,0.002
		c0,0.001,0,0.003-0.001,0.005c0,0,0,0.001,0,0.001c-0.001,0.005-0.002,0.01-0.003,0.014c0,0,0,0,0,0
		c0,0.002-0.001,0.004-0.002,0.007c0,0,0,0.001,0,0.001c0,0.002-0.001,0.003-0.001,0.005c0,0.001,0,0.001,0,0.002
		c0,0.002,0,0.003-0.001,0.005c0,0,0,0.001,0,0.002c0,0.001-0.001,0.003-0.001,0.005c0,0,0,0.001,0,0.002
		c0,0.001,0,0.003-0.001,0.005c0,0,0,0.001,0,0.002c0,0.002-0.001,0.004-0.001,0.006v0c-0.001,0.005-0.002,0.01-0.003,0.015
		c0,0,0,0.001,0,0.001c0,0.002-0.001,0.004-0.001,0.005c0,0,0,0.001,0,0.002c0,0.002,0,0.003-0.001,0.005c0,0,0,0.001,0,0.002
		c0,0.001,0,0.003-0.001,0.005c0,0.001,0,0.001,0,0.002c0,0.001,0,0.003-0.001,0.005c0,0,0,0.001,0,0.002
		c0,0.001-0.001,0.003-0.001,0.005c0,0,0,0.001,0,0.001c-0.001,0.005-0.002,0.009-0.003,0.014c0,0,0,0.001,0,0.001
		c0,0.002,0,0.004-0.001,0.006c0,0,0,0.001,0,0.002c0,0.001,0,0.003-0.001,0.005c0,0.001,0,0.001,0,0.002
		c0,0.001,0,0.003-0.001,0.005c0,0,0,0.001,0,0.002c0,0.001,0,0.003-0.001,0.005c0,0,0,0.001,0,0.002c0,0.002,0,0.004-0.001,0.005
		c0,0.001,0,0.001,0,0.002c-0.001,0.005-0.001,0.009-0.002,0.014c0,0,0,0.001,0,0.001c0,0.002,0,0.004-0.001,0.006
		c0,0,0,0.001,0,0.002c0,0.001,0,0.003-0.001,0.005c0,0.001,0,0.001,0,0.002c0,0.001,0,0.003,0,0.005c0,0.001,0,0.001,0,0.002
		c0,0.001,0,0.003-0.001,0.005c0,0,0,0.001,0,0.002c0,0.002,0,0.004-0.001,0.005c0,0.001,0,0.001,0,0.002
		c0,0.002,0,0.004-0.001,0.006c0,0,0,0,0,0.001c0,0.002-0.001,0.005-0.001,0.007c0,0,0,0.001,0,0.001
		c0,0.002-0.001,0.004-0.001,0.006c0,0,0,0.001,0,0.002c0,0.002,0,0.003-0.001,0.005c0,0,0,0.001,0,0.002c0,0.002,0,0.003,0,0.005
		c0,0.001,0,0.002,0,0.002c0,0.002,0,0.003-0.001,0.005c0,0.001,0,0.002,0,0.002c0,0.001-0.001,0.003-0.001,0.005
		c0,0.001,0,0.001,0,0.002c0,0.002,0,0.003-0.001,0.005c0,0,0,0.001,0,0.001c0,0.002-0.001,0.005-0.001,0.007c0,0,0,0.001,0,0.001
		c0,0.002,0,0.004-0.001,0.006c0,0,0,0.001,0,0.002c0,0.002-0.001,0.003-0.001,0.005c0,0,0,0.001,0,0.002c0,0.002,0,0.003,0,0.005
		c0,0.001,0,0.002,0,0.002c0,0.001,0,0.003-0.001,0.005c0,0.001,0,0.002,0,0.002c0,0.002,0,0.003-0.001,0.005c0,0,0,0.001,0,0.002
		c0,0.001,0,0.003,0,0.005c0,0.001,0,0.001,0,0.002c0,0.002,0,0.005-0.001,0.007c0,0,0,0,0,0c0,0.002,0,0.004-0.001,0.007
		c0,0.001,0,0.001,0,0.002c0,0.001,0,0.003,0,0.005c0,0.001,0,0.001,0,0.002c0,0.001,0,0.003,0,0.004c0,0.001,0,0.002,0,0.003
		c0,0.001,0,0.003,0,0.004c0,0.001,0,0.002,0,0.003c0,0.001,0,0.003,0,0.004c0,0.001,0,0.002,0,0.003c0,0.001,0,0.003,0,0.005
		c0,0.001,0,0.001,0,0.002c0,0.005-0.001,0.01-0.001,0.015c0,0,0,0.001,0,0.001c0,0.002,0,0.004,0,0.006c0,0,0,0.001,0,0.002
		c0,0.002,0,0.003,0,0.005c0,0.001,0,0.002,0,0.002c0,0.002,0,0.003-0.001,0.005c0,0.001,0,0.002,0,0.003c0,0.001,0,0.003,0,0.004
		c0,0.001,0,0.001,0,0.002c0,0.002,0,0.003,0,0.005c0,0,0,0.001,0,0.002c0,0.005-0.001,0.01-0.001,0.015c0,0,0,0.001,0,0.001
		c0,0.002,0,0.004-0.001,0.006c0,0,0,0.001,0,0.002c0,0.002,0,0.003,0,0.005c0,0.001,0,0.002,0,0.003c0,0.001,0,0.003,0,0.004
		c0,0.001,0,0.002,0,0.003c0,0.001,0,0.003,0,0.004c0,0.001,0,0.002,0,0.003c0,0.001,0,0.003,0,0.005c0,0,0,0.001,0,0.002
		c0,0.001,0,0.003,0,0.005c0,0,0,0.001,0,0.001c0,0.002,0,0.005,0,0.007c0,0,0,0.001,0,0.001c0,0.002,0,0.004-0.001,0.006
		c0,0.001,0,0.001,0,0.002c0,0.001,0,0.003,0,0.005c0,0.001,0,0.002,0,0.003c0,0.001,0,0.003,0,0.004c0,0.001,0,0.002,0,0.003
		c0,0.001,0,0.003,0,0.004c0,0.001,0,0.002,0,0.003c0,0.001,0,0.003,0,0.004c0,0.001,0,0.001,0,0.002c0,0.002,0,0.004,0,0.005
		c0,0.001,0,0.001,0,0.002c0,0.002,0,0.005-0.001,0.007v0c0,0.002,0,0.005,0,0.007c0,0,0,0.001,0,0.002c0,0.002,0,0.003,0,0.005
		c0,0.001,0,0.002,0,0.003c0,0.001,0,0.003,0,0.004c0,0.001,0,0.002,0,0.003c0,0.001,0,0.003,0,0.004c0,0.001,0,0.002,0,0.003
		c0,0.001,0,0.003,0,0.004c0,0.001,0,0.001,0,0.003c0,0.001,0,0.003,0,0.004c0,0.001,0,0.002,0,0.003c0,0.002,0,0.004,0,0.007l0,0
		c0,0.002,0,0.005,0,0.007c0,0.001,0,0.001,0,0.002c0,0.002,0,0.004,0,0.005c0,0.001,0,0.002,0,0.003c0,0.001,0,0.003,0,0.004
		c0,0.001,0,0.002,0,0.003c0,0.001,0,0.003,0,0.004c0,0.001,0,0.002,0,0.003c0,0.001,0,0.003,0,0.004c0,0.001,0,0.002,0,0.003
		c0,0.002,0,0.003,0,0.005c0,0,0,0.001,0,0.002c0,0.002,0,0.004,0,0.006c0,0,0,0.001,0,0.001c0,0.002,0,0.005,0,0.007
		c0,0,0,0.001,0,0.002c0,0.002,0,0.003,0,0.005c0,0.001,0,0.002,0,0.003c0,0.001,0,0.003,0,0.004c0,0.001,0,0.002,0,0.003
		c0,0.001,0,0.003,0,0.004c0,0.001,0,0.002,0,0.003c0,0.001,0,0.003,0,0.004c0,0.001,0,0.002,0,0.003c0,0.001,0,0.003,0,0.004
		c0,0.001,0,0.002,0,0.003c0,0.002,0,0.003,0,0.005c0,0,0,0.001,0,0.002c0,0.002,0,0.005,0,0.007c0,0,0,0.001,0,0.001
		c0,0.002,0,0.004,0,0.006c0,0.001,0,0.002,0,0.002c0,0.002,0,0.003,0,0.005c0,0.001,0,0.002,0,0.003c0,0.001,0,0.003,0,0.004
		c0,0.001,0,0.002,0,0.003c0,0.001,0,0.003,0,0.004c0,0.001,0,0.002,0,0.003c0,0.001,0,0.003,0,0.005c0,0.001,0,0.001,0,0.002
		c0,0.002,0,0.003,0,0.005c0,0.001,0,0.002,0,0.002c0,0.002,0,0.005,0,0.007c0,0,0,0,0,0.001c0,0.002,0,0.004,0,0.006
		c0,0.001,0,0.002,0,0.002c0,0.002,0,0.003,0,0.005c0,0.001,0,0.002,0,0.003c0,0.001,0,0.003,0,0.004c0,0.001,0,0.002,0,0.003
		c0,0.001,0,0.003,0,0.004c0,0.001,0,0.002,0,0.003c0,0.001,0,0.003,0,0.004c0,0.001,0,0.002,0,0.003c0,0.001,0,0.003,0,0.005
		c0,0,0,0.001,0,0.002c0,0.002,0,0.005,0,0.007l0,0v1.503h1.822v-1.503c0-0.664,0.398-1.311,1.094-1.775L0.405,78.454L0.405,78.454z
		 M0.322,88.712H-1.5v5.464h1.822V88.712L0.322,88.712z M0.322,99.641H-1.5v5.465h1.822V99.641L0.322,99.641z M0.322,110.571H-1.5
		v5.464h1.822V110.571L0.322,110.571z M0.322,121.5H-1.5v5.465h1.822V121.5L0.322,121.5z M0.322,132.43H-1.5v5.465h1.822V132.43
		L0.322,132.43z M0.322,143.359H-1.5v5.465h1.822V143.359L0.322,143.359z M0.322,154.289H-1.5v5.465h1.822V154.289L0.322,154.289z
		 M0.322,165.219H-1.5v5.465h1.822V165.219L0.322,165.219z M0.322,176.147H-1.5v5.465h1.822V176.147L0.322,176.147z M0.322,187.077
		H-1.5v5.465h1.822V187.077L0.322,187.077z M0.322,198.007H-1.5v5.465h1.822V198.007L0.322,198.007z M0.322,208.937H-1.5v5.465
		h1.822V208.937L0.322,208.937z M0.344,219.567l-1.797,0.296c0.121,0.731,0.468,1.403,0.982,1.966l0,0
		c0.005,0.006,0.009,0.011,0.014,0.016l0,0c0.005,0.005,0.009,0.01,0.014,0.015c0,0.001,0,0.001,0,0.001
		c0.004,0.005,0.009,0.01,0.014,0.015l0,0c0.005,0.005,0.009,0.011,0.014,0.016h0c0.004,0.005,0.009,0.01,0.014,0.015c0,0,0,0,0,0
		c0.005,0.005,0.009,0.01,0.014,0.015l0,0.001c0.001,0.001,0.002,0.002,0.003,0.003v0.001c0.003,0.003,0.007,0.007,0.01,0.011
		c0,0,0,0,0.001,0c0.001,0.001,0.002,0.003,0.003,0.004l0,0c0.003,0.004,0.007,0.007,0.01,0.011c0,0,0,0,0.001,0.001
		c0.001,0.001,0.002,0.002,0.003,0.003l0,0c0.003,0.004,0.007,0.007,0.01,0.011c0,0,0,0,0.001,0.001
		c0.001,0.001,0.002,0.002,0.003,0.003c0,0,0,0,0,0.001c0.003,0.003,0.007,0.007,0.01,0.01c0,0,0.001,0.001,0.001,0.001
		c0.001,0.001,0.002,0.002,0.003,0.003l0,0.001c0.003,0.003,0.007,0.007,0.01,0.01c0,0,0,0.001,0.001,0.001
		c0.001,0.001,0.002,0.002,0.003,0.003c0,0,0,0.001,0.001,0.001c0.003,0.003,0.006,0.007,0.01,0.01c0,0,0.001,0.001,0.001,0.001
		c0,0.001,0.001,0.002,0.002,0.003c0,0,0.001,0.001,0.001,0.001c0.001,0.001,0.002,0.002,0.003,0.003l0,0
		c0.002,0.003,0.004,0.005,0.006,0.007c0,0,0.001,0.001,0.001,0.001c0.001,0.001,0.002,0.002,0.003,0.003
		c0,0,0.001,0.001,0.001,0.001c0.001,0.001,0.002,0.002,0.003,0.003c0,0,0,0.001,0.001,0.001c0.001,0.002,0.003,0.004,0.005,0.005
		c0.001,0.001,0.001,0.002,0.002,0.002c0.001,0.001,0.002,0.002,0.002,0.003c0,0,0.001,0.001,0.002,0.001
		c0.001,0.001,0.002,0.002,0.002,0.003c0,0,0.001,0.001,0.002,0.002c0.001,0.001,0.003,0.003,0.005,0.005c0,0,0.001,0,0.001,0.001
		c0.001,0.001,0.002,0.002,0.003,0.003c0,0,0.001,0.001,0.001,0.001c0.001,0.001,0.001,0.002,0.002,0.003
		c0.001,0,0.001,0.001,0.002,0.002c0.001,0.001,0.003,0.002,0.004,0.004c0,0,0.001,0.001,0.002,0.002
		c0.001,0.001,0.002,0.001,0.002,0.002c0.001,0.001,0.001,0.001,0.002,0.002c0.001,0.001,0.002,0.002,0.003,0.002
		c0,0.001,0.001,0.002,0.001,0.002c0.001,0.002,0.003,0.003,0.004,0.004s0.002,0.002,0.003,0.003c0,0,0.001,0.001,0.002,0.002
		c0.001,0,0.001,0.001,0.002,0.002c0,0.001,0.001,0.001,0.002,0.002c0,0.001,0.001,0.001,0.002,0.002
		c0.001,0.001,0.001,0.002,0.002,0.002c0.001,0.002,0.002,0.003,0.004,0.004c0.001,0.001,0.001,0.001,0.002,0.002
		c0.001,0.001,0.002,0.002,0.003,0.003c0,0,0.001,0.001,0.002,0.002c0.001,0,0.001,0.001,0.002,0.002s0.001,0.001,0.002,0.002
		c0.001,0.001,0.003,0.003,0.004,0.004c0,0.001,0.001,0.001,0.002,0.002c0.001,0.001,0.002,0.001,0.002,0.002
		c0.001,0.001,0.001,0.001,0.002,0.002c0,0.001,0.001,0.002,0.002,0.002c0.001,0.001,0.002,0.002,0.002,0.003
		c0.001,0.001,0.003,0.002,0.004,0.003c0,0.001,0.001,0.002,0.002,0.002c0.001,0.001,0.001,0.002,0.002,0.002
		c0,0.001,0.001,0.002,0.002,0.003c0,0,0.001,0.001,0.002,0.002c0.001,0.001,0.001,0.001,0.002,0.002
		c0.001,0.001,0.002,0.002,0.004,0.003c0,0.001,0.001,0.002,0.002,0.003c0,0,0.001,0.001,0.002,0.002
		c0,0.001,0.001,0.001,0.002,0.002c0.001,0.001,0.002,0.002,0.003,0.002c0,0.001,0.001,0.002,0.002,0.002
		c0.001,0.002,0.003,0.003,0.004,0.004c0,0.001,0,0.001,0.001,0.001c0.001,0.001,0.002,0.002,0.003,0.003
		c0,0.001,0.001,0.002,0.002,0.002c0.001,0.001,0.002,0.002,0.003,0.003c0,0,0.001,0.001,0.002,0.002
		c0.001,0.001,0.002,0.002,0.003,0.003c0.001,0,0.001,0.001,0.003,0.002c0.001,0.001,0.001,0.002,0.002,0.003
		c0.001,0,0.001,0.001,0.002,0.002c0,0,0.001,0.001,0.002,0.002c0,0.001,0.001,0.001,0.002,0.002
		c0.001,0.001,0.002,0.002,0.004,0.003c0,0.001,0.001,0.001,0.001,0.001c0.001,0.002,0.003,0.003,0.004,0.004
		c0,0.001,0.001,0.001,0.002,0.002c0.001,0.001,0.002,0.002,0.002,0.002c0.001,0.001,0.001,0.002,0.002,0.002
		c0.001,0.001,0.002,0.002,0.003,0.003c0,0.001,0.001,0.001,0.001,0.001c0.001,0.002,0.003,0.003,0.004,0.004
		s0.001,0.001,0.002,0.002c0.001,0.001,0.002,0.002,0.003,0.002c0,0.001,0.001,0.002,0.002,0.002
		c0.001,0.002,0.003,0.003,0.004,0.004c0,0,0,0,0,0c0.001,0.002,0.003,0.003,0.004,0.004c0,0.001,0.001,0.001,0.002,0.002
		c0.001,0.001,0.002,0.002,0.003,0.003c0,0,0.001,0.001,0.002,0.001c0.001,0.001,0.002,0.002,0.003,0.003
		c0,0.001,0.001,0.001,0.001,0.002c0.001,0.001,0.003,0.002,0.004,0.004c0,0,0.001,0.001,0.002,0.001
		c0.001,0.001,0.002,0.002,0.003,0.003c0,0,0.001,0.001,0.002,0.001c0.001,0.001,0.002,0.003,0.003,0.004c0,0,0.001,0,0.001,0
		c0.002,0.002,0.003,0.003,0.005,0.005c0,0,0.001,0.001,0.002,0.001c0.001,0.001,0.002,0.002,0.003,0.003
		c0,0,0.001,0.001,0.002,0.001c0.001,0.001,0.002,0.002,0.003,0.003c0,0.001,0.001,0.001,0.001,0.002
		c0.001,0.001,0.003,0.002,0.004,0.004c0,0,0.001,0,0.001,0.001c0.001,0.001,0.002,0.002,0.003,0.003
		c0.001,0,0.001,0.001,0.002,0.001c0.001,0.001,0.002,0.002,0.004,0.003c0,0.001,0,0.001,0.001,0.001
		c0.001,0.002,0.003,0.003,0.005,0.004c0,0.001,0.001,0.001,0.001,0.002c0.001,0.001,0.002,0.002,0.004,0.003
		c0,0,0.001,0.001,0.001,0.001c0.001,0.001,0.002,0.002,0.003,0.003c0,0,0.001,0.001,0.002,0.001
		c0.001,0.002,0.003,0.003,0.004,0.004c0,0.001,0.001,0.001,0.001,0.001c0.001,0.001,0.003,0.002,0.004,0.003
		c0,0.001,0.001,0.001,0.002,0.002c0.001,0.001,0.002,0.002,0.004,0.003c0,0,0,0.001,0.001,0.001
		c0.001,0.001,0.003,0.003,0.005,0.004c0,0,0,0,0,0.001c0.001,0.001,0.003,0.002,0.005,0.003c0,0.001,0,0.001,0.001,0.001
		c0.001,0.001,0.003,0.003,0.004,0.004c0,0,0.001,0,0.001,0.001c0.003,0.002,0.007,0.005,0.01,0.008c0,0,0.001,0.001,0.001,0.001
		c0.001,0.001,0.003,0.002,0.004,0.004c0,0,0,0,0,0c0.003,0.003,0.007,0.006,0.011,0.009l0,0c0.002,0.001,0.003,0.003,0.005,0.004
		c0,0,0,0.001,0.001,0.001c0.003,0.003,0.007,0.005,0.01,0.008c0,0,0.001,0.001,0.001,0.001c0.001,0.001,0.003,0.002,0.004,0.004
		c0,0,0,0,0.001,0c0.001,0.002,0.003,0.003,0.005,0.004h0c0.002,0.002,0.003,0.003,0.005,0.005l0,0
		c0.002,0.001,0.003,0.003,0.005,0.004c0,0,0,0,0,0.001c0.003,0.002,0.007,0.005,0.011,0.008h0c0.001,0.002,0.003,0.003,0.005,0.005
		c0,0,0,0,0,0c0.005,0.004,0.011,0.008,0.016,0.013c0,0,0.001,0,0.001,0c0.002,0.002,0.003,0.003,0.005,0.004c0,0,0,0,0,0.001
		c0.004,0.002,0.007,0.005,0.011,0.008l0,0c0.006,0.005,0.011,0.009,0.017,0.013c0,0,0,0.001,0,0.001
		c0.002,0.001,0.003,0.002,0.005,0.004l0,0c0.601,0.451,1.332,0.787,2.141,0.963l0.387-1.779
		C1.447,221.323,0.5,220.508,0.344,219.567L0.344,219.567z M13.234,221.694H7.769v1.821h5.465V221.694L13.234,221.694z
		 M24.164,221.694h-5.465v1.821h5.465V221.694L24.164,221.694z M35.093,221.694h-5.465v1.821h5.465V221.694L35.093,221.694z
		 M46.022,221.694h-5.465v1.821h5.465V221.694L46.022,221.694z M56.952,221.694h-5.465v1.821h5.465V221.694L56.952,221.694z
		 M67.881,221.694h-5.465v1.821h5.465V221.694L67.881,221.694z M78.811,221.694h-5.464v1.821h5.464V221.694L78.811,221.694z
		 M89.74,221.694h-5.465v1.821h5.465V221.694L89.74,221.694z M100.67,221.694h-5.465v1.821h5.465V221.694L100.67,221.694z
		 M111.6,221.694h-5.465v1.821h5.465V221.694L111.6,221.694z M122.529,221.694h-5.465v1.821h5.465V221.694L122.529,221.694z
		 M132.804,221.452c-0.447,0.16-0.928,0.242-1.427,0.242h-3.383v1.821h3.383c0.003,0,0.006,0,0.009,0c0.001,0,0.001,0,0.003,0
		c0.001,0,0.003,0,0.005,0c0.001,0,0.002,0,0.003,0c0.002,0,0.004,0,0.006,0c0.001,0,0.002,0,0.003,0c0.002,0,0.004,0,0.005,0
		c0.002,0,0.003,0,0.004,0c0.002,0,0.003,0,0.005,0c0.001,0,0.002,0,0.003,0c0.002,0,0.004,0,0.006,0c0.001,0,0.002,0,0.003,0
		c0.002,0,0.003,0,0.005,0c0.001,0,0.003,0,0.004,0s0.003,0,0.005,0c0.001,0,0.002,0,0.004,0c0.001,0,0.003,0,0.004,0
		c0.002,0,0.003,0,0.004-0.001c0.002,0,0.003,0,0.005,0c0.001,0,0.002,0,0.004,0c0.001,0,0.003,0,0.004,0c0.002,0,0.003,0,0.004,0
		c0.002,0,0.004,0,0.005,0s0.003,0,0.004,0s0.003,0,0.005,0c0.001,0,0.002,0,0.003,0c0.002,0,0.004,0,0.005,0
		c0.002,0,0.003,0,0.004,0c0.002,0,0.003,0,0.005,0c0.001,0,0.002,0,0.004,0c0.001,0,0.003,0,0.004,0
		c0.002,0,0.003-0.001,0.004-0.001c0.002,0,0.003,0,0.005,0c0.001,0,0.003,0,0.004,0s0.003,0,0.004,0c0.002,0,0.003,0,0.005,0
		c0.001,0,0.002,0,0.004,0c0.001,0,0.002,0,0.004,0c0.001,0,0.003,0,0.004,0c0.002,0,0.003,0,0.005,0c0.001,0,0.002,0,0.004,0
		c0.001-0.001,0.003-0.001,0.004-0.001s0.003,0,0.004,0c0.002,0,0.003,0,0.005,0c0.001,0,0.003,0,0.004,0s0.003,0,0.004,0
		c0.002,0,0.003,0,0.005,0c0.001,0,0.002,0,0.004,0c0.001,0,0.003,0,0.004-0.001c0.001,0,0.003,0,0.004,0c0.002,0,0.003,0,0.005,0
		c0.001,0,0.002,0,0.004,0c0.001,0,0.003,0,0.004,0s0.003,0,0.004,0c0.002,0,0.003,0,0.005,0c0.001,0,0.002-0.001,0.004-0.001
		c0.001,0,0.003,0,0.004,0c0.002,0,0.003,0,0.004,0c0.002,0,0.003,0,0.005,0c0.001,0,0.002,0,0.004,0c0.001,0,0.003,0,0.005,0
		c0.001-0.001,0.002-0.001,0.003-0.001c0.002,0,0.003,0,0.005,0c0.001,0,0.002,0,0.004,0c0.001,0,0.003,0,0.005,0
		c0.001,0,0.002,0,0.003,0c0.002,0,0.004,0,0.005-0.001c0.002,0,0.002,0,0.004,0s0.004,0,0.006,0c0,0,0.001,0,0.002,0
		c0.002,0,0.004,0,0.006,0c0.001,0,0.002,0,0.003-0.001c0.002,0,0.005,0,0.008,0l0,0c0.008,0,0.017-0.001,0.025-0.001
		c0,0,0,0,0.001,0c0.002,0,0.005-0.001,0.007-0.001h0.001c0.002,0,0.005,0,0.008,0c0,0,0,0,0.001,0c0.002,0,0.005-0.001,0.007-0.001
		c0.001,0,0.001,0,0.001,0c0.003,0,0.005,0,0.007,0c0.001,0,0.002,0,0.003,0c0.002,0,0.004-0.001,0.006-0.001
		c0.001,0,0.002,0,0.002,0c0.002,0,0.004,0,0.006,0c0.001,0,0.002,0,0.003,0c0.002,0,0.004-0.001,0.006-0.001
		c0.001,0,0.002,0,0.003,0s0.003,0,0.005,0c0.001,0,0.002,0,0.003,0c0.002-0.001,0.004-0.001,0.006-0.001c0.001,0,0.002,0,0.003,0
		c0.002,0,0.003,0,0.005,0c0.001,0,0.002,0,0.003-0.001c0.002,0,0.004,0,0.006,0c0.001,0,0.002,0,0.003,0s0.003,0,0.005,0
		c0.001-0.001,0.002-0.001,0.003-0.001c0.002,0,0.004,0,0.005,0c0.002,0,0.003,0,0.004,0s0.003-0.001,0.005-0.001
		c0.001,0,0.002,0,0.003,0c0.002,0,0.004,0,0.005,0c0.002,0,0.002,0,0.004-0.001c0.001,0,0.003,0,0.005,0c0.001,0,0.002,0,0.003,0
		c0.002,0,0.004,0,0.005-0.001c0.001,0,0.002,0,0.003,0c0.002,0,0.004,0,0.006,0c0.001,0,0.002,0,0.003,0
		c0.001-0.001,0.003-0.001,0.005-0.001c0.001,0,0.002,0,0.003,0c0.002,0,0.004,0,0.006-0.001c0,0,0.002,0,0.003,0s0.003,0,0.005,0
		c0.001,0,0.002,0,0.003,0c0.002-0.001,0.004-0.001,0.006-0.001c0.001,0,0.001,0,0.002,0c0.002,0,0.004,0,0.006-0.001
		c0.001,0,0.002,0,0.003,0c0.002,0,0.003,0,0.005,0c0.001,0,0.002-0.001,0.003-0.001c0.002,0,0.004,0,0.006,0
		c0.001,0,0.001,0,0.002,0c0.002,0,0.004-0.001,0.006-0.001c0.001,0,0.002,0,0.003,0c0.002,0,0.004,0,0.006-0.001
		c0.001,0,0.002,0,0.002,0c0.002,0,0.004,0,0.006,0c0.001,0,0.002-0.001,0.003-0.001c0.002,0,0.004,0,0.006,0
		c0.001,0,0.001,0,0.002,0c0.002-0.001,0.004-0.001,0.007-0.001h0.001c0.003,0,0.005-0.001,0.008-0.001c0,0,0,0,0.001,0
		c0.002,0,0.004,0,0.007-0.001h0.001c0.003,0,0.005,0,0.008,0c0-0.001,0-0.001,0-0.001c0.022-0.002,0.044-0.004,0.066-0.007l0,0
		c0.003,0,0.005,0,0.008,0c0,0,0,0,0.001,0c0.002-0.001,0.005-0.001,0.007-0.001c0.001,0,0.001,0,0.002,0
		c0.002-0.001,0.004-0.001,0.007-0.001h0.001c0.003-0.001,0.005-0.001,0.007-0.001c0,0,0.001,0,0.002,0
		c0.002-0.001,0.004-0.001,0.006-0.001c0.001,0,0.001,0,0.002,0c0.002-0.001,0.004-0.001,0.007-0.001h0.001
		c0.002-0.001,0.005-0.001,0.007-0.001c0.001,0,0.001,0,0.002,0c0.002-0.001,0.004-0.001,0.006-0.001c0.001,0,0.001,0,0.002,0
		c0.002-0.001,0.004-0.001,0.006-0.001c0.001,0,0.002,0,0.003,0c0.002-0.001,0.004-0.001,0.006-0.001c0,0,0.001,0,0.002,0
		c0.002-0.001,0.004-0.001,0.006-0.001c0.001,0,0.001,0,0.002,0c0.002-0.001,0.004-0.001,0.006-0.001c0.001,0,0.002,0,0.002,0
		c0.002-0.001,0.005-0.001,0.007-0.001c0,0,0.001,0,0.002,0c0.002-0.001,0.004-0.001,0.006-0.001c0.001,0,0.001,0,0.002-0.001
		c0.002,0,0.004,0,0.006,0c0.001,0,0.002-0.001,0.003-0.001c0.002,0,0.003,0,0.005,0c0.001,0,0.002-0.001,0.003-0.001
		c0.002,0,0.004,0,0.006,0c0.001-0.001,0.001-0.001,0.002-0.001c0.002,0,0.004,0,0.006-0.001c0.001,0,0.002,0,0.002,0
		c0.002,0,0.004,0,0.006-0.001c0.001,0,0.002,0,0.003,0c0.002,0,0.004-0.001,0.006-0.001c0,0,0.001,0,0.002,0
		c0.002,0,0.004-0.001,0.006-0.001c0.001,0,0.001,0,0.002,0c0.002-0.001,0.004-0.001,0.006-0.001c0.001,0,0.002,0,0.002,0
		c0.002-0.001,0.004-0.001,0.006-0.001c0.001,0,0.002,0,0.003-0.001c0.002,0,0.004,0,0.006,0c0-0.001,0.001-0.001,0.002-0.001
		c0.002,0,0.004,0,0.006-0.001c0.001,0,0.001,0,0.002,0c0.002,0,0.004-0.001,0.007-0.001h0.001c0.002,0,0.005-0.001,0.007-0.001
		h0.001c0.003-0.001,0.005-0.001,0.008-0.001l0,0c0.003-0.001,0.005-0.001,0.008-0.002c0,0,0,0,0.001,0c0.002,0,0.005,0,0.007-0.001
		c0.001,0,0.001,0,0.001,0c0.002,0,0.005-0.001,0.007-0.001c0.001,0,0.001,0,0.001,0c0.017-0.003,0.032-0.005,0.049-0.008l0,0
		c0.005-0.001,0.011-0.002,0.016-0.002c0.001-0.001,0.001-0.001,0.001-0.001c0.003,0,0.005,0,0.007-0.001c0.001,0,0.001,0,0.001,0
		c0.003,0,0.005-0.001,0.007-0.001c0.001,0,0.002,0,0.002,0c0.002-0.001,0.004-0.001,0.007-0.002c0,0,0,0,0.001,0
		c0.002,0,0.004,0,0.007-0.001c0,0,0.001,0,0.002,0c0.002-0.001,0.004-0.001,0.006-0.001c0,0,0.001,0,0.002-0.001
		c0.002,0,0.004,0,0.006-0.001c0.001,0,0.002,0,0.002,0c0.002,0,0.004-0.001,0.006-0.001c0.001,0,0.002,0,0.003,0
		c0.002-0.001,0.003-0.001,0.005-0.001c0.001,0,0.002-0.001,0.003-0.001c0.002,0,0.003,0,0.005-0.001c0.001,0,0.002,0,0.003,0
		c0.002-0.001,0.003-0.001,0.005-0.001c0.001,0,0.002-0.001,0.003-0.001c0.002,0,0.004,0,0.005-0.001c0.001,0,0.002,0,0.003,0
		c0.002,0,0.004-0.001,0.005-0.001s0.003,0,0.004-0.001c0.001,0,0.003,0,0.004-0.001c0.002,0,0.003,0,0.004,0
		s0.003-0.001,0.004-0.001c0.002,0,0.003,0,0.004-0.001c0.001,0,0.003,0,0.004,0c0.002-0.001,0.003-0.001,0.004-0.001
		s0.003-0.001,0.004-0.001c0.002,0,0.003,0,0.004-0.001c0.002,0,0.003,0,0.004,0c0.002-0.001,0.003-0.001,0.004-0.001
		c0.002,0,0.003-0.001,0.004-0.001c0.002,0,0.003,0,0.004-0.001c0.002,0,0.003,0,0.005,0c0.001-0.001,0.002-0.001,0.003-0.001
		c0.002,0,0.003-0.001,0.005-0.001c0.001,0,0.002,0,0.003-0.001c0.002,0,0.003,0,0.005,0c0.001-0.001,0.002-0.001,0.004-0.001
		c0.001,0,0.002-0.001,0.003-0.001c0.002,0,0.003,0,0.005-0.001c0.001,0,0.002,0,0.003,0c0.002-0.001,0.003-0.001,0.005-0.001
		c0.001,0,0.002-0.001,0.003-0.001c0.002,0,0.003-0.001,0.005-0.001c0.001,0,0.002,0,0.003-0.001c0.002,0,0.003,0,0.005,0
		c0.001-0.001,0.002-0.001,0.003-0.001c0.002,0,0.003-0.001,0.005-0.001c0.001,0,0.002,0,0.003-0.001c0.002,0,0.003,0,0.005-0.001
		c0.001,0,0.002,0,0.003,0c0.002-0.001,0.003-0.001,0.005-0.001c0.001,0,0.002-0.001,0.003-0.001s0.003-0.001,0.005-0.001
		c0.001,0,0.001,0,0.002,0c0.002-0.001,0.004-0.001,0.006-0.001c0-0.001,0.001-0.001,0.001-0.001c0.003,0,0.005-0.001,0.007-0.001
		l0,0c0.031-0.007,0.062-0.013,0.092-0.02l0,0c0.003-0.001,0.005-0.001,0.007-0.002c0.001,0,0.001,0,0.001,0
		c0.003-0.001,0.005-0.001,0.007-0.002c0.001,0,0.001,0,0.001,0c0.002,0,0.005-0.001,0.007-0.001l0.001-0.001
		c0.002,0,0.005-0.001,0.007-0.001c0,0,0,0,0.001,0c0.002-0.001,0.005-0.001,0.007-0.002l0,0c0.005-0.001,0.011-0.002,0.016-0.004
		l0,0c0.002,0,0.005-0.001,0.008-0.001l0,0c0.002-0.001,0.005-0.002,0.007-0.002l0,0c0.22-0.052,0.434-0.115,0.64-0.188
		L132.804,221.452L132.804,221.452z M136.5,213.639h-1.821v5.465h1.821V213.639L136.5,213.639z M136.5,202.709h-1.821v5.465h1.821
		V202.709L136.5,202.709z M136.5,191.779h-1.821v5.465h1.821V191.779L136.5,191.779z M136.5,180.85h-1.821v5.465h1.821V180.85
		L136.5,180.85z M136.5,169.921h-1.821v5.465h1.821V169.921L136.5,169.921z M136.5,158.991h-1.821v5.465h1.821V158.991
		L136.5,158.991z M136.5,148.062h-1.821v5.465h1.821V148.062L136.5,148.062z M136.5,137.132h-1.821v5.465h1.821V137.132
		L136.5,137.132z M136.5,126.202h-1.821v5.465h1.821V126.202L136.5,126.202z M136.5,115.272h-1.821v5.465h1.821V115.272
		L136.5,115.272z M136.5,104.343h-1.821v5.465h1.821V104.343L136.5,104.343z M136.5,93.414h-1.821v5.464h1.821V93.414L136.5,93.414z
		 M136.5,82.484h-1.821v5.465h1.821V82.484L136.5,82.484z M131.377,77.516v1.822c0.629,0,1.242,0.133,1.772,0.386l0.783-1.645
		c-0.05-0.024-0.101-0.047-0.151-0.069l0,0c-0.009-0.004-0.018-0.008-0.027-0.012l0,0c-0.009-0.004-0.018-0.008-0.026-0.011
		c-0.001,0-0.001,0-0.001,0c-0.003-0.001-0.006-0.002-0.009-0.003c0,0,0,0,0,0c-0.006-0.002-0.012-0.005-0.018-0.007l-0.001,0
		c-0.003-0.001-0.006-0.002-0.008-0.003c-0.001,0-0.001,0-0.001,0c-0.006-0.002-0.012-0.005-0.018-0.007c0,0-0.001,0-0.002-0.001
		c-0.002-0.001-0.004-0.002-0.007-0.003c0,0-0.001,0-0.002,0c-0.005-0.002-0.011-0.004-0.017-0.007c-0.001,0-0.001,0-0.002-0.001
		c-0.002-0.001-0.004-0.002-0.007-0.002c0,0-0.001-0.001-0.002-0.001c-0.006-0.002-0.011-0.005-0.017-0.007
		c-0.001,0-0.002,0-0.002-0.001c-0.002-0.001-0.005-0.001-0.007-0.002c-0.001,0-0.002,0-0.002-0.001
		c-0.003-0.001-0.006-0.002-0.008-0.003c-0.001,0-0.001,0-0.001,0c-0.003-0.001-0.006-0.002-0.009-0.003c0,0-0.001,0-0.002-0.001
		c-0.002,0-0.004-0.001-0.006-0.002c-0.001,0-0.002-0.001-0.003-0.001c-0.002,0-0.004-0.001-0.006-0.002
		c-0.001,0-0.002,0-0.003-0.001c-0.002-0.001-0.005-0.002-0.008-0.003c-0.001,0-0.002,0-0.002-0.001
		c-0.002-0.001-0.004-0.001-0.006-0.002c-0.001,0-0.003,0-0.004-0.001c-0.002-0.001-0.003-0.001-0.005-0.002
		c-0.001,0-0.002,0-0.003-0.001c-0.003-0.001-0.006-0.002-0.008-0.003c-0.001,0-0.002-0.001-0.004-0.001
		c-0.001-0.001-0.003-0.001-0.005-0.002c-0.001-0.001-0.002-0.001-0.004-0.001c-0.001-0.001-0.003-0.001-0.004-0.002
		c-0.002,0-0.003-0.001-0.004-0.001c-0.002-0.001-0.005-0.001-0.007-0.002c-0.001,0-0.003-0.001-0.004-0.001
		c-0.002-0.001-0.004-0.001-0.005-0.002c-0.002,0-0.003-0.001-0.005-0.001c-0.001,0-0.002-0.001-0.004-0.002
		c-0.001,0-0.003-0.001-0.004-0.001c-0.002,0-0.003-0.001-0.005-0.001c-0.002-0.001-0.004-0.002-0.007-0.002
		c-0.001,0-0.003-0.001-0.004-0.002c-0.002,0-0.003-0.001-0.005-0.001c-0.001,0-0.002-0.001-0.003-0.001
		c-0.002,0-0.004-0.001-0.005-0.001s-0.003-0.001-0.004-0.001c-0.003-0.001-0.006-0.002-0.008-0.003
		c-0.002,0-0.003-0.001-0.004-0.001c-0.002,0-0.003-0.001-0.005-0.001c-0.001,0-0.002-0.001-0.003-0.001
		c-0.002,0-0.004-0.001-0.005-0.001s-0.002-0.001-0.004-0.001c-0.003-0.001-0.006-0.002-0.01-0.003c0,0-0.001,0-0.002-0.001
		c-0.002,0-0.003-0.001-0.005-0.001c-0.001,0-0.002-0.001-0.003-0.001c-0.002,0-0.004-0.001-0.005-0.001s-0.002-0.001-0.003-0.001
		c-0.006-0.002-0.012-0.004-0.018-0.006c-0.001,0-0.002-0.001-0.003-0.001c-0.002,0-0.004-0.001-0.005-0.002
		c-0.002,0-0.003,0-0.004-0.001c-0.006-0.002-0.012-0.004-0.018-0.006c-0.001,0-0.002,0-0.002,0
		c-0.002-0.001-0.004-0.001-0.006-0.002c-0.001,0-0.002,0-0.003-0.001c-0.006-0.002-0.013-0.004-0.02-0.007c0,0,0,0-0.001,0
		c-0.002-0.001-0.004-0.001-0.006-0.002c0,0-0.001,0-0.002-0.001c-0.009-0.003-0.018-0.006-0.027-0.009c0,0-0.001,0-0.001,0
		c-0.002-0.001-0.005-0.001-0.007-0.002l0,0c-0.007-0.002-0.014-0.004-0.021-0.007c-0.001,0-0.001,0-0.002,0
		c-0.002,0-0.004-0.001-0.006-0.002c-0.001,0-0.001,0-0.001,0c-0.007-0.002-0.014-0.004-0.021-0.006c-0.001,0-0.001,0-0.001,0
		c-0.003,0-0.005-0.001-0.007-0.002l-0.001,0c-0.007-0.002-0.014-0.004-0.021-0.006c0,0,0,0,0,0c-0.002,0-0.005-0.001-0.007-0.002
		c0,0,0,0-0.001,0c-0.01-0.003-0.019-0.006-0.028-0.009c0,0,0,0-0.001,0c-0.009-0.003-0.019-0.006-0.028-0.009h-0.001
		c-0.235-0.071-0.479-0.128-0.729-0.17l0,0c-0.01-0.001-0.021-0.003-0.03-0.005c-0.001,0-0.001,0-0.001,0
		c-0.01-0.002-0.021-0.003-0.03-0.005c-0.001,0-0.001,0-0.001,0c-0.01-0.001-0.021-0.003-0.031-0.004v0
		c-0.003,0-0.005,0-0.008-0.001c0,0,0,0-0.001,0c-0.007-0.001-0.015-0.002-0.021-0.003c-0.001,0-0.001,0-0.002,0
		c-0.002,0-0.005-0.001-0.007-0.001c0,0-0.001,0-0.001,0c-0.008-0.001-0.015-0.002-0.022-0.003c0,0-0.001,0-0.001,0
		c-0.002,0-0.005,0-0.007-0.001c-0.001,0-0.001,0-0.002,0c-0.007-0.001-0.015-0.002-0.022-0.003l0,0
		c-0.003,0-0.005-0.001-0.007-0.001c-0.001,0-0.001,0-0.002,0c-0.008-0.001-0.015-0.002-0.022-0.003c0,0,0,0-0.001,0
		c-0.002,0-0.004,0-0.007-0.001c0,0-0.001,0-0.002,0c-0.002,0-0.004-0.001-0.007-0.001c0,0,0,0-0.001,0
		c-0.005-0.001-0.01-0.001-0.015-0.002l0,0c-0.002,0-0.005,0-0.007-0.001c-0.001,0-0.002,0-0.002,0c-0.003,0-0.005,0-0.007,0
		c-0.001,0-0.001,0-0.002,0c-0.007,0-0.014-0.001-0.021-0.002c-0.001,0-0.002,0-0.003,0c-0.002,0-0.004,0-0.006-0.001
		c-0.001,0-0.002,0-0.003,0c-0.007-0.001-0.014-0.002-0.021-0.002c-0.001,0-0.002,0-0.002,0c-0.002,0-0.005,0-0.007,0
		c-0.001,0-0.001,0-0.002,0c-0.007,0-0.014-0.001-0.021-0.002c-0.001,0-0.002,0-0.003,0c-0.002,0-0.004,0-0.006,0
		c-0.001,0-0.002,0-0.004,0c-0.002,0-0.003,0-0.005,0c-0.001,0-0.002,0-0.003,0c-0.004,0-0.008-0.001-0.012-0.001
		c-0.001,0-0.002,0-0.003,0c-0.002,0-0.004,0-0.006,0c-0.001,0-0.002,0-0.003,0c-0.002,0-0.004,0-0.006,0c-0.001,0-0.002,0-0.003,0
		c-0.004,0-0.008,0-0.011-0.001c-0.002,0-0.003,0-0.004,0c-0.002,0-0.004,0-0.006-0.001c-0.001,0-0.002,0-0.003,0
		c-0.002,0-0.004,0-0.006,0c-0.001,0-0.002,0-0.003,0c-0.004,0-0.008,0-0.011-0.001c-0.001,0-0.002,0-0.003,0
		c-0.002,0-0.004,0-0.006,0c-0.001,0-0.003,0-0.004,0c-0.002,0-0.003,0-0.005,0c-0.002,0-0.003,0-0.005,0
		c-0.003,0-0.005,0-0.008-0.001c-0.002,0-0.004,0-0.005,0c-0.002,0-0.004,0-0.005,0c-0.002,0-0.004,0-0.005,0
		c-0.002,0-0.003,0-0.005,0s-0.003,0-0.005,0c-0.001,0-0.003,0-0.005,0c-0.003,0-0.005,0-0.008,0c-0.002,0-0.003,0-0.005,0
		s-0.003,0-0.005,0c-0.001,0-0.003,0-0.005,0c-0.002,0-0.003,0-0.005,0c-0.001,0-0.003,0-0.004,0c-0.003,0-0.006,0-0.009,0
		c-0.002,0-0.003,0-0.005,0c-0.001,0-0.003,0-0.005,0c-0.001,0-0.003,0-0.005,0c-0.001,0-0.003,0-0.005,0c-0.001,0-0.003,0-0.004,0
		c-0.003,0-0.005,0-0.007,0c-0.002,0-0.005,0-0.007,0c-0.001,0-0.003,0-0.005,0c-0.002,0-0.003,0-0.005,0c-0.001,0-0.003,0-0.005,0
		c-0.001,0-0.003,0-0.004,0c-0.003,0-0.005,0-0.007,0c-0.002,0-0.004,0-0.006,0s-0.004,0-0.006,0c-0.001,0-0.003,0-0.004,0
		c-0.002,0-0.004,0-0.006,0c-0.001,0-0.003,0-0.004,0c-0.002,0-0.005,0-0.007,0c-0.001,0-0.003,0-0.004,0c-0.003,0-0.006,0-0.008,0
		s-0.003,0-0.004,0c-0.002,0-0.004,0-0.006,0s-0.003,0-0.004,0c-0.002,0-0.004,0-0.006,0s-0.003,0-0.004,0c-0.003,0-0.006,0-0.009,0
		c-0.002,0-0.003,0-0.004,0c-0.002,0-0.004,0-0.006,0c-0.002,0-0.003,0-0.005,0s-0.004,0-0.006,0c-0.001,0-0.002,0-0.003,0
		c-0.003,0-0.007,0-0.01,0c-0.001,0-0.002,0-0.003,0c-0.002,0-0.004,0-0.007,0c-0.001,0-0.002,0-0.004,0c-0.002,0-0.004,0-0.006,0
		c-0.001,0-0.002,0-0.003,0c-0.004,0-0.007,0-0.01,0c-0.001,0-0.002,0-0.003,0c-0.002,0-0.005,0-0.007,0c-0.001,0-0.002,0-0.004,0
		s-0.004,0-0.006,0c-0.001,0-0.002,0-0.004,0c-0.003,0-0.006,0-0.009,0c-0.001,0-0.002,0-0.003,0c-0.002,0-0.005,0-0.007,0
		c-0.002,0-0.003,0-0.004,0c-0.002,0-0.004,0-0.006,0s-0.003,0-0.004,0c-0.003,0-0.006,0-0.009,0c-0.001,0-0.001,0-0.002,0
		c-0.003,0-0.006,0-0.009,0c-0.001,0-0.002,0-0.003,0c-0.002,0-0.005,0-0.007,0c-0.001,0-0.002,0-0.003,0c-0.003,0-0.005,0-0.008,0
		c-0.001,0-0.002,0-0.003,0c-0.003,0-0.006,0-0.009,0c-0.001,0-0.002,0-0.003,0c-0.003,0-0.005,0-0.007,0c-0.001,0-0.003,0-0.004,0
		c-0.002,0-0.005,0-0.007,0c-0.001,0-0.002,0-0.003,0c-0.003,0-0.006,0-0.01,0h-0.002c-0.003,0-0.005,0-0.008,0
		c-0.001,0-0.002,0-0.003,0c-0.003,0-0.005,0-0.008,0c-0.001,0-0.001,0-0.002,0c-0.004,0-0.007,0-0.01,0c-0.001,0-0.002,0-0.003,0
		c-0.002,0-0.005,0-0.007,0c-0.001,0-0.002,0-0.004,0s-0.004,0-0.007,0c-0.001,0-0.002,0-0.003,0c-0.003,0-0.006,0-0.01,0
		c0,0-0.001,0-0.002,0c-0.002,0-0.005,0-0.008,0c-0.001,0-0.002,0-0.003,0c-0.003,0-0.005,0-0.007,0c-0.001,0-0.002,0-0.003,0
		c-0.004,0-0.007,0-0.01,0c-0.001,0-0.001,0-0.001,0c-0.003,0-0.006,0-0.009,0c-0.001,0-0.003,0-0.004,0c-0.002,0-0.005,0-0.007,0
		c-0.001,0-0.002,0-0.003,0C131.384,77.516,131.38,77.516,131.377,77.516L131.377,77.516L131.377,77.516z"/>
</g>
<line fill="none" x1="21.686" y1="174.499" x2="134.686" y2="123.833"/>
<g opacity="0.4">
	
		<text transform="matrix(0.8013 -0.3593 0.4091 0.9125 23.6187 173.6309)" fill="#C4DEF4" font-family="'HelveticaNeue'" font-size="26.54">C</text>
	
		<text transform="matrix(0.8013 -0.3593 0.4091 0.9125 38.9819 166.7441)" fill="#C4DEF4" font-family="'HelveticaNeue'" font-size="26.54">O</text>
	
		<text transform="matrix(0.8013 -0.3593 0.4091 0.9125 55.1445 159.498)" fill="#C4DEF4" font-family="'HelveticaNeue'" font-size="26.54">N</text>
	
		<text transform="matrix(0.8013 -0.3593 0.4091 0.9125 70.5107 152.6074)" fill="#C4DEF4" font-family="'HelveticaNeue'" font-size="26.54">T</text>
	
		<text transform="matrix(0.8013 -0.3593 0.4091 0.9125 82.7158 147.1348)" fill="#C4DEF4" font-family="'HelveticaNeue'" font-size="26.54">E</text>
	
		<text transform="matrix(0.8013 -0.3593 0.4091 0.9125 95.7188 141.3047)" fill="#C4DEF4" font-family="'HelveticaNeue'" font-size="26.54">N</text>
	
		<text transform="matrix(0.8013 -0.3593 0.4091 0.9125 111.0801 134.416)" fill="#C4DEF4" font-family="'HelveticaNeue'" font-size="26.54">T</text>
</g>
<g id="Segmented_Control_1_">
	<path fill="none" stroke="#0572CE" stroke-width="1.0028" stroke-miterlimit="10" d="M1.075,47.037h132.851
		c1.146,0,2.074,0.92,2.074,2.06v17.931c0,1.141-0.928,2.061-2.074,2.061H1.075c-1.149,0-2.075-0.92-2.075-2.061V49.097
		C-1,47.957-0.075,47.037,1.075,47.037z"/>
	<path fill="#0572CE" d="M0.983,47.037h43.964v22.055H0.983c-0.848,0-1.536-0.92-1.536-2.059V49.106
		C-0.552,47.957,0.136,47.037,0.983,47.037z"/>
	
		<rect x="43.831" y="47.037" fill="#FFFFFF" stroke="#0572CE" stroke-width="1.0957" stroke-miterlimit="10" width="46" height="22.072"/>
	
		<text id="C_Enabled_1_" transform="matrix(1.0066 0 0 1 107.1211 63.6309)" fill="#0572CE" font-family="'HelveticaNeue'" font-size="16">C</text>
	
		<text id="B_Enabled_1_" transform="matrix(1.0066 0 0 1 61.1216 63.6309)" fill="#0572CE" font-family="'HelveticaNeue'" font-size="16">B</text>
	
		<text id="A_Selected_1_" transform="matrix(1.0066 0 0 1 15.6626 63.6309)" fill="#FFFFFF" font-family="'HelveticaNeue'" font-size="16">A</text>
</g>
</svg>
