<?xml version="1.0" encoding="utf-8"?>
<!DOCTYPE svg PUBLIC "-//W3C//DTD SVG 1.1//EN" "http://www.w3.org/Graphics/SVG/1.1/DTD/svg11.dtd">
<svg version="1.1" id="Thumbnail_Layout" xmlns="http://www.w3.org/2000/svg" xmlns:xlink="http://www.w3.org/1999/xlink" x="0px"
	 y="0px" width="150px" height="224px" viewBox="0 0 150 224" enable-background="new 0 0 150 224" xml:space="preserve">
<rect id="Background_Panel" fill-rule="evenodd" clip-rule="evenodd" fill="#FFFFFF" width="150" height="224"/>
<g id="Thumbnails">
	<rect id="Thumbnail_3_" x="114.02" y="186.04" fill="#F6F6F7" width="30" height="30"/>
	<path id="Border_4_" fill="#D6DFE6" d="M144.04,216.04h-30v-30h30V216.04z M143.12,187l-28.08-0.04l-0.08,28.08l28.12-0.04
		L143.12,187z"/>
	<rect id="Thumbnail_2_" x="78" y="186" fill="#F6F6F7" width="30" height="30"/>
	<path id="Border_5_" fill="#D6DFE6" d="M108.04,216.1h-30v-30h30V216.1z M107.12,187.06l-28.04,0L79.06,215l28,0.06L107.12,187.06z
		"/>
	<rect id="Thumbnail_1_" x="42.02" y="186.02" fill="#F6F6F7" width="30" height="30"/>
	<path id="Border_3_" fill="#D6DFE6" d="M72.04,216.04h-30v-30h30V216.04z M71.12,187l-28.04,0l-0.02,27.94l28,0.06L71.12,187z"/>
	<rect id="Thumbnail" x="6.02" y="186.02" fill="#F6F6F7" width="30" height="30"/>
	<path id="Border_2_" fill="#0572CE" d="M36.1,216.04h-30v-30h30V216.04z M35.19,187l-28.04,0l-0.02,27.94l28,0.06L35.19,187z"/>
</g>
<g id="PGL">
	<rect id="Top_Horizontal_Bar_6_" x="6" y="36.04" fill="#F6F6F7" width="138" height="142.08"/>
	<path fill="#D6DFE6" d="M144,178.04H6v-142h138V178.04z M143,37.04H7v140h136V37.04z"/>
</g>
<path id="Title" fill-rule="evenodd" clip-rule="evenodd" fill="#F6F6F7" d="M0,0h150.05v30H0V0z"/>
<rect id="Divide" y="29.88" fill-rule="evenodd" clip-rule="evenodd" fill="#F3F3F4" width="150" height="1"/>
<path id="Border" fill-rule="evenodd" clip-rule="evenodd" fill="#D6DFE6" d="M0-0.04h150.05V224H0V-0.04z M0.96,1.03h148v222h-148
	V1.03z"/>
<text transform="matrix(1 0 0 1 68.5835 24)" fill="#333333" font-family="'HelveticaNeue'" font-size="9">Title</text>
<g id="Springboard_Icon_1_">
	<g>
		<path fill-rule="evenodd" clip-rule="evenodd" fill="#0572CE" d="M13.97,24.01H5.04c-0.57,0-1.03,0.45-1.03,1s0.46,1,1.03,1h8.94
			c0.57,0,1.03-0.45,1.03-1S14.54,24.01,13.97,24.01z M13.97,20.01H5.04c-0.57,0-1.03,0.45-1.03,1s0.46,1,1.03,1h8.94
			c0.57,0,1.03-0.45,1.03-1S14.54,20.01,13.97,20.01z M5.04,18.01h8.94c0.57,0,1.03-0.45,1.03-1s-0.46-1-1.03-1H5.04
			c-0.57,0-1.03,0.45-1.03,1S4.47,18.01,5.04,18.01z"/>
	</g>
</g>
</svg>
